<svg width="25" height="26" viewBox="0 0 25 26" fill="none" xmlns="http://www.w3.org/2000/svg">
<path d="M11.4585 9.50346H13.5418V7.42013H11.4585V9.50346ZM12.5002 20.9618C7.90641 20.9618 4.16683 17.2222 4.16683 12.6285C4.16683 8.03471 7.90641 4.29513 12.5002 4.29513C17.0939 4.29513 20.8335 8.03471 20.8335 12.6285C20.8335 17.2222 17.0939 20.9618 12.5002 20.9618ZM12.5002 2.21179C11.1322 2.21179 9.77769 2.48123 8.51388 3.00471C7.25007 3.5282 6.10174 4.29549 5.13447 5.26276C3.18096 7.21627 2.0835 9.86579 2.0835 12.6285C2.0835 15.3911 3.18096 18.0407 5.13447 19.9942C6.10174 20.9614 7.25007 21.7287 8.51388 22.2522C9.77769 22.7757 11.1322 23.0451 12.5002 23.0451C15.2628 23.0451 17.9124 21.9477 19.8659 19.9942C21.8194 18.0407 22.9168 15.3911 22.9168 12.6285C22.9168 11.2605 22.6474 9.90598 22.1239 8.64217C21.6004 7.37836 20.8331 6.23004 19.8659 5.26276C18.8986 4.29549 17.7503 3.5282 16.4865 3.00471C15.2226 2.48123 13.8681 2.21179 12.5002 2.21179ZM11.4585 17.8368H13.5418V11.5868H11.4585V17.8368Z" fill="#8C337D"/>
</svg>
