<svg width="25" height="26" viewBox="0 0 25 26" fill="none" xmlns="http://www.w3.org/2000/svg">
<path d="M23.0713 10.5781H16.8213C16.7139 10.5781 16.626 10.666 16.626 10.7734V11.9453C16.626 12.0527 16.7139 12.1406 16.8213 12.1406H23.0713C23.1787 12.1406 23.2666 12.0527 23.2666 11.9453V10.7734C23.2666 10.666 23.1787 10.5781 23.0713 10.5781ZM19.7998 13.8984H16.8213C16.7139 13.8984 16.626 13.9863 16.626 14.0938V15.2656C16.626 15.373 16.7139 15.4609 16.8213 15.4609H19.7998C19.9072 15.4609 19.9951 15.373 19.9951 15.2656V14.0938C19.9951 13.9863 19.9072 13.8984 19.7998 13.8984ZM11.6528 8.39307H10.5957C10.4443 8.39307 10.3223 8.51514 10.3223 8.6665V14.7212C10.3223 14.8091 10.3638 14.8896 10.4346 14.9409L14.0698 17.5923C14.1919 17.6802 14.3628 17.6558 14.4507 17.5337L15.0781 16.6768V16.6743C15.166 16.5522 15.1392 16.3813 15.0171 16.2935L11.9238 14.0571V8.6665C11.9263 8.51514 11.8018 8.39307 11.6528 8.39307Z" fill="#8C337D"/>
<path d="M19.6485 16.9722H18.2373C18.1006 16.9722 17.9712 17.043 17.898 17.1602C17.5879 17.6509 17.2266 18.105 16.8115 18.52C16.0962 19.2354 15.2637 19.7969 14.3384 20.1875C13.3789 20.5928 12.3609 20.7979 11.3111 20.7979C10.2588 20.7979 9.24074 20.5928 8.28371 20.1875C7.35842 19.7969 6.5259 19.2354 5.81057 18.52C5.09523 17.8047 4.53371 16.9722 4.14308 16.0469C3.73781 15.0899 3.53273 14.0718 3.53273 13.0195C3.53273 11.9673 3.73781 10.9517 4.14308 9.9922C4.53371 9.06691 5.09523 8.23439 5.81057 7.51906C6.5259 6.80372 7.35842 6.2422 8.28371 5.85157C9.24074 5.4463 10.2613 5.24122 11.3111 5.24122C12.3633 5.24122 13.3814 5.4463 14.3384 5.85157C15.2637 6.2422 16.0962 6.80372 16.8115 7.51906C17.2266 7.93409 17.5879 8.3882 17.898 8.87892C17.9712 8.99611 18.1006 9.06691 18.2373 9.06691H19.6485C19.8169 9.06691 19.9243 8.89113 19.8487 8.7422C18.2569 5.5757 15.0293 3.51759 11.4258 3.47609C6.14992 3.41017 1.76759 7.72902 1.75783 13C1.74806 18.2808 6.02785 22.5654 11.3086 22.5654C14.9585 22.5654 18.2398 20.5 19.8487 17.2969C19.9243 17.148 19.8145 16.9722 19.6485 16.9722Z" fill="#8C337D"/>
</svg>
