<svg width="25" height="26" viewBox="0 0 25 26" fill="none" xmlns="http://www.w3.org/2000/svg">
<path d="M12.4998 4.77559C14.7915 4.77559 16.6665 6.65059 16.6665 8.94226C16.6665 11.1298 14.479 14.6714 12.4998 17.1714C10.5207 14.5673 8.33317 11.1298 8.33317 8.94226C8.33317 6.65059 10.2082 4.77559 12.4998 4.77559ZM12.4998 2.69226C9.06234 2.69226 6.24984 5.50476 6.24984 8.94226C6.24984 13.6298 12.4998 20.4006 12.4998 20.4006C12.4998 20.4006 18.7498 13.5256 18.7498 8.94226C18.7498 5.50476 15.9373 2.69226 12.4998 2.69226ZM12.4998 6.85893C11.354 6.85893 10.4165 7.79643 10.4165 8.94226C10.4165 10.0881 11.354 11.0256 12.4998 11.0256C13.6457 11.0256 14.5832 10.0881 14.5832 8.94226C14.5832 7.79643 13.6457 6.85893 12.4998 6.85893ZM20.8332 20.4006C20.8332 22.6923 17.0832 24.5673 12.4998 24.5673C7.9165 24.5673 4.1665 22.6923 4.1665 20.4006C4.1665 19.0464 5.4165 17.9006 7.39567 17.0673L8.02067 18.0048C6.979 18.5256 6.24984 19.1506 6.24984 19.8798C6.24984 21.3381 9.06234 22.4839 12.4998 22.4839C15.9373 22.4839 18.7498 21.3381 18.7498 19.8798C18.7498 19.1506 18.0207 18.5256 16.8748 18.0048L17.4998 17.0673C19.5832 17.9006 20.8332 19.0464 20.8332 20.4006Z" fill="#8C337D"/>
</svg>
