<svg width="25" height="25" viewBox="0 0 25 25" fill="none" xmlns="http://www.w3.org/2000/svg">
<path d="M18.7503 19.2707C19.6149 19.2707 20.3128 18.5728 20.3128 17.7082C20.3128 16.8436 19.6149 16.1457 18.7503 16.1457C17.8857 16.1457 17.1878 16.8436 17.1878 17.7082C17.1878 18.5728 17.8857 19.2707 18.7503 19.2707ZM20.3128 9.89567H17.7087V12.4998H22.3545L20.3128 9.89567ZM6.25033 19.2707C7.11491 19.2707 7.81283 18.5728 7.81283 17.7082C7.81283 16.8436 7.11491 16.1457 6.25033 16.1457C5.38574 16.1457 4.68783 16.8436 4.68783 17.7082C4.68783 18.5728 5.38574 19.2707 6.25033 19.2707ZM20.8337 8.33317L23.9587 12.4998V17.7082H21.8753C21.8753 19.4373 20.4795 20.8332 18.7503 20.8332C17.0212 20.8332 15.6253 19.4373 15.6253 17.7082H9.37533C9.37533 19.4373 7.97949 20.8332 6.25033 20.8332C4.52116 20.8332 3.12533 19.4373 3.12533 17.7082H1.04199V6.24984C1.04199 5.09359 1.96908 4.1665 3.12533 4.1665H17.7087V8.33317H20.8337ZM3.12533 6.24984V15.6248H3.91699C4.48991 14.9894 5.32324 14.5832 6.25033 14.5832C7.17741 14.5832 8.01074 14.9894 8.58366 15.6248H15.6253V6.24984H3.12533ZM10.417 7.2915L14.0628 10.9373L10.417 14.5832V11.979H5.20866V9.89567H10.417V7.2915Z" fill="white"/>
</svg>
