<svg width="30" height="31" viewBox="0 0 30 31" fill="none" xmlns="http://www.w3.org/2000/svg">
<path fill-rule="evenodd" clip-rule="evenodd" d="M9.62466 2.00163C11.0595 1.93558 11.517 1.9209 15.1721 1.9209C18.8272 1.9209 19.2847 1.9368 20.7184 2.00163C22.152 2.06647 23.1306 2.29521 23.9869 2.62672C24.8835 2.96556 25.697 3.49523 26.3698 4.18025C27.0548 4.85182 27.5833 5.66406 27.9209 6.56193C28.2536 7.41821 28.4811 8.39681 28.5472 9.82802C28.6133 11.2653 28.6279 11.7228 28.6279 15.3767C28.6279 19.0318 28.612 19.4893 28.5472 20.9242C28.4824 22.3554 28.2536 23.334 27.9209 24.1903C27.5833 25.0883 27.0539 25.9018 26.3698 26.5744C25.697 27.2594 24.8835 27.7879 23.9869 28.1255C23.1306 28.4582 22.152 28.6857 20.7208 28.7518C19.2847 28.8178 18.8272 28.8325 15.1721 28.8325C11.517 28.8325 11.0595 28.8166 9.62466 28.7518C8.19345 28.687 7.21484 28.4582 6.35856 28.1255C5.4606 27.7878 4.64701 27.2585 3.97444 26.5744C3.28988 25.9024 2.76013 25.0892 2.42213 24.1915C2.09062 23.3352 1.8631 22.3566 1.79704 20.9254C1.73099 19.4881 1.71631 19.0306 1.71631 15.3767C1.71631 11.7216 1.73221 11.2641 1.79704 9.83047C1.86188 8.39681 2.09062 7.41821 2.42213 6.56193C2.76063 5.66416 3.29078 4.85098 3.97566 4.17903C4.64728 3.49462 5.46005 2.96488 6.35734 2.62672C7.21362 2.29521 8.19222 2.06769 9.62343 2.00163H9.62466ZM20.6095 4.42368C19.1905 4.35885 18.7648 4.34539 15.1721 4.34539C11.5794 4.34539 11.1537 4.35885 9.73475 4.42368C8.4222 4.48362 7.71026 4.70258 7.23564 4.88729C6.60811 5.13194 6.15917 5.42186 5.68822 5.89281C5.24179 6.32713 4.89822 6.85586 4.6827 7.44023C4.49799 7.91485 4.27903 8.62679 4.21909 9.93934C4.15426 11.3583 4.1408 11.784 4.1408 15.3767C4.1408 18.9694 4.15426 19.3951 4.21909 20.8141C4.27903 22.1266 4.49799 22.8386 4.6827 23.3132C4.898 23.8967 5.24173 24.4264 5.68822 24.8606C6.12248 25.3071 6.65215 25.6508 7.23564 25.8661C7.71026 26.0508 8.4222 26.2698 9.73475 26.3297C11.1537 26.3946 11.5782 26.408 15.1721 26.408C18.766 26.408 19.1905 26.3946 20.6095 26.3297C21.922 26.2698 22.634 26.0508 23.1086 25.8661C23.7361 25.6215 24.1851 25.3316 24.656 24.8606C25.1025 24.4264 25.4462 23.8967 25.6615 23.3132C25.8463 22.8386 26.0652 22.1266 26.1252 20.8141C26.19 19.3951 26.2034 18.9694 26.2034 15.3767C26.2034 11.784 26.19 11.3583 26.1252 9.93934C26.0652 8.62679 25.8463 7.91485 25.6615 7.44023C25.4169 6.8127 25.127 6.36376 24.656 5.89281C24.2217 5.44641 23.693 5.10284 23.1086 4.88729C22.634 4.70258 21.922 4.48362 20.6095 4.42368V4.42368ZM13.4534 19.5248C14.4133 19.9243 15.4821 19.9783 16.4772 19.6773C17.4724 19.3764 18.3323 18.7393 18.9099 17.8749C19.4876 17.0105 19.7472 15.9723 19.6444 14.9377C19.5416 13.9031 19.0829 12.9363 18.3465 12.2024C17.877 11.7332 17.3094 11.374 16.6845 11.1505C16.0595 10.9271 15.3928 10.845 14.7324 10.9101C14.0719 10.9753 13.4341 11.1861 12.8648 11.5273C12.2956 11.8685 11.8091 12.3317 11.4403 12.8835C11.0716 13.4354 10.8298 14.0621 10.7323 14.7186C10.6349 15.375 10.6842 16.045 10.8767 16.6801C11.0692 17.3153 11.4002 17.8998 11.8457 18.3917C12.2913 18.8836 12.8404 19.2706 13.4534 19.5248ZM10.2815 10.4861C10.9238 9.8439 11.6862 9.33444 12.5254 8.98687C13.3645 8.63929 14.2639 8.46039 15.1721 8.46039C16.0804 8.46039 16.9798 8.63929 17.8189 8.98687C18.658 9.33444 19.4205 9.8439 20.0627 10.4861C20.7049 11.1284 21.2144 11.8908 21.562 12.73C21.9095 13.5691 22.0884 14.4684 22.0884 15.3767C22.0884 16.285 21.9095 17.1843 21.562 18.0235C21.2144 18.8626 20.7049 19.625 20.0627 20.2673C18.7656 21.5643 17.0064 22.293 15.1721 22.293C13.3378 22.293 11.5786 21.5643 10.2815 20.2673C8.98448 18.9702 8.2558 17.211 8.2558 15.3767C8.2558 13.5424 8.98448 11.7832 10.2815 10.4861V10.4861ZM23.6224 9.49041C23.7815 9.34027 23.9089 9.15974 23.9971 8.95948C24.0852 8.75922 24.1322 8.54332 24.1354 8.32456C24.1386 8.10579 24.0979 7.88861 24.0156 7.68587C23.9334 7.48313 23.8113 7.29896 23.6566 7.14425C23.5019 6.98954 23.3177 6.86745 23.115 6.7852C22.9122 6.70295 22.695 6.66221 22.4763 6.6654C22.2575 6.66859 22.0416 6.71564 21.8413 6.80376C21.6411 6.89189 21.4606 7.0193 21.3104 7.17845C21.0184 7.48797 20.8586 7.8991 20.8648 8.32456C20.871 8.75002 21.0428 9.15631 21.3436 9.45718C21.6445 9.75806 22.0508 9.92983 22.4763 9.93604C22.9017 9.94224 23.3129 9.78238 23.6224 9.49041V9.49041Z" fill="#403038"/>
</svg>
