<svg width="30" height="31" viewBox="0 0 30 31" fill="none" xmlns="http://www.w3.org/2000/svg">
<g clip-path="url(#clip0_324_314)">
<path fill-rule="evenodd" clip-rule="evenodd" d="M0 15.4588C0 22.7567 5.30037 28.8253 12.2326 30.0559V19.4539H8.56279V15.3768H12.2326V12.1144C12.2326 8.44463 14.5971 6.40669 17.9415 6.40669C19.0008 6.40669 20.1434 6.56938 21.2027 6.73207V10.4838H19.3274C17.5329 10.4838 17.1256 11.3804 17.1256 12.523V15.3768H21.04L20.388 19.4539H17.1256V30.0559C24.0578 28.8253 29.3581 22.7579 29.3581 15.4588C29.3581 7.34003 22.7526 0.697754 14.6791 0.697754C6.60558 0.697754 0 7.34003 0 15.4588Z" fill="#403038"/>
</g>
<defs>
<clipPath id="clip0_324_314">
<rect width="29.3581" height="29.3581" fill="white" transform="translate(0 0.697754)"/>
</clipPath>
</defs>
</svg>
