<svg width="25" height="25" viewBox="0 0 25 25" fill="none" xmlns="http://www.w3.org/2000/svg">
<path d="M6.24967 13.5417C3.94759 13.5417 2.08301 15.4062 2.08301 17.7083C2.08301 20.0104 3.94759 21.875 6.24967 21.875C8.55176 21.875 10.4163 20.0104 10.4163 17.7083C10.4163 15.4062 8.55176 13.5417 6.24967 13.5417ZM6.24967 19.7917C5.10384 19.7917 4.16634 18.8542 4.16634 17.7083C4.16634 16.5625 5.10384 15.625 6.24967 15.625C7.39551 15.625 8.33301 16.5625 8.33301 17.7083C8.33301 18.8542 7.39551 19.7917 6.24967 19.7917ZM6.24967 3.125C3.94759 3.125 2.08301 4.98958 2.08301 7.29167C2.08301 9.59375 3.94759 11.4583 6.24967 11.4583C8.55176 11.4583 10.4163 9.59375 10.4163 7.29167C10.4163 4.98958 8.55176 3.125 6.24967 3.125ZM12.4997 5.20833H22.9163V7.29167H12.4997V5.20833ZM12.4997 19.7917V17.7083H22.9163V19.7917H12.4997ZM12.4997 11.4583H22.9163V13.5417H12.4997V11.4583Z" fill="white"/>
</svg>
