<svg width="40" height="40" viewBox="0 0 40 40" fill="none" xmlns="http://www.w3.org/2000/svg">
<path d="M9.80005 10.7998V10.8998C9.90005 10.8998 9.90005 10.8998 9.80005 10.7998Z" fill="#C6C1C4"/>
<path d="M7.50005 11.7999C8.50005 12.6999 8.60005 13.1999 9.80005 13.9999C10.3 14.3999 10.9 14.7999 11.5 15.1999C11.9 15.1999 12.2 15.6999 12.6 15.7999V15.9999C12.7 15.9999 12.9 16.0999 12.9 16.1999C13.1 16.1999 13.2 16.3999 13.4 16.3999L13.6 16.4999H13.5C13.8 16.5999 14.1 16.7999 14.3 16.9999L14.4 16.7999C14.8 17.3999 15.2 17.1999 15.5 17.7999C16.4 17.8999 16.2 18.7999 17.1 18.8999C17 18.8999 17.1 18.9999 17 18.9999C17.3 19.1999 17.6 19.3999 17.8 19.0999C18 19.2999 17.9 19.2999 17.8 19.3999C17.9 19.2999 18.1 19.3999 18.3 19.4999H18.2L18.7 19.7999L18.8 19.4999C18.9 19.5999 18.8 19.6999 18.8 19.7999C18.8 19.8999 18.7 19.8999 18.9 19.9999L19 19.7999C19.4 20.1999 19.5 20.7999 20.1 21.3999C20.2 21.4999 20.3 21.5999 20.4 21.5999C20.9 21.1999 21.5 20.6999 22 20.1999L22.2001 19.9999L22.3 19.8999L22.5 19.6999C22.6 19.5999 22.8 19.3999 22.9 19.2999C23.5 18.6999 24.1 18.1999 24.8 17.8999L25 17.9999C25.2001 18.1999 25.1 17.3999 25.3 17.5999L25.4 17.3999C25.5 17.3999 25.6 17.3999 25.6 17.4999C25.7001 17.3999 25.7 17.3999 25.8 17.1999H26C26.6 16.8999 26.8 16.2999 27.4 15.8999C28.3 15.5999 29.3 14.3999 29.9 13.6999C30.6 12.5999 32.5 12.4999 33.2001 11.2999C33.3001 11.2999 33.3 11.1999 33.3 11.0999L34.3 10.3999C34.3 10.3999 38.9001 6.8999 34 7.8999V7.7999C33.4 8.0999 33.1001 8.2999 32.9001 8.7999C32.4001 8.9999 32.2001 9.5999 32 9.5999C31.9 10.0999 31.2001 9.8999 31.1 10.3999C31.1 10.3999 31 10.2999 31.1 10.1999C30.9 10.3999 30.7001 10.6999 30.5 10.5999C30 11.0999 29.2001 11.5999 29.1 12.0999V11.9999C29.1 12.2999 28.9001 12.1999 28.7001 12.4999H28.6C28.5 12.7999 28 12.9999 27.9 13.1999V12.9999L27.5 13.3999L27.7001 13.2999C27.9001 13.5999 27.2001 13.3999 27.1 13.7999C26.8001 13.9999 27 14.8999 26.6 14.9999C26.6 15.2999 26.5 14.6999 26.4 14.8999C26.3 14.6999 26.4 14.6999 26.3 14.5999C26.2 14.7999 25.8001 14.6999 25.7001 14.9999L25.6 14.8999C25.5 15.3999 24.9 15.1999 24.8 15.5999C24.5 15.9999 24.3001 15.3999 24.1 15.8999L23.8 15.7999C23.6 15.8999 23.9 16.0999 23.6 16.0999C23.5 15.9999 23.3 16.1999 23.3 15.9999C22.8 16.0999 22.7001 16.7999 22 16.9999C22.1 17.2999 21.7001 17.3999 21.7001 17.5999C21.6 17.4999 21.2 17.9999 21.3 17.5999C21.3 17.5999 21.4 17.4999 21.4 17.5999L21.3 17.4999C20.8 17.4999 20.9 17.9999 20.6 18.1999C20.7001 18.1999 20.8 18.0999 20.8 18.1999L20.5 18.3999V18.2999L20.4 18.3999H20.3C20.3 18.3999 20.3001 18.3999 20.2001 18.3999L20.3 18.4999C20.2 18.4999 20.1 18.1999 20.1 18.4999C20.1 18.6999 20.2001 18.6999 20.2001 18.7999L20.1 18.6999C20.1 18.5999 20 18.4999 20 18.3999C19.9 18.5999 19.9 18.5999 19.9 18.5999L20 18.3999C19.9 18.4999 19.9 18.3999 20 18.2999C20 18.2999 20 18.1999 20.1 18.1999C20.1 18.1999 20 18.1999 20 18.0999L20.1 17.9999L19.8 18.1999C19.3 18.1999 19.8 17.7999 19.2 17.8999C19.4 17.9999 19 18.1999 18.9 17.9999L19 17.8999C18.9 17.8999 18.8 17.8999 18.8 17.7999C18.9 17.7999 19 17.6999 18.8 17.5999L19 17.4999H18.6C18.5 17.1999 18.1 17.0999 18.1 16.8999C18.1 16.8999 17.7 16.4999 17.5 16.5999C17.7 16.5999 17.5 16.2999 17.6 16.1999C17.4 16.1999 17 16.0999 17 15.7999C16.6 15.2999 16 15.2999 15.7 14.7999C15.6 14.9999 15.4 14.6999 15.3 14.8999C14.7 14.6999 14.8 13.8999 14.2 14.2999C14 14.1999 14.1 13.9999 14 13.8999H14.1C13.7 13.5999 13.6 13.5999 13.3 13.2999C13.1 13.1999 12.9 13.4999 12.7 13.1999C12.9 13.1999 12.7 13.0999 12.7 12.9999C12.8 12.9999 12.8 12.9999 12.8 12.7999H12.7C12.5 12.6999 12.5 12.7999 12.6 12.7999C12.6 12.7999 12.6 12.7999 12.6 12.8999C12.5 12.5999 12.1 12.4999 12.3 12.2999C11.8 11.9999 11.3 11.8999 10.9 11.5999C10.9 11.4999 11.1 11.4999 11.2 11.4999L10.9 11.2999C11 11.1999 11.1 11.3999 11.2 11.3999C11 10.8999 10.3 11.0999 10.1 10.5999H9.90005C9.90005 10.6999 9.70005 10.6999 9.60005 10.5999C9.60005 10.3999 9.80005 10.2999 9.60005 10.1999C9.50005 9.9999 9.10005 9.8999 8.90005 9.7999C9.00005 9.8999 8.90005 9.8999 8.80005 9.8999C8.70005 9.7999 8.70005 9.6999 8.60005 9.6999L8.70005 9.4999C8.60005 9.6999 8.30005 9.4999 8.20005 9.4999C8.20005 9.2999 8.40005 9.4999 8.50005 9.4999C8.20005 9.4999 8.40005 9.6999 8.00005 9.3999C7.70005 9.3999 7.90005 9.5999 7.70005 9.5999C7.50005 9.4999 7.20005 9.4999 7.10005 9.1999V9.3999C6.60005 9.1999 6.40005 9.0999 6.30005 8.6999C2.90005 7.7999 4.60005 9.7999 4.60005 9.7999C5.30005 10.8999 6.20005 10.9999 7.50005 11.7999Z" fill="#C6C1C4"/>
<path d="M9.80005 23.3999V23.4999C9.90005 23.4999 9.90005 23.4999 9.80005 23.3999Z" fill="#C6C1C4"/>
<path d="M7.50003 24.4C8.50003 25.3 8.60003 25.8 9.80003 26.6C10.3 27 10.9 27.4 11.5 27.8C11.9 27.8 12.2 28.3 12.6 28.4V28.6C12.7 28.6 12.9 28.7 12.9 28.8C13.1 28.8 13.2 29 13.4 29L13.6 29.1H13.5C13.8 29.2 14.1 29.4 14.3 29.6L14.4 29.4C14.8 30 15.2 29.8 15.5 30.4C16.4 30.5 16.2 31.4 17.1 31.5C17 31.5 17.1 31.6 17 31.6C17.3 31.8 17.6 32 17.8 31.7C18 31.9 17.9 31.9 17.8 32C17.9 31.9 18.1 32 18.3 32.1H18.2L18.7 32.4L18.8 32.1C18.9 32.2 18.8 32.3 18.8 32.4C18.8 32.5 18.7 32.5 18.9 32.6L19 32.4C19.4 32.8 19.5 33.4 20.1 34C20.2 34.1 20.3 34.2 20.4 34.2C20.9 33.8 21.5 33.3 22 32.8L22.2 32.6L22.3 32.5L22.5 32.3C22.6 32.2 22.8 32 22.9 31.9C23.5 31.3 24.1 30.8 24.8 30.5L25 30.6C25.2 30.8 25.1 30 25.3 30.2L25.4 30C25.5 30 25.6 30 25.6 30.1C25.7 30 25.7 30 25.8 29.8H26C26.6 29.5 26.8 28.9 27.4 28.5C28.3 28.2 29.3 27 29.9 26.3C30.6 25.2 32.5 25.1 33.2 23.9C33.3 23.9 33.3 23.8 33.3 23.7L34.3 23C34.3 23 38.9 19.5 34 20.5V20.4C33.4 20.7 33.1 20.9 32.9 21.4C32.6 21.2 32.5 21.7 32.3 21.7C32.2 22.2 31.5 22 31.4 22.5C31.4 22.5 31.3 22.4 31.4 22.3C31.2 22.5 31 22.8 30.8 22.7C30.3 23.2 29.5 23.7 29.4 24.2V24.1C29.4 24.4 29.2 24.3 29 24.6H28.9C28.8 24.9 28.3 25.1 28.2 25.3L28.1 25.2L27.5 26L27.7 25.9C27.9 26.2 27.2 26 27.1 26.4C26.8 26.6 27 27.5 26.6 27.6C26.6 27.9 26.5 27.3 26.4 27.5C26.3 27.3 26.4 27.3 26.3 27.2C26.2 27.4 25.8 27.3 25.7 27.6L25.6 27.5C25.5 28 24.9 27.8 24.8 28.2C24.5 28.6 24.3 28 24.1 28.5L23.8 28.4C23.6 28.5 23.9 28.7 23.6 28.7C23.5 28.6 23.3 28.8 23.3 28.6C22.8 28.7 22.7 29.4 22 29.6C22.1 29.9 21.7 30 21.7 30.2C21.6 30.1 21.2 30.6 21.3 30.2C21.3 30.2 21.4 30.1 21.4 30.2L21.3 30.1C20.8 30.1 20.9 30.6 20.6 30.8C20.7 30.8 20.8 30.7 20.8 30.8L20.5 31V30.9V31H20.4C20.4 31 20.4 31 20.3 31L20.4 31.1C20.3 31.1 20.2 30.8 20.2 31.1C20.2 31.3 20.3 31.3 20.3 31.4L20.2 31.3C20.2 31.2 20.1 31.1 20.1 31C20 31.2 20 31.2 20 31.2L20.1 31C20 31.1 20 31 20.1 30.9C20.1 30.9 20.1 30.8 20.2 30.8C20.2 30.8 20.1 30.8 20.1 30.7L20.2 30.6L19.9 30.8C19.4 30.8 19.9 30.4 19.3 30.5C19.5 30.6 19.1 30.8 19 30.6L19.1 30.5C19 30.5 18.9 30.5 18.9 30.4C19 30.4 19.1 30.3 18.9 30.2L19.1 30.1H18.7C18.6 29.8 18.2 29.7 18.2 29.5C18.2 29.5 17.8 29.1 17.6 29.2C17.8 29.2 17.6 28.9 17.7 28.8C17.5 28.8 17.1 28.7 17.1 28.4C16.7 27.9 16.1 27.9 15.8 27.4C15.7 27.6 15.5 27.3 15.4 27.5C14.8 27.3 14.9 26.5 14.3 26.9C14.1 26.8 14.2 26.6 14.1 26.5H14.2C13.8 26.2 13.7 26.2 13.4 25.9C13.3 26 13 26.3 12.8 26C13 26 12.8 25.9 12.8 25.8C12.9 25.8 12.9 25.8 12.9 25.6H12.8C12.6 25.5 12.6 25.6 12.7 25.6C12.7 25.6 12.7 25.6 12.7 25.7C12.6 25.4 12.2 25.3 12.4 25.1C11.9 24.8 11.4 24.7 11 24.4C11 24.3 11.2 24.3 11.3 24.3L11 24.1C11.1 24 11.2 24.2 11.3 24.2C11.1 23.7 10.4 23.9 10.2 23.4H10C10 23.5 9.80003 23.5 9.70003 23.4C9.70003 23.2 9.90003 23.1 9.70003 23C9.60003 22.8 9.20003 22.7 9.00003 22.6C9.10003 22.7 9.00003 22.7 8.90003 22.7C8.80003 22.6 8.80003 22.5 8.70003 22.5L8.80003 22.3C8.70003 22.5 8.40003 22.3 8.30003 22.3C8.30003 22.1 8.50003 22.3 8.60003 22.3C8.20003 22.2 8.40003 22.3 8.00003 22C7.70003 22 7.90003 22.2 7.70003 22.2C7.50003 22.1 7.20003 22 7.10003 21.8V22C6.70003 21.8 6.50003 21.6 6.40003 21.3C2.90003 20.4 4.60003 22.4 4.60003 22.4C5.30003 23.6 6.20003 23.6 7.50003 24.4Z" fill="#C6C1C4"/>
</svg>
