<svg width="67" height="65" viewBox="0 0 67 65" fill="none" xmlns="http://www.w3.org/2000/svg">
<path d="M51.7727 58.9062C54.3005 58.9062 56.3409 56.1844 56.3409 52.8125C56.3409 49.4406 54.3005 46.7188 51.7727 46.7188C49.245 46.7188 47.2045 49.4406 47.2045 52.8125C47.2045 56.1844 49.245 58.9062 51.7727 58.9062ZM56.3409 22.3438H48.7273V32.5H62.31L56.3409 22.3438ZM15.2273 58.9062C17.755 58.9062 19.7955 56.1844 19.7955 52.8125C19.7955 49.4406 17.755 46.7188 15.2273 46.7188C12.6995 46.7188 10.6591 49.4406 10.6591 52.8125C10.6591 56.1844 12.6995 58.9062 15.2273 58.9062ZM57.8636 16.25L67 32.5V52.8125H60.9091C60.9091 59.5562 56.8282 65 51.7727 65C46.7173 65 42.6364 59.5562 42.6364 52.8125H24.3636C24.3636 59.5562 20.2827 65 15.2273 65C10.1718 65 6.09091 59.5562 6.09091 52.8125H0V8.125C0 3.61562 2.71045 0 6.09091 0H48.7273V16.25H57.8636ZM6.09091 8.125V44.6875H8.40545C10.0805 42.2094 12.5168 40.625 15.2273 40.625C17.9377 40.625 20.3741 42.2094 22.0491 44.6875H42.6364V8.125H6.09091ZM27.4091 12.1875L38.0682 26.4062L27.4091 40.625V30.4688H12.1818V22.3438H27.4091V12.1875Z" fill="white"/>
</svg>
