<svg width="24" height="22" viewBox="0 0 24 22" fill="none" xmlns="http://www.w3.org/2000/svg">
<path d="M5.00065 12.1667C2.42232 12.1667 0.333984 14.255 0.333984 16.8333C0.333984 19.4117 2.42232 21.5 5.00065 21.5C7.57898 21.5 9.66732 19.4117 9.66732 16.8333C9.66732 14.255 7.57898 12.1667 5.00065 12.1667ZM5.00065 19.1667C3.71732 19.1667 2.66732 18.1167 2.66732 16.8333C2.66732 15.55 3.71732 14.5 5.00065 14.5C6.28398 14.5 7.33398 15.55 7.33398 16.8333C7.33398 18.1167 6.28398 19.1667 5.00065 19.1667ZM5.00065 0.5C2.42232 0.5 0.333984 2.58833 0.333984 5.16667C0.333984 7.745 2.42232 9.83333 5.00065 9.83333C7.57898 9.83333 9.66732 7.745 9.66732 5.16667C9.66732 2.58833 7.57898 0.5 5.00065 0.5ZM12.0007 2.83333H23.6673V5.16667H12.0007V2.83333ZM12.0007 19.1667V16.8333H23.6673V19.1667H12.0007ZM12.0007 9.83333H23.6673V12.1667H12.0007V9.83333Z" fill="white"/>
</svg>
