<svg width="67" height="65" viewBox="0 0 67 65" fill="none" xmlns="http://www.w3.org/2000/svg">
<path d="M59.5556 6.5C61.5299 6.5 63.4235 7.18482 64.8196 8.40381C66.2157 9.62279 67 11.2761 67 13V58.5C67 60.2239 66.2157 61.8772 64.8196 63.0962C63.4235 64.3152 61.5299 65 59.5556 65H7.44444C5.47006 65 3.57653 64.3152 2.18043 63.0962C0.784323 61.8772 0 60.2239 0 58.5V13C0 11.2761 0.784323 9.62279 2.18043 8.40381C3.57653 7.18482 5.47006 6.5 7.44444 6.5H23.0033C24.5667 2.73 28.6611 0 33.5 0C38.3389 0 42.4333 2.73 43.9967 6.5H59.5556ZM33.5 6.5C32.5128 6.5 31.566 6.84241 30.868 7.4519C30.1699 8.0614 29.7778 8.88805 29.7778 9.75C29.7778 10.612 30.1699 11.4386 30.868 12.0481C31.566 12.6576 32.5128 13 33.5 13C34.4872 13 35.434 12.6576 36.132 12.0481C36.8301 11.4386 37.2222 10.612 37.2222 9.75C37.2222 8.88805 36.8301 8.0614 36.132 7.4519C35.434 6.84241 34.4872 6.5 33.5 6.5V6.5ZM14.8889 19.5V13H7.44444V58.5H59.5556V13H52.1111V19.5H14.8889ZM33.5 55.25L14.8889 39H26.0556V26H40.9444V39H52.1111L33.5 55.25Z" fill="white"/>
</svg>
