<svg width="26" height="25" viewBox="0 0 26 25" fill="none" xmlns="http://www.w3.org/2000/svg">
<path d="M23 5H3V2.5H23V5ZM23 17.5H3V10H23V17.5ZM23 0H3C1.6125 0 0.5 1.1125 0.5 2.5V17.5C0.5 18.163 0.763392 18.7989 1.23223 19.2678C1.70107 19.7366 2.33696 20 3 20H23C23.663 20 24.2989 19.7366 24.7678 19.2678C25.2366 18.7989 25.5 18.163 25.5 17.5V2.5C25.5 1.83696 25.2366 1.20107 24.7678 0.732233C24.2989 0.263392 23.663 0 23 0ZM6.75 22.5H9.25V25H6.75V22.5ZM11.75 22.5H14.25V25H11.75V22.5ZM16.75 22.5H19.25V25H16.75V22.5Z" fill="white"/>
</svg>
