<svg width="67" height="65" viewBox="0 0 67 65" fill="none" xmlns="http://www.w3.org/2000/svg">
<path d="M33.5 0C29.1007 0 24.7445 0.840638 20.6801 2.47392C16.6157 4.10719 12.9227 6.50113 9.81192 9.51903C3.52945 15.614 0 23.8805 0 32.5C0 41.1195 3.52945 49.386 9.81192 55.481C12.9227 58.4989 16.6157 60.8928 20.6801 62.5261C24.7445 64.1594 29.1007 65 33.5 65C42.3848 65 50.9056 61.5759 57.1881 55.481C63.4705 49.386 67 41.1195 67 32.5C67 28.232 66.1335 24.0059 64.45 20.0628C62.7664 16.1197 60.2988 12.5369 57.1881 9.51903C54.0773 6.50113 50.3843 4.10719 46.3199 2.47392C42.2555 0.840638 37.8993 0 33.5 0V0ZM16.9845 52.91C18.425 49.985 27.202 47.125 33.5 47.125C39.798 47.125 48.575 49.985 50.0155 52.91C45.3234 56.5371 39.4994 58.5083 33.5 58.5C27.269 58.5 21.5405 56.42 16.9845 52.91ZM54.806 48.1975C50.0155 42.5425 38.391 40.625 33.5 40.625C28.609 40.625 16.9845 42.5425 12.194 48.1975C8.63022 43.695 6.69888 38.1768 6.7 32.5C6.7 18.1675 18.7265 6.5 33.5 6.5C48.2735 6.5 60.3 18.1675 60.3 32.5C60.3 38.415 58.223 43.875 54.806 48.1975V48.1975ZM33.5 13C27.001 13 21.775 18.07 21.775 24.375C21.775 30.68 27.001 35.75 33.5 35.75C39.999 35.75 45.225 30.68 45.225 24.375C45.225 18.07 39.999 13 33.5 13ZM33.5 29.25C32.1673 29.25 30.8892 28.7364 29.9468 27.8221C29.0044 26.9079 28.475 25.6679 28.475 24.375C28.475 23.0821 29.0044 21.8421 29.9468 20.9279C30.8892 20.0136 32.1673 19.5 33.5 19.5C34.8327 19.5 36.1108 20.0136 37.0532 20.9279C37.9956 21.8421 38.525 23.0821 38.525 24.375C38.525 25.6679 37.9956 26.9079 37.0532 27.8221C36.1108 28.7364 34.8327 29.25 33.5 29.25Z" fill="white"/>
</svg>
