<svg width="75" height="65" viewBox="0 0 75 65" fill="none" xmlns="http://www.w3.org/2000/svg">
<path d="M57.9545 58.9062C60.7841 58.9062 63.0682 56.1844 63.0682 52.8125C63.0682 49.4406 60.7841 46.7188 57.9545 46.7188C55.125 46.7188 52.8409 49.4406 52.8409 52.8125C52.8409 56.1844 55.125 58.9062 57.9545 58.9062ZM63.0682 22.3438H54.5455V32.5H69.75L63.0682 22.3438ZM17.0455 58.9062C19.875 58.9062 22.1591 56.1844 22.1591 52.8125C22.1591 49.4406 19.875 46.7188 17.0455 46.7188C14.2159 46.7188 11.9318 49.4406 11.9318 52.8125C11.9318 56.1844 14.2159 58.9062 17.0455 58.9062ZM64.7727 16.25L75 32.5V52.8125H68.1818C68.1818 59.5562 63.6136 65 57.9545 65C52.2955 65 47.7273 59.5562 47.7273 52.8125H27.2727C27.2727 59.5562 22.7045 65 17.0455 65C11.3864 65 6.81818 59.5562 6.81818 52.8125H0V8.125C0 3.61562 3.03409 0 6.81818 0H54.5455V16.25H64.7727ZM6.81818 8.125V44.6875H9.40909C11.2841 42.2094 14.0114 40.625 17.0455 40.625C20.0795 40.625 22.8068 42.2094 24.6818 44.6875H47.7273V8.125H6.81818ZM30.6818 12.1875L42.6136 26.4062L30.6818 40.625V30.4688H13.6364V22.3438H30.6818V12.1875Z" fill="white"/>
</svg>
