<svg width="24" height="26" viewBox="0 0 24 26" fill="none" xmlns="http://www.w3.org/2000/svg">
<path d="M20.75 2.75C21.413 2.75 22.0489 3.01339 22.5178 3.48223C22.9866 3.95107 23.25 4.58696 23.25 5.25V22.75C23.25 23.413 22.9866 24.0489 22.5178 24.5178C22.0489 24.9866 21.413 25.25 20.75 25.25H3.25C2.58696 25.25 1.95107 24.9866 1.48223 24.5178C1.01339 24.0489 0.75 23.413 0.75 22.75V5.25C0.75 4.58696 1.01339 3.95107 1.48223 3.48223C1.95107 3.01339 2.58696 2.75 3.25 2.75H8.475C9 1.3 10.375 0.25 12 0.25C13.625 0.25 15 1.3 15.525 2.75H20.75ZM12 2.75C11.6685 2.75 11.3505 2.8817 11.1161 3.11612C10.8817 3.35054 10.75 3.66848 10.75 4C10.75 4.33152 10.8817 4.64946 11.1161 4.88388C11.3505 5.1183 11.6685 5.25 12 5.25C12.3315 5.25 12.6495 5.1183 12.8839 4.88388C13.1183 4.64946 13.25 4.33152 13.25 4C13.25 3.66848 13.1183 3.35054 12.8839 3.11612C12.6495 2.8817 12.3315 2.75 12 2.75ZM5.75 7.75V5.25H3.25V22.75H20.75V5.25H18.25V7.75H5.75ZM12 21.5L5.75 15.25H9.5V10.25H14.5V15.25H18.25L12 21.5Z" fill="white"/>
</svg>
