<svg width="67" height="65" viewBox="0 0 67 65" fill="none" xmlns="http://www.w3.org/2000/svg">
<path d="M13.4 36.1111C5.9965 36.1111 0 42.575 0 50.5556C0 58.5361 5.9965 65 13.4 65C20.8035 65 26.8 58.5361 26.8 50.5556C26.8 42.575 20.8035 36.1111 13.4 36.1111ZM13.4 57.7778C9.715 57.7778 6.7 54.5278 6.7 50.5556C6.7 46.5833 9.715 43.3333 13.4 43.3333C17.085 43.3333 20.1 46.5833 20.1 50.5556C20.1 54.5278 17.085 57.7778 13.4 57.7778ZM13.4 0C5.9965 0 0 6.46389 0 14.4444C0 22.425 5.9965 28.8889 13.4 28.8889C20.8035 28.8889 26.8 22.425 26.8 14.4444C26.8 6.46389 20.8035 0 13.4 0ZM33.5 7.22222H67V14.4444H33.5V7.22222ZM33.5 57.7778V50.5556H67V57.7778H33.5ZM33.5 28.8889H67V36.1111H33.5V28.8889Z" fill="white"/>
</svg>
