<svg width="67" height="65" viewBox="0 0 67 65" fill="none" xmlns="http://www.w3.org/2000/svg">
<path d="M60.3 13H6.7V6.5H60.3V13ZM60.3 45.5H6.7V26H60.3V45.5ZM60.3 0H6.7C2.9815 0 0 2.8925 0 6.5V45.5C0 47.2239 0.705891 48.8772 1.96238 50.0962C3.21888 51.3152 4.92305 52 6.7 52H60.3C62.0769 52 63.7811 51.3152 65.0376 50.0962C66.2941 48.8772 67 47.2239 67 45.5V6.5C67 4.77609 66.2941 3.12279 65.0376 1.90381C63.7811 0.684819 62.0769 0 60.3 0V0ZM16.75 58.5H23.45V65H16.75V58.5ZM30.15 58.5H36.85V65H30.15V58.5ZM43.55 58.5H50.25V65H43.55V58.5Z" fill="white"/>
</svg>
