<svg width="25" height="25" viewBox="0 0 25 25" fill="none" xmlns="http://www.w3.org/2000/svg">
<path d="M12.4997 2.0835C11.1317 2.0835 9.7772 2.35293 8.51339 2.87642C7.24958 3.3999 6.10126 4.16719 5.13398 5.13447C3.18047 7.08797 2.08301 9.73749 2.08301 12.5002C2.08301 15.2628 3.18047 17.9124 5.13398 19.8659C6.10126 20.8331 7.24958 21.6004 8.51339 22.1239C9.7772 22.6474 11.1317 22.9168 12.4997 22.9168C15.2623 22.9168 17.9119 21.8194 19.8654 19.8659C21.8189 17.9124 22.9163 15.2628 22.9163 12.5002C22.9163 11.1322 22.6469 9.77769 22.1234 8.51388C21.5999 7.25007 20.8326 6.10174 19.8654 5.13447C18.8981 4.16719 17.7498 3.3999 16.486 2.87642C15.2222 2.35293 13.8676 2.0835 12.4997 2.0835V2.0835ZM7.36426 19.0418C7.81218 18.1043 10.5413 17.1877 12.4997 17.1877C14.458 17.1877 17.1872 18.1043 17.6351 19.0418C16.1761 20.2044 14.3652 20.8362 12.4997 20.8335C10.5622 20.8335 8.78093 20.1668 7.36426 19.0418ZM19.1247 17.5314C17.6351 15.7189 14.0205 15.1043 12.4997 15.1043C10.9788 15.1043 7.36426 15.7189 5.87467 17.5314C4.76653 16.0883 4.16599 14.3196 4.16634 12.5002C4.16634 7.90641 7.90593 4.16683 12.4997 4.16683C17.0934 4.16683 20.833 7.90641 20.833 12.5002C20.833 14.396 20.1872 16.146 19.1247 17.5314V17.5314ZM12.4997 6.25016C10.4788 6.25016 8.85384 7.87516 8.85384 9.896C8.85384 11.9168 10.4788 13.5418 12.4997 13.5418C14.5205 13.5418 16.1455 11.9168 16.1455 9.896C16.1455 7.87516 14.5205 6.25016 12.4997 6.25016ZM12.4997 11.4585C12.0853 11.4585 11.6878 11.2939 11.3948 11.0009C11.1018 10.7078 10.9372 10.3104 10.9372 9.896C10.9372 9.4816 11.1018 9.08417 11.3948 8.79114C11.6878 8.49812 12.0853 8.3335 12.4997 8.3335C12.9141 8.3335 13.3115 8.49812 13.6045 8.79114C13.8976 9.08417 14.0622 9.4816 14.0622 9.896C14.0622 10.3104 13.8976 10.7078 13.6045 11.0009C13.3115 11.2939 12.9141 11.4585 12.4997 11.4585Z" fill="white"/>
</svg>
