<?xml version="1.0" encoding="utf-8"?>
<!-- Generator: Adobe Illustrator 25.4.1, SVG Export Plug-In . SVG Version: 6.00 Build 0)  -->
<svg version="1.1" id="Calque_1" xmlns="http://www.w3.org/2000/svg" xmlns:xlink="http://www.w3.org/1999/xlink" x="0px" y="0px"
	 viewBox="0 0 300 120" style="enable-background:new 0 0 300 120;" xml:space="preserve">
<style type="text/css">
	.st0{fill:#FFFFFF;}
</style>
<g>
	<g>
		<path class="st0" d="M27.2,28.4c0,0.2,0,0.4-0.1,0.6C27,29.1,27,29.3,27,29.5s0,0.3,0.1,0.5c0.1,0.1,0.1,0.3,0.1,0.5
			c0,0.1,0,0.3-0.1,0.6c0,0.3-0.1,0.6-0.2,0.9s-0.1,0.6-0.2,0.8c-0.1,0.3-0.1,0.4-0.2,0.5h-0.7c-0.1,0.3-0.2,0.7-0.3,1
			c-0.6,0.3-1.1,0.5-1.5,0.5c-0.4,0.1-0.9,0.1-1.4,0.1c-0.2,0-0.4,0-0.7,0c-0.2,0-0.5,0-0.8,0c-0.5,0-1,0-1.4,0.1s-0.8,0.2-1.3,0.5
			c-0.1,0.1-0.3,0.1-0.4,0.1c-0.3,0-0.6,0-0.9-0.1s-0.6-0.1-0.9-0.2c-0.3-0.1-0.6-0.1-0.9-0.2C15,35,14.7,35,14.4,35
			c-0.4,0-0.8,0-1.3-0.1c-0.4-0.1-0.8-0.1-1.3-0.1c-0.3,0-0.6,0-0.9,0.1C10.6,35,10.3,35,10,35.1c0-0.1-0.3-0.1-0.6,0
			s-0.6,0.1-0.9,0.1c-0.3,0-0.6,0-0.8-0.1C7.4,35,7.1,35,6.8,35c-0.5,0-1,0-1.5,0.1s-1,0.1-1.5,0.1c-0.7,0-1.2-0.2-1.6-0.5
			s-0.6-0.8-0.6-1.5c0-0.3,0.1-0.5,0.2-0.7c0.4-0.7,0.7-1.1,1.1-1.4s0.7-0.5,1.1-0.6s0.7-0.2,1-0.3s0.6-0.1,0.8-0.3
			c0.2-0.2,0.4-0.4,0.5-0.8s0.2-1,0.2-1.7c0-0.9-0.1-1.8-0.2-2.7c-0.1-0.9-0.2-1.8-0.2-2.7c0-0.5,0-0.9,0.1-1.3s0.1-0.9,0.1-1.3
			c0-0.8,0-1.5-0.1-2.3s-0.1-1.5-0.1-2.3c0-0.5-0.1-1-0.2-1.6c-0.1-0.5-0.2-1-0.2-1.6c0-0.3,0-0.6,0.1-0.9c0.1-0.3,0.1-0.6,0.1-0.9
			c0-0.5,0-0.9-0.1-1.4c0-0.5-0.1-0.9-0.1-1.4c0-0.2-0.1-0.5-0.1-0.7c0-0.3-0.1-0.5-0.2-0.6C5.3,5.5,5.1,5.3,4.9,5.2
			C4.7,5.1,4.4,5.1,4.1,5.1s-0.6,0-0.8,0.1S2.7,5.3,2.5,5.3s-0.3,0-0.5,0S1.7,5.2,1.5,5.2C1.4,5.1,1.3,4.9,1.3,4.8
			C1.2,4.7,1.2,4.5,1.1,4.4C1.1,4.3,1,4.1,0.9,4S0.7,3.9,0.5,3.8c0.2-0.2,0.3-0.5,0.4-0.9s0.3-0.7,0.5-1.1C1.6,1.5,1.8,1.2,2.1,1
			C2.3,0.7,2.6,0.6,3,0.6c0.3,0,0.6,0.1,0.8,0.2S4.3,1,4.6,1C5,1,5.4,0.9,5.7,0.8C6,0.6,6.4,0.5,6.8,0.5c0.3,0,0.6,0.1,0.8,0.3
			c0.3-0.1,0.5-0.1,0.8-0.1c0.2,0,0.3,0,0.5,0.1c0.1,0,0.3,0.1,0.5,0.1c0.5,0,0.9-0.1,1.4-0.2c0.4-0.1,0.9-0.2,1.4-0.2
			c0.4,0,0.7,0.1,1.1,0.2c0.3,0.1,0.7,0.2,1,0.4c0.3,0.1,0.7,0.3,1,0.5s0.7,0.3,1,0.4c0,0.1,0,0.1,0,0.2c0,0.1,0,0.1,0,0.2v0.1v0.1
			c0,0.3-0.1,0.6-0.2,0.9s-0.2,0.6-0.2,0.9c-0.1,0.4-0.2,0.6-0.4,0.7C15.2,5,15,5,14.7,5c-0.1,0-0.3,0-0.4,0c-0.1,0-0.3,0-0.4,0
			c-0.6,0-1.2,0-1.7,0.1c-0.6,0.1-1.1,0.2-1.7,0.4c-0.2,0.3-0.2,0.6-0.2,1c0,0.3,0,0.6,0.1,0.8s0.1,0.6,0.1,0.8
			C10.3,8.1,10.2,8,10,8C9.9,8,9.8,8,9.6,8C9.5,8,9.3,8.1,9.2,8.2C9.1,8.3,9.1,8.5,9.1,8.6s0,0.2,0.1,0.3C9.3,9,9.4,9,9.5,9.1
			c0.1,0,0.2,0.1,0.4,0.1c0.1,0,0.2,0,0.3,0v0.5c0,0.6-0.1,1.1-0.2,1.7c-0.1,0.6-0.2,1.1-0.2,1.7c0,0.2,0,0.3,0.1,0.5
			c0,0.2,0.1,0.3,0.1,0.5s-0.1,0.3-0.2,0.4s-0.2,0.1-0.4,0.1c-0.1,0-0.3,0-0.4,0c-0.1,0-0.2,0.1-0.2,0.2v0.1
			c-0.1,0.1-0.1,0.2-0.1,0.3s0.1,0.2,0.2,0.3c0.1,0,0.2,0.1,0.4,0.1c0.1,0,0.2,0,0.4,0c0.1,0,0.2,0.1,0.2,0.2c0,0.2,0,0.3-0.1,0.5
			c0,0.1-0.1,0.3-0.1,0.5c0,0.4,0.1,0.8,0.3,1.2c0.2,0.4,0.3,0.8,0.3,1.2c0,0.4-0.1,0.7-0.2,1.1C10,20.7,9.9,21,9.9,21.4
			c0,0.2,0,0.5,0.1,0.7s0.1,0.5,0.2,0.7c0.1,0.2,0.2,0.5,0.2,0.7c0.1,0.2,0.1,0.5,0.1,0.7c0,0.3-0.1,0.6-0.2,1
			c-0.1,0.3-0.2,0.6-0.2,1c0,0.1,0,0.2,0,0.4c0.1,0.4,0.1,0.8,0.2,1.3c0.1,0.5,0.2,1,0.3,1.4s0.4,0.8,0.6,1.1
			c0.3,0.3,0.7,0.5,1.2,0.5s1-0.1,1.4-0.2c0.5-0.1,0.9-0.2,1.4-0.2c0.3,0,0.6,0,0.9,0.1s0.6,0.2,0.9,0.2c0.3,0.1,0.6,0.2,0.9,0.2
			c0.3,0.1,0.6,0.1,0.9,0.1c0.5,0,0.9-0.1,1.4-0.2s0.9-0.2,1.4-0.3c0.7-0.1,1.1-0.3,1.5-0.7c0.3-0.3,0.5-0.8,0.5-1.5s-0.1-1.4-0.2-2
			c-0.2-0.7-0.2-1.3-0.2-2c0-0.4,0.1-0.8,0.2-1.2c0.1-0.4,0.3-0.8,0.6-1.1c0.4-0.1,0.7-0.2,1.1-0.2c0.7,0,1.2,0.2,1.5,0.7
			c0.3,0.4,0.4,1,0.4,1.6c0,0.3-0.1,0.4-0.2,0.5s-0.2,0.2-0.2,0.3c0,0,0,0.1,0.1,0.1c0.1,0.1,0.1,0.1,0.2,0.2s0.1,0.2,0.2,0.3
			c0.1,0.1,0.1,0.2,0.1,0.4c0,0.1,0,0.2-0.1,0.2c0,0.2,0,0.4,0,0.6s0,0.5,0,0.7s0,0.5,0,0.7s0.1,0.4,0.1,0.5L27.2,28.4z"/>
		<path class="st0" d="M52.2,30c0,0.4-0.1,0.8-0.2,1.1c-0.1,0.3-0.3,0.6-0.5,0.8s-0.5,0.5-0.7,0.7c-0.3,0.2-0.5,0.4-0.8,0.7
			c-0.2,0.2-0.4,0.3-0.6,0.4c-0.2,0.1-0.3,0.2-0.5,0.2c-0.2,0.1-0.3,0.1-0.5,0.2c-0.2,0.1-0.4,0.1-0.6,0.3c-0.3,0.2-0.6,0.3-0.8,0.4
			c-0.2,0.1-0.4,0.3-0.6,0.4c-0.2,0.1-0.4,0.2-0.7,0.3c-0.2,0.1-0.6,0.1-0.9,0.2c-0.6,0.1-1.3,0.2-1.9,0.3c-0.6,0.1-1.3,0.2-1.9,0.2
			c-0.1,0-0.3,0-0.4-0.1c-0.1-0.1-0.3-0.1-0.5-0.2c-0.2-0.1-0.4-0.1-0.6-0.2c-0.2-0.1-0.5-0.1-0.8-0.1s-0.6,0-0.7-0.1
			c-0.2-0.1-0.4-0.2-0.5-0.3s-0.3-0.3-0.5-0.4c-0.2-0.1-0.4-0.3-0.6-0.4c-0.9-0.4-1.7-0.9-2.4-1.5s-1.2-1.3-1.7-2s-0.9-1.5-1.2-2.4
			c-0.3-0.9-0.6-1.8-0.8-2.7c-0.2-0.7-0.3-1.3-0.3-2c0-0.9,0.2-1.7,0.6-2.4c-0.2-0.4-0.2-0.9-0.2-1.3c0-0.3,0.1-0.7,0.3-1.3
			s0.4-1.2,0.7-1.8c0.3-0.6,0.6-1.1,0.9-1.6s0.6-0.8,0.9-0.9c0.2-0.1,0.4-0.1,0.5-0.2c0.1-0.1,0.1-0.2,0.1-0.5
			c0-0.2,0.1-0.3,0.2-0.5c0.1-0.1,0.3-0.2,0.5-0.3s0.4-0.1,0.6-0.2c0.2-0.1,0.4-0.1,0.5-0.2c0.6-0.3,1.1-0.5,1.6-0.7s1-0.4,1.6-0.5
			c0.5-0.1,1.1-0.2,1.6-0.3C41,11,41.6,11,42.2,11c0.3,0,0.7,0,1,0.1s0.6,0.2,0.9,0.4c0.3,0.1,0.6,0.3,0.9,0.5
			c0.3,0.2,0.6,0.4,0.9,0.5l0,0c0.2,0,0.5,0.1,0.7,0.2c0.2,0.1,0.4,0.2,0.7,0.2c0.2,0.3,0.5,0.5,0.9,0.8c0.4,0.2,0.7,0.5,1,0.8
			s0.6,0.5,0.9,0.9s0.4,0.7,0.4,1c0,0.1,0,0.1,0,0.2s0,0.1,0,0.2l0.1-0.1c0.1,0,0.1,0.1,0.2,0.2c0.1,0.1,0.1,0.2,0.2,0.4
			c0,0.1,0.1,0.3,0.1,0.4s0.1,0.2,0.1,0.3c0.1,0.2,0.3,0.4,0.5,0.5s0.4,0.3,0.5,0.5C52,19.2,52,19.4,52,19.6c0,0.3,0.1,0.5,0.2,0.8
			c0.1,0.3,0.2,0.5,0.2,0.8s0,0.6,0,0.9s0,0.6,0,0.9c0,0.2-0.1,0.4-0.3,0.5s-0.4,0.2-0.6,0.3c-0.2,0.1-0.4,0.2-0.6,0.3
			s-0.3,0.2-0.3,0.4c0,0.1-0.1,0.2-0.2,0.2c-0.1,0-0.3,0-0.4,0c-0.7,0-1.4-0.1-2-0.3c-0.7-0.2-1.4-0.3-2-0.3c-0.7,0-1.5,0.1-2.2,0.2
			s-1.4,0.2-2.2,0.2c-0.5,0-1.1,0-1.6,0s-1.1,0-1.6,0c-0.1,0-0.4,0-0.8,0.1c-0.4,0.1-0.8,0.1-1.2,0.2s-0.8,0.2-1.2,0.3
			s-0.7,0.2-0.8,0.3c0,0.1,0,0.2,0,0.3c0,0.7,0.2,1.5,0.6,2.3c0.4,0.8,1,1.5,1.7,2.1s1.5,1.2,2.4,1.6s1.8,0.6,2.6,0.6
			c0.5,0,1,0,1.5,0.1c0.5,0,1,0.2,1.5,0.3c0.4-0.2,0.8-0.4,1.2-0.7s0.7-0.5,1-0.8s0.6-0.6,1-0.9c0.3-0.3,0.6-0.6,1-0.9
			c0.1-0.1,0.2-0.1,0.5-0.2c0.2-0.1,0.5-0.1,0.8-0.1S50.7,29,51,29s0.4,0,0.5,0c0.4,0,0.7,0.1,1,0.2C52.2,29.3,52.2,29.6,52.2,30z
			 M48.7,20.5c0-0.2,0-0.5-0.1-0.7s-0.1-0.4-0.2-0.7c-0.1-0.4-0.1-0.9-0.1-1.3s-0.1-0.8-0.2-1.3l0,0c0,0.1,0,0.2-0.1,0.3
			c-0.1,0.1-0.1,0.1-0.3,0.1s-0.4,0-0.5-0.1c-0.2-0.1-0.3-0.2-0.4-0.4c-0.6-0.3-1.1-0.5-1.6-0.7s-1-0.4-1.4-0.6
			c-0.5-0.2-1-0.3-1.5-0.4c-0.5-0.1-1.2-0.2-1.9-0.2c-0.1,0-0.1,0-0.2,0c-0.1,0-0.1,0-0.2,0.1l0.1,0.3h-0.2c-0.4,0.1-0.8,0.2-1,0.2
			c-0.3,0.1-0.5,0.2-0.7,0.3s-0.4,0.3-0.6,0.5c-0.2,0.2-0.5,0.4-0.8,0.7c-0.2,0.1-0.3,0.2-0.5,0.3c-0.2,0.1-0.4,0.1-0.5,0.2
			c-0.2,0.1-0.4,0.1-0.5,0.2c-0.2,0.1-0.3,0.2-0.4,0.3c-0.1,0.4-0.3,0.8-0.5,1.1c-0.2,0.4-0.3,0.8-0.3,1.2c0,0.2,0.1,0.4,0.3,0.6
			s0.4,0.3,0.7,0.5c0.3,0.1,0.6,0.2,1,0.3c0.4,0.1,0.7,0.2,1.1,0.2s0.7,0.1,1,0.1s0.5,0,0.7,0c0.6,0,1.2-0.1,1.8-0.2
			s1.2-0.2,1.8-0.2s1.2,0,1.8,0.1s1.2,0.1,1.8,0.1c0.2,0,0.4,0,0.7,0s0.6-0.1,0.9-0.1c0.3-0.1,0.6-0.2,0.8-0.3
			C48.6,20.9,48.7,20.7,48.7,20.5z"/>
		<path class="st0" d="M77.3,27.7c0,0.2,0,0.4-0.1,0.6S77,28.7,77,28.9c-0.1,0.2-0.2,0.4-0.3,0.6c-0.1,0.2-0.1,0.4-0.2,0.6
			c-0.1,0.4-0.2,0.8-0.5,1.1c-0.2,0.3-0.5,0.7-0.8,0.9c-0.3,0.3-0.6,0.6-1,0.9c-0.3,0.3-0.6,0.5-0.9,0.8c-0.2,0.2-0.5,0.4-0.7,0.4
			s-0.3,0-0.4,0s-0.3,0-0.4,0c-0.2,0-0.4,0-0.5,0.1s-0.3,0.2-0.4,0.2c-0.1,0.1-0.3,0.2-0.4,0.2c-0.2,0.1-0.4,0.1-0.7,0.1
			c-0.2,0-0.4,0.1-0.6,0.2c-0.2,0.1-0.4,0.2-0.6,0.2c-0.3,0-0.6-0.1-0.9-0.2c-0.4-0.2-0.7-0.2-1.2-0.2c-0.3,0-0.5,0-0.8,0
			s-0.5,0-0.8,0c-0.2,0-0.5,0-0.7-0.1s-0.4-0.1-0.7-0.2c-0.2-0.1-0.4-0.2-0.6-0.2c-0.2-0.1-0.4-0.1-0.7-0.1c-0.5,0-0.9,0.1-1.2,0.4
			c-0.3,0.2-0.6,0.5-0.9,0.8c-0.3,0.3-0.5,0.5-0.8,0.8c-0.3,0.2-0.5,0.4-0.9,0.4c-0.3,0-0.5-0.1-0.6-0.2c-0.1-0.1-0.2-0.2-0.2-0.4
			c0-0.1,0-0.3-0.1-0.5c0-0.2-0.1-0.3-0.2-0.4c-0.2-0.2-0.4-0.5-0.5-0.7s-0.1-0.5-0.1-0.8c0-0.7,0.1-1.5,0.2-2.2
			c0.1-0.7,0.2-1.4,0.2-2.2c0-0.3,0-0.5-0.1-0.8c-0.1-0.2-0.1-0.5-0.2-0.7c-0.1-0.2-0.2-0.4-0.2-0.5c-0.1-0.1-0.1-0.2-0.1-0.3
			c0-0.1,0-0.3,0.1-0.4c0.1-0.2,0.2-0.3,0.3-0.4s0.2-0.2,0.3-0.3c0.1-0.1,0.2-0.1,0.3-0.1c0.2,0,0.3,0,0.4,0.1
			c0.1,0.1,0.2,0.2,0.4,0.2c0.1,0.1,0.2,0.2,0.4,0.2c0.1,0.1,0.3,0.1,0.4,0.1h0.1c0,0,0,0,0.1,0c0.2,0.4,0.4,0.7,0.5,1.2
			c0.1,0.4,0.3,0.8,0.4,1.2c0.1,0.4,0.3,0.8,0.5,1.1c0.2,0.4,0.5,0.7,0.8,1c0.1,0.1,0.2,0.2,0.3,0.3c0.1,0.1,0.3,0.2,0.4,0.3
			c0.1,0.1,0.3,0.2,0.4,0.2c0.1,0.1,0.3,0.1,0.4,0.1c0.2,0,0.3,0,0.5,0s0.3,0,0.5,0c0.2,0,0.4,0.1,0.4,0.2c0,0,0,0.1,0,0.2h0.3h0.2
			c0.6,0,1.2-0.1,1.8-0.2c0.6-0.1,1.2-0.2,1.8-0.2c0.3,0,0.6,0,0.9,0.1s0.5,0.2,0.8,0.3c0.3-0.1,0.5-0.3,0.7-0.5s0.4-0.4,0.6-0.6
			s0.4-0.4,0.7-0.6c0.2-0.2,0.6-0.3,1-0.3c0.1-0.1,0.1-0.2,0.1-0.3c0-0.1,0-0.2,0-0.4s0-0.2,0-0.3c0-0.1,0.1-0.2,0.2-0.3
			c0.2-0.1,0.3-0.3,0.4-0.4s0.1-0.3,0.1-0.5c0-0.4-0.1-0.8-0.4-1.2c-0.2-0.4-0.5-0.7-0.9-1s-0.8-0.6-1.3-0.8c-0.5-0.2-1-0.4-1.5-0.6
			s-1-0.3-1.4-0.4c-0.5-0.1-0.8-0.1-1.2-0.1c-0.4,0-0.8,0-1.2,0.1c-0.4,0.1-0.8,0.2-1.1,0.4c0-0.3-0.1-0.6-0.2-0.7
			c-0.2-0.1-0.3-0.2-0.6-0.2c-0.2,0-0.4-0.1-0.7-0.2c-0.2-0.1-0.4-0.3-0.5-0.6c-0.3,0.3-0.6,0.6-1,0.7c-0.4,0.2-0.8,0.2-1.2,0.2
			s-0.8-0.1-1.1-0.2c-0.3-0.2-0.7-0.4-0.9-0.6c-0.3-0.3-0.5-0.6-0.7-0.9s-0.3-0.7-0.3-1.1c0-0.3-0.1-0.5-0.2-0.7
			c-0.1-0.2-0.2-0.4-0.3-0.6S57.1,19,57,18.8s-0.1-0.4-0.1-0.7c0-0.7,0-1.3,0.1-1.6c0.1-0.4,0.2-0.7,0.3-0.9s0.2-0.4,0.4-0.4
			c0.1-0.1,0.3-0.2,0.4-0.3c0.1-0.1,0.3-0.2,0.4-0.4c0.1-0.2,0.2-0.4,0.3-0.7c0-0.2,0.1-0.4,0.2-0.5c0.1-0.1,0.3-0.1,0.5-0.2
			c0.2,0,0.3-0.1,0.4-0.1c0.1-0.1,0.1-0.1,0.1-0.2c0-0.1,0.1-0.2,0.1-0.2c0-0.1,0.1-0.2,0.2-0.2c0.3-0.2,0.7-0.4,1-0.4
			c0.3-0.1,0.7-0.1,1-0.1c0.2,0,0.4,0,0.6,0c0.2,0,0.4,0,0.6,0c0.7,0,1.3,0,1.9-0.1s1.3-0.1,1.9-0.1c0.5,0,1,0.1,1.4,0.2
			c0.4,0.1,0.8,0.2,1.1,0.3c0.3,0.1,0.6,0.2,0.8,0.3c0.2,0.1,0.4,0.2,0.5,0.2c0.3,0,0.5-0.1,0.8-0.2c0.2-0.1,0.5-0.2,0.8-0.2
			c0.1,0.1,0.3,0.2,0.4,0.3c0.2,0.1,0.3,0.1,0.5,0.1c0.1,0,0.2,0,0.3-0.1c0.1-0.1,0.1-0.2,0.1-0.3c0.2,0.1,0.4,0.2,0.6,0.3
			c0.2,0.2,0.4,0.3,0.5,0.5c0.2,0.2,0.3,0.4,0.4,0.7c0.1,0.2,0.1,0.5,0.1,0.7c0,0.6,0,1.2-0.1,1.7c-0.1,0.6-0.1,1.1-0.1,1.7
			s0.1,1.1,0.2,1.7c-0.2,0.2-0.5,0.3-0.7,0.5c-0.3,0.1-0.5,0.3-0.6,0.5l0,0c-0.1-0.1-0.2-0.2-0.4-0.4c-0.2-0.1-0.3-0.3-0.5-0.4
			S73,19,72.8,18.9s-0.3-0.2-0.5-0.2l0,0c-0.1,0-0.1-0.1-0.2-0.2c-0.1,0.1-0.1,0-0.1-0.1c0-0.2,0-0.3,0.1-0.4s0.1-0.3,0.1-0.4
			c0,0-0.1-0.2-0.2-0.3c-0.1-0.2-0.3-0.3-0.5-0.5s-0.4-0.3-0.5-0.5c-0.2-0.1-0.3-0.2-0.4-0.2c-0.2,0-0.3-0.1-0.5-0.2
			c-0.2-0.1-0.3-0.2-0.5-0.2c-0.2-0.1-0.3-0.1-0.5-0.2c-0.1-0.1-0.3-0.1-0.4-0.1c-0.2,0-0.4,0-0.6,0.1s-0.4,0.1-0.6,0.1l0,0
			l-1.1-0.1c-0.5-0.1-1-0.2-1.5-0.4s-1-0.3-1.5-0.3s-0.8,0.1-1,0.3s-0.4,0.5-0.5,0.7c-0.1,0.3-0.3,0.5-0.4,0.7
			c-0.1,0.2-0.4,0.3-0.7,0.3c-0.1,0-0.2,0-0.2,0c0.2,0.5,0.3,0.9,0.4,1.3c0.1,0.3,0.3,0.7,0.5,0.9c0.2,0.3,0.4,0.5,0.7,0.8
			c0.3,0.2,0.6,0.5,1.1,0.8c0,0,0.1,0.1,0.2,0.2c0.1,0.1,0.2,0.2,0.3,0.2c0.1,0.1,0.2,0.2,0.3,0.2c0.1,0.1,0.2,0.1,0.2,0.1
			c0.3,0,0.5-0.1,0.8-0.2c0.2-0.1,0.5-0.2,0.8-0.2c0.2,0,0.4,0,0.5,0.1c0.2,0.1,0.3,0.1,0.5,0.1s0.4,0,0.5-0.1
			c0.2-0.1,0.4-0.1,0.6-0.1c0.1,0,0.2,0,0.2,0c0.1,0,0.2,0,0.2,0c0.5,0.1,0.9,0.2,1.4,0.2s0.9,0,1.4,0c0.3,0,0.7,0.1,1,0.2
			c0.4,0.1,0.7,0.3,1,0.5s0.6,0.4,0.9,0.7c0.3,0.2,0.5,0.5,0.7,0.8c0.2,0.2,0.3,0.4,0.5,0.6s0.4,0.3,0.5,0.5
			c0.2,0.2,0.3,0.4,0.5,0.6c0.1,0.2,0.2,0.4,0.3,0.7c0.1,0.3,0.2,0.7,0.3,1C77.2,27.1,77.3,27.4,77.3,27.7z"/>
		<path class="st0" d="M119.4,33.7c-0.1,0.2-0.2,0.3-0.4,0.4c-0.1,0.1-0.3,0.2-0.5,0.3s-0.3,0.1-0.5,0.1c-0.1,0-0.2,0-0.3,0
			c-0.1,0-0.2,0-0.3,0c-0.1,0-0.2,0-0.3,0.1c0,0.1-0.1,0.2-0.1,0.3s-0.1,0.2-0.2,0.3s-0.2,0.1-0.4,0.1c-0.1,0-0.3,0-0.4,0
			s-0.3,0-0.4,0c-0.3,0-0.6,0.1-0.9,0.2c-0.3,0.1-0.6,0.2-0.9,0.2s-0.7,0-1.2-0.1s-1.1-0.2-1.6-0.4s-1-0.4-1.4-0.7s-0.6-0.6-0.6-0.9
			c0-0.3,0.2-0.5,0.5-0.8s0.6-0.6,1-0.9c0.4-0.3,0.7-0.7,1-1.1s0.5-0.9,0.5-1.5c0-0.3-0.1-0.6-0.2-1c-0.1-0.3-0.3-0.6-0.5-0.9
			s-0.4-0.5-0.7-0.8c-0.3-0.2-0.5-0.5-0.7-0.7c-0.1,0-0.2,0-0.4,0c-0.4,0-0.8,0-1.3,0.1c-0.4,0.1-0.8,0.1-1.3,0.1
			c-0.2,0-0.4,0-0.7-0.1c-0.2-0.1-0.4-0.2-0.5-0.5c-0.4,0.2-0.8,0.4-1.2,0.6c-0.4,0.2-0.8,0.3-1.2,0.5c-0.3,0.1-0.5,0.2-0.6,0.2
			s-0.2,0.1-0.3,0.2c-0.1,0.1-0.1,0.2-0.1,0.3c0,0.1-0.1,0.3-0.2,0.5s-0.1,0.3-0.1,0.4s0,0.3,0,0.4c0,0.2,0,0.4-0.1,0.5
			s-0.2,0.2-0.2,0.3c-0.1,0.1-0.2,0.2-0.2,0.3c-0.1,0.1-0.1,0.2-0.1,0.4c0,0.1,0,0.3,0.1,0.4v0.1c0,0.2,0.1,0.4,0.2,0.5
			s0.3,0.2,0.5,0.3c0.2,0.1,0.4,0.1,0.6,0.2s0.4,0.1,0.5,0.2c0.2,0.1,0.3,0.2,0.5,0.5c0.1,0.2,0.3,0.4,0.4,0.7
			c0.1,0.2,0.2,0.5,0.3,0.7c0.1,0.2,0.1,0.4,0.1,0.6v0.1h-0.3c-0.6,0-1.2,0-1.9,0.1c-0.6,0.1-1.2,0.1-1.8,0.2
			c-0.6,0.1-1.2,0.1-1.8,0.2C98.2,35,97.6,35,96.9,35c-0.2,0-0.5,0-0.9,0s-0.8-0.1-1.2-0.1c-0.4-0.1-0.8-0.2-1.1-0.4
			c-0.3-0.2-0.5-0.4-0.5-0.7s0.1-0.6,0.2-0.8s0.3-0.4,0.6-0.5c0.2-0.1,0.5-0.3,0.8-0.4c0.3-0.1,0.6-0.2,0.9-0.3
			c0.3-0.1,0.6-0.2,0.9-0.3c0.3-0.1,0.5-0.2,0.7-0.4c0.2-0.2,0.3-0.4,0.5-0.8c0.1-0.4,0.2-0.7,0.3-1.1c0.1-0.4,0.1-0.8,0.2-1.2
			c0.1-0.4,0.1-0.7,0.2-0.9c0-0.1,0-0.2,0-0.3s0-0.2,0-0.4c0-0.1,0-0.2,0-0.4c0-0.1,0-0.2,0.1-0.2c0.2-0.3,0.3-0.4,0.4-0.5
			s0.1-0.1,0.2-0.1c0,0,0.1-0.1,0.1-0.2s0-0.4,0-0.8c0-0.2,0-0.3,0.1-0.4s0.2-0.2,0.2-0.3c0.1-0.1,0.2-0.2,0.2-0.2s0.1-0.2,0.1-0.3
			c0-0.2-0.1-0.4-0.2-0.6s-0.2-0.4-0.2-0.6c0-0.1,0-0.2,0.1-0.3c0.1-0.1,0.1-0.2,0.2-0.3c0.1-0.1,0.2-0.2,0.2-0.2
			c0.1-0.1,0.1-0.2,0.1-0.3c0-0.2,0-0.3-0.1-0.5s-0.1-0.3-0.1-0.5c0-0.1,0-0.2,0.1-0.3c0.1-0.1,0.2-0.1,0.3-0.1
			c0.1,0,0.2-0.1,0.3-0.1c0.1,0,0.1-0.1,0.1-0.1c0-0.1-0.1-0.1-0.3-0.1c-0.2,0-0.3,0.1-0.3,0.3c-0.1-0.1-0.2-0.2-0.3-0.3
			c-0.1-0.1-0.1-0.2-0.1-0.3c0-0.2,0-0.3,0.1-0.4s0.2-0.3,0.3-0.5c0.1-0.2,0.2-0.4,0.3-0.6c0.1-0.2,0.1-0.5,0.1-0.8s0-0.6-0.1-0.9
			s-0.1-0.6-0.1-0.9c0-0.2,0-0.3,0.1-0.5s0.2-0.3,0.3-0.5c0.1-0.1,0.2-0.3,0.3-0.4c0.1-0.1,0.2-0.3,0.2-0.5c0.1-0.3,0.1-0.6,0.2-0.9
			c0-0.3,0-0.7,0-1s0-0.7,0.1-1c0-0.3,0.1-0.6,0.3-0.9c0.1-0.2,0.2-0.5,0.3-0.6c0.1-0.2,0.1-0.3,0.2-0.5c0.1-0.1,0.1-0.3,0.2-0.5
			c0-0.2,0.1-0.4,0.1-0.7c0.1-0.5,0.2-0.9,0.4-1.3c0.2-0.4,0.3-0.9,0.3-1.3c0-0.3,0.1-0.6,0.1-0.9c0-0.2,0-0.5,0.1-0.6
			s0.2-0.4,0.4-0.5c0.2-0.1,0.5-0.3,0.8-0.4c0.4-0.1,0.8-0.2,1.2-0.3c0.4-0.1,0.8-0.1,1.2-0.1c0.5,0,1,0,1.5,0.1
			c0,0.3,0.1,0.5,0.3,0.7c0.2,0.2,0.3,0.4,0.5,0.6c0.2,0.2,0.4,0.4,0.5,0.6s0.3,0.4,0.3,0.7c0.1,0.4,0.1,0.7,0.2,1
			c0,0.3,0.2,0.6,0.4,0.9c0.1,0.2,0.2,0.4,0.2,0.6c0,0.4,0,0.7-0.1,1s-0.1,0.7-0.1,1c0,0.2,0.1,0.5,0.2,1s0.3,1,0.4,1.5
			c0.2,0.5,0.3,1.1,0.5,1.6s0.3,0.9,0.4,1.2c0.1,0.6,0.2,1.2,0.2,1.8s0.1,1.2,0.3,1.8c0.2,0.6,0.4,1.2,0.5,1.9
			c0.1,0.6,0.2,1.3,0.3,1.9c0,0.6,0.1,1.2,0.2,1.8c0.1,0.6,0.3,1.1,0.4,1.7s0.3,1.1,0.4,1.7s0.2,1.2,0.2,1.8c0,0.2,0,0.5-0.1,0.7
			c0,0.2-0.1,0.5-0.3,0.7c0.3,0.4,0.7,0.8,1.1,1.3s0.8,0.8,1.2,1.1c0.2,0.1,0.4,0.2,0.7,0.2s0.7,0.1,1,0.2c0.3,0.1,0.6,0.2,0.9,0.3
			s0.4,0.3,0.4,0.6C119.5,33.4,119.5,33.5,119.4,33.7z M109.7,20.6c0-0.1-0.1-0.3-0.2-0.5s-0.2-0.5-0.4-0.8
			c-0.1-0.3-0.3-0.6-0.4-0.9s-0.2-0.7-0.2-1c0-0.4-0.1-0.8-0.2-1.3c-0.1-0.4-0.2-0.8-0.3-1.3c0-0.3-0.1-0.7-0.1-1.1
			c0-0.4-0.1-0.8-0.2-1.2s-0.3-0.7-0.6-0.9c-0.3-0.2-0.6-0.4-1.1-0.4c0,0.1-0.1,0.2-0.2,0.3s-0.2,0.1-0.3,0.1
			c-0.1,0-0.2,0.1-0.3,0.1c-0.1,0-0.2,0.1-0.3,0.2c0,0,0,0.1,0,0.2c0,0.3-0.1,0.5-0.2,0.8c-0.1,0.2-0.2,0.5-0.3,0.7
			c-0.1,0.3-0.2,0.5-0.2,0.8s-0.1,0.6-0.1,0.9c0,0.2,0,0.5,0,0.7s0,0.5,0,0.7c0,0.4,0,0.7-0.1,0.9s-0.1,0.5-0.2,0.7
			s-0.1,0.4-0.2,0.6s-0.1,0.4-0.1,0.6c0,0.5,0,0.9,0,1.2c0,0.3,0.1,0.6,0.2,0.9c0.1,0.2,0.3,0.4,0.5,0.5s0.5,0.2,0.8,0.2
			c0.2,0,0.6,0,1.1-0.1s1-0.2,1.4-0.3c0.5-0.1,0.9-0.3,1.2-0.6C109.6,21.2,109.7,20.9,109.7,20.6z"/>
		<path class="st0" d="M142.9,26.6c0,0.5-0.1,1-0.2,1.4c-0.1,0.4-0.2,0.9-0.4,1.3c-0.1,0.4-0.3,0.9-0.4,1.3
			c-0.1,0.4-0.3,0.9-0.3,1.4c-0.1,0.8-0.4,1.4-0.8,1.9s-0.9,0.9-1.5,1.2s-1.3,0.5-2,0.7c-0.7,0.1-1.5,0.3-2.2,0.3
			c-0.8,0.1-1.5,0.1-2.3,0.2c-0.7,0-1.4,0.1-2,0.2c-0.2-0.2-0.4-0.4-0.6-0.6c-0.2-0.2-0.3-0.4-0.4-0.6c-0.1-0.2-0.3-0.3-0.5-0.4
			s-0.4-0.2-0.7-0.2c-0.1,0-0.2-0.1-0.2-0.4c-0.1-0.3-0.1-0.5-0.2-0.9c0-0.3-0.1-0.6-0.2-0.9c-0.1-0.3-0.1-0.4-0.2-0.4
			c-0.4,0-0.6-0.1-0.9-0.2c-0.2-0.2-0.4-0.4-0.5-0.6s-0.2-0.5-0.2-0.8s-0.1-0.6-0.1-0.9c0-0.2,0-0.4-0.1-0.6s-0.2-0.4-0.3-0.5
			c-0.1-0.2-0.2-0.4-0.3-0.5c-0.1-0.2-0.1-0.4-0.1-0.6s0-0.5,0-0.9s0-0.7,0.1-1.1c0-0.4,0-0.7,0.1-1.1c0-0.4,0-0.7,0-0.9
			c0-0.3,0-0.5,0.1-0.7s0.2-0.4,0.2-0.5s0.2-0.3,0.2-0.4c0.1-0.1,0.1-0.2,0.1-0.4c0-0.2,0-0.3-0.1-0.5c-0.1-0.1-0.1-0.2-0.1-0.4
			c0-0.2,0.1-0.3,0.2-0.5s0.2-0.3,0.2-0.5c0.2-0.7,0.3-1.4,0.3-2c0-0.1,0-0.3,0-0.4s0-0.3,0-0.4c-0.4-0.3-0.8-0.5-1.2-0.6
			c-0.4-0.1-0.9-0.1-1.3-0.2c-0.4,0-0.9-0.1-1.3-0.2c-0.4-0.1-0.7-0.2-1-0.5c-0.2-0.2-0.4-0.5-0.6-0.7c-0.2-0.3-0.4-0.5-0.7-0.5
			c-0.2-0.1-0.4-0.2-0.5-0.3s-0.2-0.3-0.2-0.6c0-0.4,0.1-0.7,0.3-0.9c0.2-0.2,0.5-0.4,0.8-0.5s0.6-0.2,1-0.3
			c0.3-0.1,0.6-0.2,0.9-0.4c0.2-0.2,0.5-0.3,0.8-0.3c0.1,0,0.3,0,0.4,0s0.3,0,0.4,0c0.4,0,0.7-0.1,1-0.2c0.3-0.1,0.5-0.3,0.6-0.5
			s0.2-0.5,0.3-0.8c0.1-0.3,0.1-0.6,0.1-1c0-0.5,0-1-0.1-1.5s-0.1-1-0.1-1.5c0-0.6,0.1-1.1,0.2-1.6c0.2-0.5,0.5-0.9,0.9-1.3
			c0.1-0.1,0.2-0.2,0.3-0.3c0.1-0.1,0.2-0.2,0.4-0.4c0.1-0.1,0.3-0.2,0.4-0.3c0.1-0.1,0.3-0.1,0.4-0.1c0.1,0,0.2,0,0.2,0.1
			c0.1,0,0.1,0.1,0.2,0.2c0.3,0.3,0.6,0.6,0.7,0.8c0.1,0.2,0.2,0.4,0.2,0.6c0,0.1,0,0.3,0,0.4c0,0.1,0,0.3,0,0.6
			c0,0.5,0.1,1,0.2,1.5c0.1,0.5,0.2,0.9,0.2,1.2s-0.1,0.6-0.2,0.9c-0.1,0.3-0.2,0.6-0.2,0.9c0,0.2,0.1,0.4,0.2,0.6
			c0.1,0.2,0.2,0.4,0.4,0.5c0.1,0.2,0.3,0.3,0.4,0.5c0.1,0.2,0.2,0.4,0.2,0.6c0.2,0.1,0.5,0.2,1.1,0.3c0.5,0.1,1.2,0.2,1.8,0.2
			c0.7,0.1,1.3,0.1,2,0.1s1.3,0,1.7,0s0.7,0,0.9,0.1s0.4,0.1,0.5,0.2s0.3,0.1,0.4,0.2c0.1,0.1,0.3,0.1,0.5,0.1s0.5,0.1,0.6,0.2
			c0.2,0.1,0.3,0.3,0.3,0.6c0,0.4-0.1,0.7-0.3,0.9s-0.4,0.4-0.7,0.5s-0.6,0.2-0.9,0.2c-0.3,0-0.6,0-0.9,0c-0.5,0-0.9,0-1.4,0
			s-0.9,0-1.4,0c-0.7,0-1.4,0.1-2,0.2s-1.1,0.4-1.6,0.7c-0.4,0.3-0.8,0.8-1,1.3c-0.2,0.5-0.4,1.2-0.4,2s0.1,1.6,0.2,2.3
			c0.1,0.8,0.2,1.5,0.2,2.3c0,0.7,0,1.3,0,1.8s0.1,0.8,0.3,1.1c0.2,0.5,0.4,1,0.5,1.5c0.1,0.6,0.3,1.1,0.5,1.6s0.5,0.9,0.8,1.3
			c0.4,0.4,0.9,0.5,1.6,0.5c0.2,0,0.5,0,0.9-0.1s0.8-0.2,1.2-0.3c0.4-0.1,0.7-0.3,1-0.5s0.4-0.5,0.4-0.8s-0.1-0.5-0.2-0.8
			c-0.2-0.3-0.2-0.6-0.2-0.9c0-0.2,0.1-0.4,0.2-0.6c0.1-0.2,0.2-0.3,0.4-0.4s0.3-0.2,0.5-0.4c0.2-0.1,0.4-0.2,0.5-0.3
			c0.3-0.4,0.6-0.7,1-0.9c0.4-0.2,0.8-0.4,1.3-0.4c0.3,0,0.6,0.1,0.9,0.2c0.3,0.1,0.6,0.2,0.8,0.4C142.9,26,142.9,26.3,142.9,26.6z"
			/>
		<path class="st0" d="M168,30c0,0.4-0.1,0.8-0.2,1.1c-0.1,0.3-0.3,0.6-0.5,0.8s-0.5,0.5-0.7,0.7c-0.3,0.2-0.5,0.4-0.8,0.7
			c-0.2,0.2-0.4,0.3-0.6,0.4c-0.2,0.1-0.3,0.2-0.5,0.2c-0.2,0.1-0.3,0.1-0.5,0.2c-0.2,0.1-0.4,0.1-0.6,0.3c-0.3,0.2-0.6,0.3-0.8,0.4
			c-0.2,0.1-0.4,0.3-0.6,0.4c-0.2,0.1-0.4,0.2-0.7,0.3c-0.2,0.1-0.6,0.1-0.9,0.2c-0.6,0.1-1.3,0.2-1.9,0.3c-0.6,0.1-1.3,0.2-1.9,0.2
			c-0.1,0-0.3,0-0.4-0.1c-0.1-0.1-0.3-0.1-0.5-0.2c-0.2-0.1-0.4-0.1-0.6-0.2c-0.2-0.1-0.5-0.1-0.8-0.1s-0.6,0-0.7-0.1
			c-0.2-0.1-0.4-0.2-0.5-0.3s-0.3-0.3-0.5-0.4c-0.2-0.1-0.4-0.3-0.6-0.4c-0.9-0.4-1.7-0.9-2.4-1.5s-1.2-1.3-1.7-2s-0.9-1.5-1.2-2.4
			s-0.6-1.8-0.8-2.7c-0.2-0.7-0.3-1.3-0.3-2c0-0.9,0.2-1.7,0.6-2.4c-0.2-0.4-0.2-0.9-0.2-1.3c0-0.3,0.1-0.7,0.3-1.3
			c0.2-0.6,0.4-1.2,0.7-1.8c0.3-0.6,0.6-1.1,0.9-1.6c0.3-0.5,0.6-0.8,0.9-0.9c0.2-0.1,0.4-0.1,0.5-0.2c0.1-0.1,0.1-0.2,0.1-0.5
			c0-0.2,0.1-0.3,0.2-0.5c0.1-0.1,0.3-0.2,0.5-0.3s0.4-0.1,0.6-0.2c0.2-0.1,0.4-0.1,0.5-0.2c0.6-0.3,1.1-0.5,1.6-0.7s1-0.4,1.6-0.5
			c0.5-0.1,1.1-0.2,1.6-0.3c0.6-0.1,1.2-0.1,1.8-0.1c0.3,0,0.7,0,1,0.1s0.6,0.2,0.9,0.4c0.3,0.1,0.6,0.3,0.9,0.5
			c0.3,0.2,0.6,0.4,0.9,0.5l0,0c0.2,0,0.5,0.1,0.7,0.2c0.2,0.1,0.4,0.2,0.7,0.2c0.2,0.3,0.5,0.5,0.9,0.8c0.4,0.2,0.7,0.5,1,0.8
			s0.6,0.5,0.9,0.9c0.2,0.3,0.4,0.7,0.4,1c0,0.1,0,0.1,0,0.2s0,0.1,0,0.2l0.1-0.1c0.1,0,0.1,0.1,0.2,0.2c0.1,0.1,0.1,0.2,0.2,0.4
			c0,0.1,0.1,0.3,0.1,0.4s0.1,0.2,0.1,0.3c0.1,0.2,0.3,0.4,0.5,0.5s0.4,0.3,0.5,0.5c-0.2,0.2-0.2,0.4-0.2,0.6c0,0.3,0.1,0.5,0.2,0.8
			c0.1,0.3,0.2,0.5,0.2,0.8s0,0.6,0,0.9s0,0.6,0,0.9c0,0.2-0.1,0.4-0.3,0.5s-0.4,0.2-0.6,0.3c-0.2,0.1-0.4,0.2-0.6,0.3
			s-0.3,0.2-0.3,0.4c0,0.1-0.1,0.2-0.2,0.2c-0.1,0-0.3,0-0.4,0c-0.7,0-1.4-0.1-2-0.3c-0.7-0.2-1.4-0.3-2-0.3c-0.7,0-1.5,0.1-2.2,0.2
			s-1.4,0.2-2.2,0.2c-0.5,0-1.1,0-1.6,0s-1.1,0-1.6,0c-0.1,0-0.4,0-0.8,0.1c-0.4,0.1-0.8,0.1-1.2,0.2s-0.8,0.2-1.2,0.3
			c-0.4,0.1-0.7,0.2-0.8,0.3c0,0.1,0,0.2,0,0.3c0,0.7,0.2,1.5,0.6,2.3c0.4,0.8,1,1.5,1.7,2.1s1.5,1.2,2.4,1.6s1.8,0.6,2.6,0.6
			c0.5,0,1,0,1.5,0.1c0.5,0,1,0.2,1.5,0.3c0.4-0.2,0.8-0.4,1.2-0.7s0.7-0.5,1-0.8s0.6-0.6,1-0.9c0.3-0.3,0.6-0.6,1-0.9
			c0.1-0.1,0.2-0.1,0.5-0.2c0.2-0.1,0.5-0.1,0.8-0.1s0.5-0.1,0.8-0.1s0.4,0,0.5,0c0.4,0,0.7,0.1,1,0.2C167.9,29.3,168,29.6,168,30z
			 M164.5,20.5c0-0.2,0-0.5-0.1-0.7s-0.1-0.4-0.2-0.7c-0.1-0.4-0.1-0.9-0.1-1.3s-0.1-0.8-0.2-1.3l0,0c0,0.1,0,0.2-0.1,0.3
			c-0.1,0.1-0.1,0.1-0.3,0.1s-0.4,0-0.5-0.1c-0.2-0.1-0.3-0.2-0.4-0.4c-0.6-0.3-1.1-0.5-1.6-0.7s-1-0.4-1.4-0.6
			c-0.5-0.2-1-0.3-1.5-0.4c-0.5-0.1-1.2-0.2-1.9-0.2c-0.1,0-0.1,0-0.2,0c-0.1,0-0.1,0-0.2,0.1l0.1,0.3h-0.2c-0.4,0.1-0.8,0.2-1,0.2
			c-0.3,0.1-0.5,0.2-0.7,0.3s-0.4,0.3-0.6,0.5c-0.2,0.2-0.5,0.4-0.8,0.7c-0.2,0.1-0.3,0.2-0.5,0.3c-0.2,0.1-0.4,0.1-0.5,0.2
			c-0.2,0.1-0.4,0.1-0.5,0.2c-0.2,0.1-0.3,0.2-0.4,0.3c-0.1,0.4-0.3,0.8-0.5,1.1c-0.2,0.4-0.3,0.8-0.3,1.2c0,0.2,0.1,0.4,0.3,0.6
			s0.4,0.3,0.7,0.5c0.3,0.1,0.6,0.2,1,0.3s0.7,0.2,1.1,0.2c0.4,0,0.7,0.1,1,0.1s0.5,0,0.7,0c0.6,0,1.2-0.1,1.8-0.2s1.2-0.2,1.8-0.2
			s1.2,0,1.8,0.1s1.2,0.1,1.8,0.1c0.2,0,0.4,0,0.7,0s0.6-0.1,0.9-0.1c0.3-0.1,0.6-0.2,0.8-0.3C164.4,20.9,164.5,20.7,164.5,20.5z"/>
		<path class="st0" d="M195.8,33.6c0,0.5-0.2,1-0.5,1.3c-0.4,0.3-0.8,0.6-1.3,0.7s-1,0.3-1.6,0.3s-1,0.1-1.4,0.1
			c-0.5,0-0.9,0-1.3-0.1c-0.3-0.1-0.6-0.2-0.9-0.3c-0.2-0.1-0.5-0.2-0.7-0.3s-0.4-0.1-0.6-0.1c-0.3,0-0.5,0-0.8,0.1
			s-0.5,0.1-0.8,0.1c-0.2,0-0.3,0-0.5-0.1c-0.1-0.1-0.2-0.1-0.3-0.2c-0.1-0.1-0.2-0.2-0.2-0.2c-0.1-0.1-0.2-0.1-0.2-0.1
			c-0.1,0-0.2,0-0.3,0.1s-0.1,0.2-0.2,0.3c-0.1,0.1-0.2,0.2-0.3,0.3s-0.4,0.1-0.6,0.1c-0.3,0-0.6,0-1-0.1c-0.3-0.1-0.6-0.1-1-0.1
			s-0.7,0.1-1,0.2s-0.6,0.2-0.9,0.2c-0.1,0-0.2,0-0.3-0.1s-0.1-0.1-0.2-0.1c-0.3,0-0.5,0.1-0.8,0.2c-0.3,0.1-0.6,0.2-0.9,0.2
			c-0.2,0-0.3,0-0.5-0.1c-0.1,0-0.3-0.1-0.5-0.1c-0.3,0-0.5,0.1-0.8,0.2c-0.3,0.1-0.6,0.2-1,0.2c-0.1,0-0.4,0-0.9-0.1
			c-0.5,0-1-0.1-1.5-0.2c-0.5-0.1-0.9-0.2-1.3-0.3c-0.4-0.1-0.6-0.2-0.6-0.4c0-0.4,0.1-0.8,0.2-1.2c0.1-0.4,0.2-0.8,0.2-1.2l0,0
			c-0.2,0-0.3-0.1-0.4-0.3c0-0.1,0.1-0.1,0.2-0.2c0.1,0,0.1-0.1,0.2-0.1c0.1,0,0.1-0.1,0.2-0.1s0.1-0.1,0.1-0.2v-0.1
			c0.6,0.1,1.2,0.1,1.8,0.1s1.2,0,1.9,0c0.6,0,1.3,0,2-0.1c0.7,0,1.4-0.2,2.1-0.3c0.6-0.2,1.2-0.5,1.6-0.9c0.4-0.4,0.6-0.9,0.6-1.6
			v0v-0.4c-0.1-1.7-0.2-3.4-0.2-5.1c-0.1-1.7-0.1-3.3-0.1-5.1c0-0.5,0-0.9-0.1-1.3s-0.1-0.9-0.1-1.3c0-0.5,0.1-1.1,0.3-1.6
			s0.5-1,0.9-1.4c0-0.1-0.1-0.2-0.1-0.2c-0.1,0-0.1-0.1-0.2-0.1c-0.1,0-0.2,0-0.3,0s-0.2,0-0.2-0.1c-0.1,0-0.2-0.2-0.2-0.3
			c0-0.2-0.1-0.4-0.1-0.6c0-0.2,0-0.4-0.1-0.6c0-0.2-0.1-0.3-0.2-0.5c0-0.5,0.1-0.9,0.2-1.3c0.1-0.4,0.2-0.9,0.2-1.3
			c0-0.3,0-0.6-0.1-0.8c-0.1-0.2-0.2-0.3-0.3-0.5c-0.1-0.1-0.2-0.2-0.3-0.3c-0.1-0.1-0.1-0.2-0.1-0.4c0-0.1,0-0.2,0.1-0.4h-0.2
			c-0.2,0-0.3,0-0.4,0.1c-0.1,0.1-0.2,0.2-0.2,0.3c-0.1,0.1-0.1,0.2-0.2,0.3c-0.1,0.1-0.2,0.1-0.3,0.1s-0.2,0-0.4-0.1
			c-0.3,0.1-0.5,0.1-0.7,0.1c-0.5,0-1.1-0.1-1.6-0.2s-1.1-0.2-1.6-0.2c-0.3,0-0.6,0-0.9,0c-0.3,0-0.6,0-0.8,0c-0.4,0-0.8,0-1.2-0.1
			s-0.8-0.3-1.1-0.6V4.9c0-0.8,0.3-1.5,0.8-1.9c0.6-0.4,1.2-0.6,2-0.6c0.5,0,1.1,0.1,1.6,0.2c0.5,0.1,1.1,0.2,1.6,0.2
			c0.3,0,0.6,0,0.9-0.1c0.3-0.1,0.7-0.1,1-0.2c0.3-0.1,0.7-0.1,1-0.2c0.4-0.1,0.7-0.1,1-0.1c0.5,0,1,0.1,1.5,0.3s0.9,0.4,1.4,0.6
			v0.2c0,0.1,0,0.3,0.1,0.4c0.1,0.1,0.2,0.2,0.2,0.4c0.1,0.1,0.2,0.2,0.2,0.4c0.1,0.1,0.1,0.2,0.1,0.4c0,0.1,0,0.3-0.1,0.4
			c0,0.1-0.1,0.3-0.1,0.4c0,0.3,0.1,0.7,0.2,1c0.1,0.3,0.2,0.6,0.2,1c0,0.4,0,0.7-0.1,1.1c-0.1,0.4-0.1,0.7-0.1,1.1
			c0,0.5,0.1,0.9,0.2,1.4c0.1,0.5,0.2,0.9,0.2,1.4c0,0.4-0.1,0.7-0.2,1.1c-0.1,0.4-0.2,0.7-0.2,1.1c0,0.3,0,0.5,0.1,0.8
			s0.2,0.5,0.2,0.8c0.1,0.2,0.2,0.5,0.2,0.8s0.1,0.5,0.1,0.8v0.5c0,0.2,0,0.5-0.1,0.7c0,0.2-0.1,0.4-0.3,0.6c0.1,0.3,0.2,0.6,0.2,1
			c0.1,0.3,0.1,0.7,0.1,1c0,0.2,0,0.3,0,0.5s-0.1,0.4-0.1,0.5c-0.1,0.2-0.1,0.3-0.2,0.5c-0.1,0.1-0.2,0.3-0.3,0.4
			c0.2,0.6,0.3,1.2,0.4,1.8c0.1,0.6,0.1,1.2,0.1,1.8c0,0.2,0,0.4,0.1,0.7c0,0.3,0.1,0.6,0.1,0.9s0.1,0.6,0.1,0.8
			c0,0.2,0.1,0.4,0.1,0.5c0,0.3,0,0.5-0.1,0.8c-0.1,0.2-0.1,0.5-0.1,0.8c0,0.2,0,0.4,0.1,0.6c0.1,0.2,0.3,0.3,0.5,0.3s0.3,0,0.5-0.1
			c0.1-0.1,0.3-0.2,0.4-0.3c0.2-0.1,0.3-0.2,0.5-0.3c0.2-0.1,0.5-0.1,0.9-0.1s0.8,0.1,1.1,0.2c0.4,0.1,0.7,0.2,1.1,0.2
			c0.3,0,0.6,0,0.9-0.1c0.3-0.1,0.6-0.1,0.9-0.2c0.3-0.1,0.6-0.1,0.9-0.2c0.3-0.1,0.6-0.1,0.9-0.1c0.6,0,1.2,0.2,1.6,0.5
			C195.6,32.4,195.8,32.9,195.8,33.6z M182.4,4.5c-0.1-0.1-0.1-0.1-0.2-0.2c-0.1-0.1-0.2-0.1-0.3-0.1s-0.1,0-0.2,0.1
			s-0.1,0.1-0.1,0.2l0.1,0.3c0.1,0,0.1,0,0.1,0c0.1,0,0.2,0,0.3-0.1C182.2,4.7,182.3,4.6,182.4,4.5z M183.8,11c0-0.1,0-0.3-0.1-0.4
			c-0.1-0.1-0.2-0.2-0.3-0.2c0,0-0.1,0-0.2,0c-0.1,0-0.1,0-0.1,0v1c0.1,0.1,0.2,0.1,0.3,0.1c0.2,0,0.3-0.1,0.3-0.2
			C183.7,11.3,183.8,11.2,183.8,11z"/>
		<path class="st0" d="M223.1,34c0,0.3-0.1,0.5-0.2,0.7c-0.1,0.2-0.2,0.4-0.4,0.6c-0.2,0.2-0.4,0.3-0.6,0.4
			c-0.2,0.1-0.5,0.2-0.8,0.2c-0.1,0-0.2,0-0.2,0s-0.1-0.1-0.2-0.2c-0.2-0.2-0.5-0.4-0.8-0.4s-0.6-0.1-1-0.1c-0.3,0-0.7-0.1-1-0.3
			c-0.3-0.1-0.5-0.4-0.7-0.8c-0.1-0.3-0.3-0.4-0.4-0.5c-0.1-0.1-0.4-0.1-0.7-0.1c-0.7,0-1.3,0.1-2,0.3c-0.6,0.2-1.2,0.5-1.8,0.7
			c-0.6,0.3-1.2,0.5-1.9,0.7c-0.6,0.2-1.3,0.3-2,0.3c-0.4,0-0.7,0-1.1-0.1c-0.4-0.1-0.7-0.2-1.1-0.3c-0.1,0.1-0.2,0.1-0.3,0.2
			c-0.1,0-0.2,0-0.3,0s-0.2,0-0.3,0s-0.2,0-0.3,0c0,0-0.1,0-0.3,0.1s-0.2,0.1-0.3,0.1l0.1,0.2c-0.1,0.1-0.3,0.3-0.6,0.4
			c-0.3,0.1-0.7,0.2-1.1,0.3c-0.4,0.1-0.8,0.2-1.1,0.2c-0.4,0.1-0.6,0.1-0.8,0.1c-0.5,0-0.9-0.1-1.2-0.2c-0.3-0.2-0.6-0.4-0.9-0.9
			c-0.1-0.2-0.2-0.3-0.4-0.5s-0.3-0.3-0.5-0.5s-0.3-0.3-0.4-0.5c-0.1-0.2-0.2-0.4-0.2-0.6c0-0.2,0.1-0.4,0.4-0.6
			c0.2-0.2,0.5-0.3,0.9-0.4c0.3-0.1,0.7-0.2,1-0.2s0.6-0.1,0.8-0.1c0.4,0,0.7,0.1,1.1,0.2c0.4,0.1,0.7,0.2,1.1,0.2
			c0.3,0,0.7,0,1-0.1s0.6-0.1,1-0.1c0.3,0,0.6,0,0.9,0.1c0.3,0,0.6,0.1,0.9,0.1c0.4,0,0.7-0.1,1.1-0.2c0.4-0.1,0.7-0.3,1-0.5
			c0.1-0.8,0.2-1.5,0.3-2.3s0.1-1.5,0.1-2.3s-0.1-1.5-0.2-2.3c-0.1-0.8-0.2-1.5-0.2-2.3c0-0.1,0-0.1,0-0.1h0.1h0.1c0,0,0-0.1,0-0.2
			c0-0.3,0-0.6-0.1-1c-0.1-0.3-0.1-0.6-0.1-1s0.1-0.8,0.2-1.2c0.1-0.4,0.2-0.8,0.2-1.2c0-0.3-0.1-0.6-0.2-0.8s-0.3-0.5-0.5-0.7
			s-0.4-0.4-0.7-0.5s-0.5-0.2-0.8-0.2s-0.7,0-1,0.1c-0.3,0.1-0.7,0.2-1,0.3s-0.7,0.2-1,0.3c-0.4,0.1-0.7,0.1-1.1,0.1
			c-0.5,0-0.9,0-1.3-0.1c-0.4-0.1-0.9-0.1-1.3-0.2c-0.2,0-0.5-0.1-0.7-0.1c-0.3,0-0.5-0.1-0.8-0.2c-0.2-0.1-0.5-0.2-0.6-0.4
			c-0.2-0.2-0.3-0.4-0.3-0.7c0-0.5,0.1-1,0.3-1.3s0.4-0.5,0.7-0.6s0.6-0.2,1-0.3c0.4,0,0.7-0.1,1-0.1c0.6,0,1.2-0.1,1.8-0.1
			s1.2-0.1,1.8-0.1c0.7,0,1.5,0,2.2,0.1s1.4,0.1,2.2,0.1c0.5,0,1,0.1,1.5,0.2c0.5,0.2,0.9,0.4,1.2,0.7c0.4,0.3,0.6,0.7,0.8,1.2
			s0.3,1,0.3,1.7c0,0.4-0.1,0.8-0.3,1.2s-0.4,0.8-0.7,1.1c0.1,0.2,0.2,0.3,0.3,0.4s0.2,0.1,0.3,0.2s0.2,0.1,0.2,0.2
			c0.1,0.1,0.1,0.2,0.1,0.5c0,0.1,0,0.3,0.1,0.4s0.1,0.3,0.3,0.3c0,0.8,0,1.7,0,2.5s0,1.6,0,2.5c0,0.7,0,1.4,0,2.1s0.1,1.4,0.2,2.1
			c0.1,0.4,0.2,0.8,0.4,1s0.5,0.4,1,0.4c0.7,0,1.4-0.1,2.1-0.2c0.7-0.1,1.4-0.2,2.1-0.2c0.4,0,0.8,0.1,1.2,0.3
			c0.4,0.2,0.7,0.4,1.1,0.7c0.3,0.2,0.7,0.5,1,0.7s0.6,0.3,0.9,0.3c0.1,0,0.2,0,0.3,0.1s0.1,0.2,0.2,0.3s0.1,0.2,0.1,0.4
			C223.1,33.8,223.1,33.9,223.1,34z M211.8,5.5c0,0.5-0.1,0.9-0.2,1.4c-0.1,0.5-0.4,0.9-0.6,1.3c-0.3,0.4-0.6,0.7-1,1
			s-0.8,0.4-1.3,0.4c-0.3,0-0.7-0.1-1.2-0.2c-0.5-0.1-0.9-0.2-1.4-0.4c-0.4-0.2-0.8-0.4-1.1-0.8c-0.3-0.3-0.5-0.7-0.5-1.1
			s0-0.8,0.1-1.2s0.1-0.8,0.2-1.2c0.2-0.1,0.3-0.2,0.5-0.4c0.2-0.2,0.3-0.4,0.5-0.6s0.3-0.4,0.4-0.6c0.1-0.2,0.3-0.3,0.5-0.3h-0.1
			c0.2-0.1,0.4-0.2,0.7-0.2c0.2-0.1,0.5-0.1,0.7-0.1c0.3,0,0.7,0.1,1.2,0.2s0.9,0.4,1.3,0.6c0.4,0.3,0.8,0.6,1.1,0.9
			C211.7,4.8,211.8,5.1,211.8,5.5z"/>
		<path class="st0" d="M247.2,30c0,0.4-0.1,0.8-0.2,1.1c-0.1,0.3-0.3,0.6-0.5,0.8s-0.5,0.5-0.7,0.7c-0.3,0.2-0.5,0.4-0.8,0.7
			c-0.2,0.2-0.4,0.3-0.6,0.4c-0.2,0.1-0.3,0.2-0.5,0.2c-0.2,0.1-0.3,0.1-0.5,0.2c-0.2,0.1-0.4,0.1-0.6,0.3c-0.3,0.2-0.6,0.3-0.8,0.4
			c-0.2,0.1-0.4,0.3-0.6,0.4c-0.2,0.1-0.4,0.2-0.7,0.3c-0.2,0.1-0.6,0.1-0.9,0.2c-0.6,0.1-1.3,0.2-1.9,0.3c-0.6,0.1-1.3,0.2-1.9,0.2
			c-0.1,0-0.3,0-0.4-0.1c-0.1-0.1-0.3-0.1-0.5-0.2c-0.2-0.1-0.4-0.1-0.6-0.2c-0.2-0.1-0.5-0.1-0.8-0.1s-0.6,0-0.7-0.1
			c-0.2-0.1-0.4-0.2-0.5-0.3s-0.3-0.3-0.5-0.4c-0.2-0.1-0.4-0.3-0.6-0.4c-0.9-0.4-1.7-0.9-2.4-1.5s-1.2-1.3-1.7-2s-0.9-1.5-1.2-2.4
			s-0.6-1.8-0.8-2.7c-0.2-0.7-0.3-1.3-0.3-2c0-0.9,0.2-1.7,0.6-2.4c-0.2-0.4-0.2-0.9-0.2-1.3c0-0.3,0.1-0.7,0.3-1.3s0.4-1.2,0.7-1.8
			c0.3-0.6,0.6-1.1,0.9-1.6c0.3-0.5,0.6-0.8,0.9-0.9c0.2-0.1,0.4-0.1,0.5-0.2c0.1-0.1,0.1-0.2,0.1-0.5c0-0.2,0.1-0.3,0.2-0.5
			c0.1-0.1,0.3-0.2,0.5-0.3s0.4-0.1,0.6-0.2c0.2-0.1,0.4-0.1,0.5-0.2c0.6-0.3,1.1-0.5,1.6-0.7s1-0.4,1.6-0.5
			c0.5-0.1,1.1-0.2,1.6-0.3c0.6-0.1,1.2-0.1,1.8-0.1c0.3,0,0.7,0,1,0.1s0.6,0.2,0.9,0.4c0.3,0.1,0.6,0.3,0.9,0.5
			c0.3,0.2,0.6,0.4,0.9,0.5l0,0c0.2,0,0.5,0.1,0.7,0.2c0.2,0.1,0.4,0.2,0.7,0.2c0.2,0.3,0.5,0.5,0.9,0.8c0.4,0.2,0.7,0.5,1,0.8
			s0.6,0.5,0.9,0.9c0.2,0.3,0.4,0.7,0.4,1c0,0.1,0,0.1,0,0.2s0,0.1,0,0.2l0.1-0.1c0.1,0,0.1,0.1,0.2,0.2c0.1,0.1,0.1,0.2,0.2,0.4
			c0,0.1,0.1,0.3,0.1,0.4s0.1,0.2,0.1,0.3c0.1,0.2,0.3,0.4,0.5,0.5s0.4,0.3,0.5,0.5c-0.2,0.2-0.2,0.4-0.2,0.6c0,0.3,0.1,0.5,0.2,0.8
			c0.1,0.3,0.2,0.5,0.2,0.8s0,0.6,0,0.9s0,0.6,0,0.9c0,0.2-0.1,0.4-0.3,0.5s-0.4,0.2-0.6,0.3c-0.2,0.1-0.4,0.2-0.6,0.3
			s-0.3,0.2-0.3,0.4c0,0.1-0.1,0.2-0.2,0.2c-0.1,0-0.3,0-0.4,0c-0.7,0-1.4-0.1-2-0.3c-0.7-0.2-1.4-0.3-2-0.3c-0.7,0-1.5,0.1-2.2,0.2
			s-1.4,0.2-2.2,0.2c-0.5,0-1.1,0-1.6,0s-1.1,0-1.6,0c-0.1,0-0.4,0-0.8,0.1c-0.4,0.1-0.8,0.1-1.2,0.2s-0.8,0.2-1.2,0.3
			c-0.4,0.1-0.7,0.2-0.8,0.3c0,0.1,0,0.2,0,0.3c0,0.7,0.2,1.5,0.6,2.3c0.4,0.8,1,1.5,1.7,2.1s1.5,1.2,2.4,1.6s1.8,0.6,2.6,0.6
			c0.5,0,1,0,1.5,0.1c0.5,0,1,0.2,1.5,0.3c0.4-0.2,0.8-0.4,1.2-0.7s0.7-0.5,1-0.8s0.6-0.6,1-0.9c0.3-0.3,0.6-0.6,1-0.9
			c0.1-0.1,0.2-0.1,0.5-0.2c0.2-0.1,0.5-0.1,0.8-0.1s0.5-0.1,0.8-0.1s0.4,0,0.5,0c0.4,0,0.7,0.1,1,0.2
			C247.1,29.3,247.2,29.6,247.2,30z M243.7,20.5c0-0.2,0-0.5-0.1-0.7s-0.1-0.4-0.2-0.7c-0.1-0.4-0.1-0.9-0.1-1.3s-0.1-0.8-0.2-1.3
			l0,0c0,0.1,0,0.2-0.1,0.3c-0.1,0.1-0.1,0.1-0.3,0.1s-0.4,0-0.5-0.1c-0.2-0.1-0.3-0.2-0.4-0.4c-0.6-0.3-1.1-0.5-1.6-0.7
			s-1-0.4-1.4-0.6c-0.5-0.2-1-0.3-1.5-0.4c-0.5-0.1-1.2-0.2-1.9-0.2c-0.1,0-0.1,0-0.2,0c-0.1,0-0.1,0-0.2,0.1l0.1,0.3h-0.2
			c-0.4,0.1-0.8,0.2-1,0.2c-0.3,0.1-0.5,0.2-0.7,0.3s-0.4,0.3-0.6,0.5c-0.2,0.2-0.5,0.4-0.8,0.7c-0.2,0.1-0.3,0.2-0.5,0.3
			c-0.2,0.1-0.4,0.1-0.5,0.2c-0.2,0.1-0.4,0.1-0.5,0.2c-0.2,0.1-0.3,0.2-0.4,0.3c-0.1,0.4-0.3,0.8-0.5,1.1c-0.2,0.4-0.3,0.8-0.3,1.2
			c0,0.2,0.1,0.4,0.3,0.6s0.4,0.3,0.7,0.5c0.3,0.1,0.6,0.2,1,0.3s0.7,0.2,1.1,0.2s0.7,0.1,1,0.1s0.5,0,0.7,0c0.6,0,1.2-0.1,1.8-0.2
			s1.2-0.2,1.8-0.2s1.2,0,1.8,0.1s1.2,0.1,1.8,0.1c0.2,0,0.4,0,0.7,0s0.6-0.1,0.9-0.1c0.3-0.1,0.6-0.2,0.8-0.3
			C243.6,20.9,243.7,20.7,243.7,20.5z"/>
		<path class="st0" d="M276.3,17.8c0,0.3-0.1,0.6-0.2,0.8c-0.1,0.2-0.3,0.4-0.4,0.6s-0.3,0.4-0.4,0.6s-0.2,0.4-0.3,0.7
			c-0.1-0.1-0.3-0.1-0.4-0.1s-0.3,0-0.5,0c-0.4,0-0.7,0-1.1,0.1s-0.7,0.1-1.1,0.1s-0.8-0.1-1-0.4s-0.5-0.6-0.7-0.9s-0.3-0.8-0.3-1.2
			c-0.1-0.4-0.1-0.8-0.1-1.2c0-0.4,0.1-0.9,0.2-1.3c-0.1,0-0.2-0.1-0.3-0.1c-0.2,0-0.3,0.1-0.4,0.2c-0.1,0.1-0.2,0.2-0.4,0.2
			c-0.1,0-0.3-0.1-0.4-0.2c-0.1-0.1-0.2-0.2-0.4-0.2c-0.2,0-0.5,0.1-0.9,0.2c-0.4,0.1-0.7,0.3-1,0.6c-0.3,0.3-0.6,0.5-0.9,0.8
			c-0.2,0.3-0.4,0.5-0.4,0.8c-0.3,0-0.6,0.1-0.9,0.3c-0.3,0.1-0.6,0.3-0.8,0.5c-0.2,0.1-0.4,0.3-0.5,0.6c-0.1,0.3-0.3,0.5-0.4,0.9
			c-0.1,0.3-0.2,0.6-0.4,0.9c-0.1,0.3-0.3,0.6-0.4,0.8c-0.3,0.3-0.5,0.7-0.7,1c-0.2,0.4-0.3,0.7-0.3,1.2s0.1,1.1,0.3,1.7
			c0.2,0.6,0.3,1.1,0.3,1.7c0,0.4,0,0.7-0.1,1.1s-0.1,0.7-0.1,1.1s0.1,0.8,0.2,1.1c0.2,0.3,0.4,0.5,0.6,0.6c0.3,0.1,0.6,0.2,0.9,0.3
			c0.3,0,0.7,0.1,1.1,0.1s0.8,0,1.1,0c0.4,0,0.7,0,1,0c0.1,0.1,0.2,0.2,0.2,0.4c0,0.1,0,0.2,0,0.3s-0.1,0.2-0.1,0.4
			c0,0.1-0.1,0.3-0.1,0.4c0,0.1,0,0.1,0,0.2c0.2,0,0.4-0.1,0.6-0.2c0.2-0.1,0.3-0.3,0.4-0.5c0.1,0,0.2,0.1,0.3,0.1
			c0.1,0.1,0.1,0.2,0.1,0.3s0,0.2-0.1,0.3c0,0.1-0.1,0.2-0.2,0.2c-0.1,0.1-0.1,0.2-0.2,0.2c0,0.1-0.1,0.2-0.1,0.3s0,0.1,0,0.2
			c0,0.1,0,0.1,0.1,0.2c-0.1,0.1-0.2,0.2-0.3,0.3c-0.1,0-0.3,0.1-0.4,0.1c-0.2,0-0.5,0-0.6-0.1c-0.2-0.1-0.3-0.2-0.4-0.3
			s-0.3-0.2-0.4-0.3s-0.2-0.1-0.4-0.1c-0.1,0-0.2,0-0.3,0c-0.1,0-0.2,0.1-0.4,0.1c-0.1,0-0.2,0.1-0.3,0.2c-0.1,0.1-0.1,0.1-0.1,0.2
			c0,0.1,0,0.2,0.1,0.3s0.1,0.2,0.1,0.3s0,0.2-0.1,0.3s-0.2,0.1-0.3,0.1c-0.1,0-0.2,0-0.3,0c-0.1,0-0.2,0-0.3,0
			c-0.6,0-1.2-0.1-1.8-0.2c-0.6-0.1-1.2-0.2-1.8-0.2c-0.3,0-0.6,0.1-0.8,0.2c-0.3,0.1-0.6,0.2-0.9,0.2c-0.2,0-0.3,0-0.4-0.1
			s-0.2-0.2-0.2-0.2c-0.1-0.1-0.1-0.2-0.2-0.2c-0.1-0.1-0.2-0.1-0.4-0.1c-0.3,0-0.6,0-0.9,0.1c-0.3,0.1-0.6,0.1-0.9,0.2
			c-0.3,0.1-0.6,0.1-0.9,0.2c-0.3,0.1-0.6,0.1-0.9,0.1c-0.2,0-0.3,0-0.6-0.1c-0.2,0-0.4-0.1-0.6-0.2c-0.2-0.1-0.4-0.2-0.5-0.4
			c-0.1-0.1-0.2-0.3-0.2-0.5c0-0.1,0.1-0.3,0.2-0.5c0.1-0.2,0.3-0.4,0.5-0.6c0.2-0.2,0.4-0.4,0.6-0.5c0.2-0.1,0.3-0.2,0.4-0.2
			c0.2,0,0.5,0,0.7,0s0.5,0,0.8,0c0.4,0,0.8-0.1,1.3-0.2c0.4-0.1,0.8-0.3,1.2-0.6c0.4-0.2,0.6-0.6,0.9-0.9s0.3-0.8,0.3-1.3
			c0-0.2,0-0.4,0-0.6s0-0.4,0-0.6c0-0.4,0-0.8,0.1-1.2c0.1-0.4,0.1-0.8,0.1-1.2c0-0.5-0.1-1.1-0.2-1.7s-0.2-1.1-0.2-1.7
			c0-0.5,0-1,0-1.5s0-1,0-1.5c0-0.2,0-0.6,0-1c0-0.5-0.1-0.9-0.2-1.4s-0.2-0.8-0.4-1.2c-0.2-0.3-0.4-0.5-0.7-0.5s-0.7,0-1,0.1
			s-0.7,0.1-1.1,0.1c-0.3,0-0.6,0-0.9-0.1c-0.4,0-0.7-0.1-1-0.2s-0.6-0.3-0.8-0.5s-0.4-0.5-0.4-0.9s0.1-0.7,0.2-0.9
			c0.1-0.2,0.3-0.4,0.4-0.5c0.2-0.1,0.4-0.2,0.6-0.3c0.2,0,0.5-0.1,0.8-0.1c0.2,0,0.5,0,0.8,0s0.5,0,0.8,0c0.5,0,1,0,1.5-0.1
			s1-0.1,1.5-0.1c0.3,0,0.7,0,1,0s0.7,0.1,1,0.2c0.3,0.1,0.5,0.3,0.7,0.5c0.1,0.3,0.3,0.5,0.4,0.8s0.3,0.5,0.4,0.7
			c0.2,0.2,0.4,0.3,0.7,0.3c0.2,0,0.3,0,0.4-0.1s0.3-0.2,0.4-0.3s0.2-0.2,0.4-0.3c0.1-0.1,0.3-0.2,0.4-0.2c0.3,0,0.7-0.2,0.9-0.3
			c0.3-0.2,0.6-0.3,0.9-0.5s0.6-0.3,0.9-0.5c0.3-0.1,0.6-0.2,0.9-0.2c0.2,0,0.5,0,0.8-0.1c0.3,0,0.6-0.1,0.9-0.2
			c0.3-0.1,0.6-0.2,0.9-0.3s0.5-0.3,0.6-0.4c0.4,0,0.9,0.1,1.5,0.3s1.1,0.4,1.6,0.7s1,0.6,1.4,1s0.6,0.8,0.7,1.3
			c0,0.3,0.1,0.6,0.3,0.8c0.1,0.3,0.3,0.5,0.4,0.8c0.1,0.3,0.3,0.5,0.4,0.8C276.3,17.2,276.3,17.5,276.3,17.8z"/>
		<path class="st0" d="M300,27.7c0,0.2,0,0.4-0.1,0.6s-0.2,0.4-0.2,0.6c-0.1,0.2-0.2,0.4-0.3,0.6c-0.1,0.2-0.1,0.4-0.2,0.6
			c-0.1,0.4-0.2,0.8-0.5,1.1c-0.2,0.3-0.5,0.7-0.8,0.9c-0.3,0.3-0.6,0.6-1,0.9c-0.3,0.3-0.6,0.5-0.9,0.8c-0.2,0.2-0.5,0.4-0.7,0.4
			s-0.3,0-0.4,0s-0.3,0-0.4,0c-0.2,0-0.4,0-0.5,0.1s-0.3,0.2-0.4,0.2c-0.1,0.1-0.3,0.2-0.4,0.2c-0.2,0.1-0.4,0.1-0.7,0.1
			c-0.2,0-0.4,0.1-0.6,0.2c-0.2,0.1-0.4,0.2-0.6,0.2c-0.3,0-0.6-0.1-0.9-0.2s-0.7-0.2-1.2-0.2c-0.3,0-0.5,0-0.8,0s-0.5,0-0.8,0
			c-0.2,0-0.5,0-0.7-0.1s-0.4-0.1-0.7-0.2c-0.2-0.1-0.4-0.2-0.6-0.2c-0.2-0.1-0.4-0.1-0.7-0.1c-0.5,0-0.9,0.1-1.2,0.4
			c-0.3,0.2-0.6,0.5-0.9,0.8s-0.5,0.5-0.8,0.8c-0.3,0.2-0.5,0.4-0.9,0.4c-0.3,0-0.5-0.1-0.6-0.2c-0.1-0.1-0.2-0.2-0.2-0.4
			c0-0.1,0-0.3-0.1-0.5c0-0.2-0.1-0.3-0.2-0.4c-0.2-0.2-0.4-0.5-0.5-0.7s-0.1-0.5-0.1-0.8c0-0.7,0.1-1.5,0.2-2.2s0.2-1.4,0.2-2.2
			c0-0.3,0-0.5-0.1-0.8c-0.1-0.2-0.1-0.5-0.2-0.7s-0.2-0.4-0.2-0.5c-0.1-0.1-0.1-0.2-0.1-0.3c0-0.1,0-0.3,0.1-0.4
			c0.1-0.2,0.2-0.3,0.3-0.4c0.1-0.1,0.2-0.2,0.3-0.3c0.1-0.1,0.2-0.1,0.3-0.1c0.2,0,0.3,0,0.4,0.1s0.2,0.2,0.4,0.2
			c0.1,0.1,0.2,0.2,0.4,0.2c0.1,0.1,0.3,0.1,0.4,0.1h0.1c0,0,0,0,0.1,0c0.2,0.4,0.4,0.7,0.5,1.2c0.1,0.4,0.3,0.8,0.4,1.2
			s0.3,0.8,0.5,1.1c0.2,0.4,0.5,0.7,0.8,1c0.1,0.1,0.2,0.2,0.3,0.3c0.1,0.1,0.3,0.2,0.4,0.3c0.1,0.1,0.3,0.2,0.4,0.2
			c0.1,0.1,0.3,0.1,0.4,0.1c0.2,0,0.3,0,0.5,0s0.3,0,0.5,0s0.4,0.1,0.4,0.2c0,0,0,0.1,0,0.2h0.3h0.2c0.6,0,1.2-0.1,1.8-0.2
			c0.6-0.1,1.2-0.2,1.8-0.2c0.3,0,0.6,0,0.9,0.1s0.5,0.2,0.8,0.3c0.3-0.1,0.5-0.3,0.7-0.5s0.4-0.4,0.6-0.6s0.4-0.4,0.7-0.6
			c0.2-0.2,0.6-0.3,1-0.3c0.1-0.1,0.1-0.2,0.1-0.3c0-0.1,0-0.2,0-0.4s0-0.2,0-0.3c0-0.1,0.1-0.2,0.2-0.3c0.2-0.1,0.3-0.3,0.4-0.4
			s0.1-0.3,0.1-0.5c0-0.4-0.1-0.8-0.4-1.2c-0.2-0.4-0.5-0.7-0.9-1s-0.8-0.6-1.3-0.8c-0.5-0.2-1-0.4-1.5-0.6s-1-0.3-1.4-0.4
			c-0.5-0.1-0.8-0.1-1.2-0.1c-0.4,0-0.8,0-1.2,0.1c-0.4,0.1-0.8,0.2-1.1,0.4c0-0.3-0.1-0.6-0.2-0.7c-0.2-0.1-0.3-0.2-0.6-0.2
			c-0.2,0-0.4-0.1-0.7-0.2c-0.2-0.1-0.4-0.3-0.5-0.6c-0.3,0.3-0.6,0.6-1,0.7c-0.4,0.2-0.8,0.2-1.2,0.2s-0.8-0.1-1.1-0.2
			c-0.3-0.2-0.7-0.4-0.9-0.6c-0.3-0.3-0.5-0.6-0.7-0.9s-0.3-0.7-0.3-1.1c0-0.3-0.1-0.5-0.2-0.7s-0.2-0.4-0.3-0.6
			c-0.1-0.2-0.2-0.4-0.3-0.6c-0.1-0.2-0.1-0.4-0.1-0.7c0-0.7,0-1.3,0.1-1.6s0.2-0.7,0.3-0.9c0.1-0.2,0.2-0.4,0.4-0.4
			c0.1-0.1,0.3-0.2,0.4-0.3s0.3-0.2,0.4-0.4s0.2-0.4,0.3-0.7c0-0.2,0.1-0.4,0.2-0.5s0.3-0.1,0.5-0.2c0.2,0,0.3-0.1,0.4-0.1
			c0.1-0.1,0.1-0.1,0.1-0.2c0-0.1,0.1-0.2,0.1-0.2c0-0.1,0.1-0.2,0.2-0.2c0.3-0.2,0.7-0.4,1-0.4c0.3-0.1,0.7-0.1,1-0.1
			c0.2,0,0.4,0,0.6,0s0.4,0,0.6,0c0.7,0,1.3,0,1.9-0.1s1.3-0.1,1.9-0.1c0.5,0,1,0.1,1.4,0.2c0.4,0.1,0.8,0.2,1.1,0.3
			c0.3,0.1,0.6,0.2,0.8,0.3c0.2,0.1,0.4,0.2,0.5,0.2c0.3,0,0.5-0.1,0.8-0.2c0.2-0.1,0.5-0.2,0.8-0.2c0.1,0.1,0.3,0.2,0.4,0.3
			c0.2,0.1,0.3,0.1,0.5,0.1c0.1,0,0.2,0,0.3-0.1c0.1-0.1,0.1-0.2,0.1-0.3c0.2,0.1,0.4,0.2,0.6,0.3c0.2,0.2,0.4,0.3,0.5,0.5
			c0.2,0.2,0.3,0.4,0.4,0.7c0.1,0.2,0.1,0.5,0.1,0.7c0,0.6,0,1.2-0.1,1.7c-0.1,0.6-0.1,1.1-0.1,1.7s0.1,1.1,0.2,1.7
			c-0.2,0.2-0.5,0.3-0.7,0.5c-0.3,0.1-0.5,0.3-0.6,0.5l0,0c-0.1-0.1-0.2-0.2-0.4-0.4c-0.2-0.1-0.3-0.3-0.5-0.4s-0.4-0.3-0.5-0.4
			c-0.2-0.1-0.3-0.2-0.5-0.2l0,0c-0.1,0-0.1-0.1-0.2-0.2s-0.1-0.1-0.1-0.2c0-0.2,0-0.3,0.1-0.4s0.1-0.3,0.1-0.4c0,0-0.1-0.2-0.2-0.3
			c-0.1-0.2-0.3-0.3-0.5-0.5s-0.4-0.3-0.5-0.5c-0.2-0.1-0.3-0.2-0.4-0.2c-0.2,0-0.3-0.1-0.5-0.2s-0.3-0.2-0.5-0.2
			c-0.2-0.1-0.3-0.1-0.5-0.2c-0.1-0.1-0.3-0.1-0.4-0.1c-0.2,0-0.4,0-0.6,0.1c-0.2,0.1-0.4,0.1-0.6,0.1l0,0l-1.1-0.1
			c-0.5-0.1-1-0.2-1.5-0.4s-1-0.3-1.5-0.3s-0.8,0.1-1,0.3s-0.4,0.5-0.5,0.7c-0.1,0.3-0.3,0.5-0.4,0.7s-0.4,0.3-0.7,0.3
			c-0.1,0-0.2,0-0.2,0c0.2,0.5,0.3,0.9,0.4,1.3c0.1,0.3,0.3,0.7,0.5,0.9c0.2,0.3,0.4,0.5,0.7,0.8c0.3,0.2,0.6,0.5,1.1,0.8
			c0,0,0.1,0.1,0.2,0.2s0.2,0.2,0.3,0.2c0.1,0.1,0.2,0.2,0.3,0.2c0.1,0.1,0.2,0.1,0.2,0.1c0.3,0,0.5-0.1,0.8-0.2
			c0.2-0.1,0.5-0.2,0.8-0.2c0.2,0,0.4,0,0.5,0.1c0.2,0.1,0.3,0.1,0.5,0.1s0.4,0,0.5-0.1c0.2-0.1,0.4-0.1,0.6-0.1c0.1,0,0.2,0,0.2,0
			c0.1,0,0.2,0,0.2,0c0.5,0.1,0.9,0.2,1.4,0.2s0.9,0,1.4,0c0.3,0,0.7,0.1,1,0.2c0.4,0.1,0.7,0.3,1,0.5s0.6,0.4,0.9,0.7
			c0.3,0.2,0.5,0.5,0.7,0.8c0.2,0.2,0.3,0.4,0.5,0.6s0.4,0.3,0.5,0.5c0.2,0.2,0.3,0.4,0.5,0.6c0.1,0.2,0.2,0.4,0.3,0.7
			c0.1,0.3,0.2,0.7,0.3,1S300,27.4,300,27.7z"/>
	</g>
	<g>
		<path class="st0" d="M122.6,104.3c0,0.4-0.1,0.7-0.2,1s-0.2,0.7-0.2,1s0.1,0.6,0.2,0.8c0.1,0.3,0.2,0.6,0.2,0.8
			c0,0.2,0,0.6-0.1,1.1s-0.2,1-0.3,1.6c-0.1,0.5-0.3,1.1-0.4,1.5c-0.1,0.5-0.3,0.8-0.4,1H120c-0.1,0.6-0.3,1.2-0.6,1.9
			c-1.1,0.5-2,0.9-2.8,1s-1.6,0.2-2.5,0.2c-0.4,0-0.8,0-1.3,0c-0.4,0-0.9,0-1.5,0c-1,0-1.8,0.1-2.5,0.2s-1.5,0.4-2.3,0.9
			c-0.3,0.1-0.5,0.2-0.8,0.2c-0.5,0-1.1-0.1-1.6-0.2s-1.1-0.2-1.6-0.4c-0.5-0.1-1-0.3-1.6-0.4c-0.5-0.1-1.1-0.2-1.6-0.2
			c-0.8,0-1.6-0.1-2.3-0.2c-0.8-0.2-1.6-0.2-2.3-0.2c-0.6,0-1.1,0.1-1.7,0.2c-0.5,0.1-1.1,0.2-1.7,0.3c-0.6,0.1-1.1,0.2-1.7,0.3
			c-0.5,0.1-1.1,0.2-1.7,0.2c-0.5,0-1-0.1-1.5-0.2s-1-0.2-1.5-0.2c-0.9,0-1.8,0.1-2.8,0.2c-0.9,0.2-1.8,0.2-2.8,0.2
			c-1.2,0-2.2-0.3-3-0.9s-1.2-1.5-1.2-2.8c0-0.5,0.1-1,0.3-1.4c0.7-1.2,1.4-2.1,2.1-2.6s1.4-0.9,2-1.2c0.7-0.2,1.3-0.4,1.8-0.5
			c0.6-0.1,1.1-0.3,1.5-0.6c0.4-0.3,0.8-0.8,1-1.5s0.4-1.8,0.4-3.2c0-1.7-0.1-3.4-0.4-5.1s-0.4-3.4-0.4-5.1c0-0.8,0.1-1.7,0.3-2.5
			c0.2-0.8,0.3-1.6,0.3-2.5c0-1.4-0.1-2.9-0.2-4.3s-0.2-2.8-0.2-4.2c0-1-0.1-1.9-0.4-2.9C82.9,75,82.8,74,82.8,73
			c0-0.6,0.1-1.1,0.2-1.7c0.1-0.5,0.2-1.1,0.2-1.6c0-0.8,0-1.7-0.1-2.5s-0.2-1.7-0.2-2.5c0-0.5-0.1-0.9-0.2-1.4
			c-0.1-0.4-0.3-0.8-0.5-1.2c-0.2-0.3-0.5-0.6-0.9-0.8S80.5,61,79.9,61c-0.5,0-1,0.1-1.5,0.3s-1,0.3-1.6,0.3c-0.3,0-0.6,0-0.9-0.1
			s-0.6-0.1-0.9-0.2c-0.1-0.2-0.3-0.4-0.4-0.7s-0.2-0.5-0.3-0.8c-0.1-0.2-0.3-0.5-0.4-0.7c-0.2-0.2-0.4-0.3-0.7-0.4
			c0.3-0.4,0.6-1,0.8-1.7c0.3-0.7,0.6-1.4,0.9-2s0.7-1.2,1.2-1.6c0.5-0.5,1-0.7,1.7-0.7c0.5,0,1.1,0.1,1.5,0.4
			c0.5,0.3,1,0.4,1.5,0.4c0.7,0,1.4-0.1,2-0.4c0.6-0.3,1.3-0.4,2-0.4c0.6,0,1.1,0.2,1.6,0.6c0.5-0.1,1-0.2,1.4-0.2
			c0.3,0,0.6,0,0.8,0.1c0.3,0.1,0.6,0.1,0.8,0.1c0.9,0,1.7-0.1,2.5-0.4c0.8-0.2,1.7-0.4,2.5-0.4c0.7,0,1.4,0.1,2,0.3
			s1.3,0.4,1.9,0.7s1.2,0.6,1.8,0.8c0.6,0.3,1.2,0.5,1.9,0.7c0,0.1,0.1,0.3,0.1,0.4c0,0.1,0,0.2,0,0.4V56v0.2c0,0.5-0.1,1.1-0.3,1.6
			c-0.2,0.5-0.3,1.1-0.4,1.6c-0.1,0.7-0.4,1.1-0.8,1.3S99.8,61,99.3,61c-0.2,0-0.5,0-0.7,0c-0.3,0-0.5,0-0.7,0
			c-1.1,0-2.1,0.1-3.2,0.2c-1.1,0.2-2.1,0.4-3.1,0.7c-0.3,0.5-0.4,1.2-0.4,1.8c0,0.5,0.1,1,0.2,1.6c0.1,0.5,0.2,1,0.3,1.6
			c-0.3-0.1-0.6-0.1-0.8-0.2c-0.2-0.1-0.5-0.2-0.8-0.2c-0.2,0-0.4,0.1-0.6,0.4s-0.3,0.5-0.3,0.7s0.1,0.4,0.2,0.5s0.3,0.3,0.5,0.3
			c0.2,0.1,0.4,0.1,0.7,0.2c0.2,0,0.4,0,0.6,0v0.9c0,1.1-0.1,2.1-0.4,3.1c-0.2,1-0.4,2.1-0.4,3.1c0,0.3,0,0.6,0.1,1
			c0.1,0.3,0.1,0.6,0.1,1s-0.1,0.6-0.3,0.7c-0.2,0.1-0.4,0.1-0.7,0.1c-0.2,0-0.5,0-0.7,0s-0.3,0.2-0.3,0.4c0,0.1,0,0.2,0,0.2
			c-0.1,0.2-0.2,0.4-0.2,0.6c0,0.3,0.1,0.4,0.3,0.5c0.2,0.1,0.4,0.1,0.7,0.1c0.2,0,0.4,0,0.7,0.1c0.2,0,0.3,0.2,0.3,0.4
			c0,0.3,0,0.6-0.1,0.9s-0.1,0.6-0.1,0.8c0,0.8,0.2,1.5,0.5,2.3c0.3,0.7,0.5,1.5,0.5,2.3c0,0.7-0.1,1.4-0.3,2.1
			c-0.2,0.7-0.3,1.4-0.3,2.1c0,0.4,0.1,0.9,0.2,1.3s0.3,0.8,0.4,1.3c0.2,0.4,0.3,0.8,0.4,1.3c0.1,0.4,0.2,0.8,0.2,1.3
			c0,0.6-0.1,1.2-0.3,1.8c-0.2,0.6-0.3,1.2-0.3,1.8c0,0.1,0,0.4,0.1,0.7c0.1,0.7,0.2,1.5,0.3,2.4c0.1,0.9,0.3,1.8,0.5,2.6
			c0.3,0.8,0.7,1.5,1.2,2.1s1.3,0.9,2.2,0.9c0.9,0,1.8-0.1,2.6-0.4c0.8-0.3,1.7-0.4,2.6-0.4c0.5,0,1.1,0.1,1.6,0.2s1.1,0.3,1.6,0.5
			s1,0.3,1.6,0.5c0.5,0.1,1.1,0.2,1.7,0.2c0.9,0,1.7-0.1,2.6-0.3c0.9-0.2,1.7-0.4,2.6-0.5c1.2-0.2,2.1-0.6,2.7-1.2s0.9-1.5,0.9-2.8
			s-0.2-2.6-0.5-3.8c-0.3-1.2-0.5-2.5-0.5-3.8c0-0.8,0.1-1.5,0.3-2.3c0.2-0.7,0.6-1.4,1.1-2c0.7-0.2,1.4-0.3,2.1-0.3
			c1.3,0,2.2,0.4,2.7,1.2c0.5,0.8,0.8,1.8,0.8,2.9c0,0.5-0.1,0.8-0.3,1c-0.2,0.2-0.3,0.4-0.3,0.5s0.1,0.1,0.2,0.2s0.2,0.2,0.4,0.4
			c0.1,0.1,0.3,0.3,0.4,0.5s0.2,0.4,0.2,0.7c0,0.2-0.1,0.3-0.3,0.4c0,0.3,0,0.7,0,1.2s-0.1,0.9-0.1,1.4s0,0.9,0,1.3s0.1,0.7,0.2,0.9
			L122.6,104.3z"/>
		<path class="st0" d="M175,58.9c0,0.3-0.1,0.6-0.3,0.9c-0.2,0.3-0.5,0.5-0.8,0.8c-0.3,0.2-0.6,0.5-0.9,0.7
			c-0.3,0.2-0.6,0.4-0.8,0.6c-0.5,0.4-1.1,0.6-1.8,0.6c-0.5,0-0.9-0.1-1.3-0.2c-0.4-0.1-0.9-0.2-1.3-0.2c-0.2,0-0.4,0-0.5,0.1
			c-0.4,0.2-0.7,0.4-1.1,0.4c-0.3,0-0.7,0-1.1,0c-0.2,0-0.5-0.1-0.9-0.3s-0.6-0.4-0.6-0.7l0.3-0.3c-0.3,0.1-0.5,0.2-0.7,0.4
			c-0.1,0.1-0.2,0.3-0.2,0.5s-0.1,0.4-0.1,0.6c0,0.2-0.1,0.4-0.2,0.6c-0.1,0.3-0.4,0.5-0.7,0.5c-0.3,0.1-0.6,0.2-0.9,0.4
			c-0.3,0.2-0.6,0.6-0.8,1.1s-0.3,1.4-0.3,2.7c0,0.5,0,1.1,0.1,1.6s0.1,1,0.1,1.6c0,1-0.1,2.1-0.3,3.1s-0.3,2.1-0.3,3.1
			c0,0.6-0.1,1.2-0.3,1.8c-0.2,0.6-0.3,1.2-0.3,1.8c0,0.9,0.4,1.5,1.1,1.9c-0.2,0.1-0.4,0.3-0.5,0.7c-0.1,0.4-0.2,0.8-0.3,1.2
			c-0.1,0.4-0.1,0.9-0.1,1.3s0,0.7,0,0.9c0,0.1,0,0.3,0,0.5s0,0.4,0,0.6s0.1,0.4,0.1,0.6s0.1,0.3,0.2,0.4c0.2,0.2,0.3,0.5,0.3,0.9
			c0,0.3-0.1,0.7-0.2,1c-0.1,0.3-0.2,0.7-0.2,1c0,1.4,0.1,2.8,0.3,4.2c0.2,1.4,0.3,2.8,0.3,4.2c0,0.9-0.1,1.9-0.3,2.8
			s-0.3,1.9-0.3,2.8c0,0.8,0.1,1.5,0.4,2c0.3,0.5,0.7,0.9,1.2,1.1c0.5,0.3,1.1,0.4,1.7,0.5c0.6,0.1,1.3,0.1,2,0.1
			c1.1,0,2.2-0.1,3.3-0.3c1.1-0.2,2.2-0.3,3.2-0.3s1.9,0.3,2.5,1s0.9,1.5,0.9,2.6c0,0.8-0.1,1.5-0.4,2.2c-0.2,0.7-0.6,1.3-1,1.8
			s-1,0.9-1.6,1.2c-0.6,0.3-1.4,0.4-2.2,0.4c-0.6,0-1.2-0.1-2-0.2c-1.2-0.2-2.3-0.4-3.5-0.5s-2.3-0.2-3.6-0.2c-1,0-2,0-3,0.1
			c-1,0-2,0.1-3,0.1c-1.2,0-2.4,0-3.6,0c-1.2,0-2.4,0-3.6,0c-0.4,0-0.9-0.1-1.3-0.2c-0.4-0.1-0.8-0.2-1.2-0.2c-0.3,0-0.6,0-1,0.2
			c-0.4,0.1-0.8,0.2-1.2,0.3c-0.4,0.1-0.9,0.2-1.3,0.3c-0.5,0.1-0.9,0.2-1.4,0.2c-1.1,0-2-0.2-2.8-0.7s-1.2-1.3-1.2-2.5
			c0-0.4,0-0.7,0.1-1.1c0-0.3,0.2-0.6,0.4-1.1s0.5-0.9,0.9-1.4c0.3-0.4,0.7-0.8,1-1.2c0.4-0.3,0.7-0.5,1-0.5c0.2,0,0.5,0.1,0.7,0.2
			s0.5,0.3,0.7,0.4c0.3,0.2,0.6,0.3,1,0.4s0.8,0.2,1.3,0.2c1,0,2.1-0.1,3.3-0.3c1.1-0.2,2.2-0.6,3.1-1.1c0.9-0.5,1.7-1.2,2.3-2
			s0.9-1.9,0.9-3.1c0-0.5,0-0.9-0.1-1.4c-0.1-0.4-0.1-0.9-0.2-1.4c-0.2-1.5-0.3-3-0.3-4.6c0-1.5,0-3.1,0-4.6c0-1,0.1-2,0.4-2.9
			c0.3-0.9,0.4-1.9,0.4-2.9c0-0.6-0.1-1.1-0.3-1.6S152,84,152,83.5c0-0.3,0-0.5,0.1-0.8s0.1-0.5,0.1-0.8c0-0.6-0.1-1.3-0.2-1.8
			c-0.1-0.6-0.2-1.2-0.2-1.8c0-1,0.1-2,0.3-3s0.3-2,0.3-3c0-0.6-0.1-1.2-0.2-1.8c-0.1-0.6-0.3-1.2-0.5-1.8c-0.2-0.6-0.3-1.2-0.5-1.8
			c-0.1-0.6-0.2-1.2-0.2-1.8c0-0.4,0-0.8,0.1-1.2c-0.2-0.4-0.4-0.7-0.7-1c-0.3-0.2-0.7-0.4-1-0.7c-0.4-0.2-0.7-0.4-1.1-0.6
			c-0.4-0.2-0.6-0.5-0.8-0.9c-0.2,0-0.4,0.1-0.4,0.3c-0.1,0.2-0.1,0.4-0.1,0.6c0,0.2-0.1,0.4-0.2,0.6c-0.1,0.2-0.2,0.3-0.5,0.3
			c-0.8,0.1-1.6,0.2-2.5,0.2c-0.8,0.1-1.6,0.1-2.5,0.1c-0.5,0-1,0-1.7-0.1s-1.3-0.2-2-0.4c-0.6-0.2-1.2-0.5-1.6-0.9
			c-0.4-0.4-0.7-0.9-0.7-1.6c0-0.4,0.1-0.8,0.3-1.3c0.2-0.4,0.4-0.9,0.7-1.3c0.3-0.4,0.6-0.8,0.9-1.2c0.3-0.4,0.6-0.7,0.9-1
			c0.2-0.2,0.5-0.4,0.9-0.5s0.9-0.2,1.4-0.3s1-0.1,1.6-0.1s1.2,0,1.7,0c0.7,0,1.4,0,2,0s1.1,0,1.5,0c0.7,0,1.6,0,2.7-0.1
			c1.1,0,2.1-0.1,3-0.2c1-0.1,1.8-0.2,2.5-0.3s1.1-0.2,1.1-0.3c0.2,0.1,0.4,0.2,0.6,0.4c0.2,0.2,0.5,0.4,0.8,0.5
			c0.3,0.2,0.5,0.3,0.8,0.5c0.3,0.1,0.5,0.2,0.6,0.2c0.2,0,0.3-0.1,0.4-0.2c0.1-0.1,0.2-0.3,0.3-0.5s0.1-0.4,0.2-0.5
			c0-0.2,0-0.3,0-0.5h0.3c0.6,0,1.1,0.2,1.3,0.6c0.2,0.4,0.3,0.8,0.3,1.3c0,0.1,0,0.2,0,0.3s0,0.2,0,0.3c0.3-0.1,0.5-0.2,0.6-0.4
			s0.2-0.4,0.3-0.7c0.1-0.2,0.2-0.4,0.3-0.6c0.1-0.2,0.4-0.3,0.7-0.3c0.1,0,0.3,0,0.5,0.1h0.3c0.6,0.5,1.1,0.9,1.5,1.2
			s0.6,0.5,0.8,0.6s0.3,0.2,0.4,0.2c0.1,0,0.1,0,0.1,0c0.1,0,0.2,0,0.3,0c0.2,0,0.2,0,0.2,0c0-0.1-0.1-0.2-0.2-0.3
			c-0.1-0.1-0.3-0.2-0.4-0.3c-0.2-0.1-0.3-0.2-0.4-0.4c-0.1-0.1-0.2-0.3-0.2-0.5c0.3,0,0.6-0.1,0.8-0.2c0.2-0.1,0.4-0.2,0.5-0.3
			s0.3-0.3,0.5-0.4c0.2-0.1,0.4-0.2,0.6-0.2c0.4,0,0.7,0.1,0.9,0.2c0.2,0.1,0.4,0.2,0.5,0.4c0.1,0.1,0.3,0.3,0.4,0.4
			c0.1,0.1,0.3,0.2,0.5,0.2c0.1,0,0.3,0,0.4,0c0.1,0,0.2,0,0.4,0s0.3,0.1,0.4,0.3c0.1,0.2,0.1,0.3,0.1,0.5c0.1,0.4,0.2,0.8,0.2,1
			c0.1,0.2,0.1,0.4,0.2,0.6c0.1,0.2,0.2,0.4,0.3,0.5c0.1,0.2,0.3,0.5,0.5,0.8C174.9,58.4,175,58.6,175,58.9z M153.2,61.7
			c0.2-0.2,0.1-0.5-0.1-0.8c-0.3-0.3-0.5-0.4-0.9-0.4c-0.3,0-0.6,0.2-0.7,0.5c-0.1,0.3-0.2,0.6-0.2,0.9c0.1,0.2,0.1,0.4,0.3,0.5
			c0.1,0.1,0.2,0.2,0.3,0.3s0.2,0.1,0.4,0.1s0.4-0.1,0.5-0.2c0.1-0.1,0.2-0.2,0.3-0.4C153.2,62.2,153.2,62,153.2,61.7z"/>
		<path class="st0" d="M237.9,104.3c0,0.4-0.1,0.7-0.2,1c-0.1,0.3-0.2,0.7-0.2,1s0.1,0.6,0.2,0.8c0.1,0.3,0.2,0.6,0.2,0.8
			c0,0.2,0,0.6-0.1,1.1s-0.2,1-0.3,1.6c-0.1,0.5-0.3,1.1-0.4,1.5c-0.1,0.5-0.3,0.8-0.4,1h-1.3c-0.1,0.6-0.3,1.2-0.6,1.9
			c-1.1,0.5-2,0.9-2.8,1s-1.6,0.2-2.5,0.2c-0.4,0-0.8,0-1.3,0c-0.4,0-0.9,0-1.5,0c-1,0-1.8,0.1-2.5,0.2s-1.5,0.4-2.3,0.9
			c-0.3,0.1-0.5,0.2-0.8,0.2c-0.5,0-1.1-0.1-1.6-0.2s-1.1-0.2-1.6-0.4c-0.5-0.1-1-0.3-1.6-0.4c-0.5-0.1-1.1-0.2-1.6-0.2
			c-0.8,0-1.6-0.1-2.3-0.2c-0.8-0.2-1.6-0.2-2.3-0.2c-0.6,0-1.1,0.1-1.7,0.2c-0.5,0.1-1.1,0.2-1.7,0.3c-0.6,0.1-1.1,0.2-1.7,0.3
			c-0.5,0.1-1.1,0.2-1.7,0.2c-0.5,0-1-0.1-1.5-0.2s-1-0.2-1.5-0.2c-0.9,0-1.8,0.1-2.8,0.2c-0.9,0.2-1.8,0.2-2.8,0.2
			c-1.2,0-2.2-0.3-3-0.9s-1.2-1.5-1.2-2.8c0-0.5,0.1-1,0.3-1.4c0.7-1.2,1.4-2.1,2.1-2.6c0.7-0.5,1.4-0.9,2-1.2
			c0.7-0.2,1.3-0.4,1.8-0.5c0.6-0.1,1.1-0.3,1.5-0.6c0.4-0.3,0.8-0.8,1-1.5s0.4-1.8,0.4-3.2c0-1.7-0.1-3.4-0.4-5.1
			c-0.3-1.7-0.4-3.4-0.4-5.1c0-0.8,0.1-1.7,0.3-2.5s0.3-1.6,0.3-2.5c0-1.4-0.1-2.9-0.2-4.3c-0.1-1.4-0.2-2.8-0.2-4.2
			c0-1-0.1-1.9-0.4-2.9c-0.3-0.9-0.4-1.9-0.4-2.9c0-0.6,0.1-1.1,0.2-1.7c0.1-0.5,0.2-1.1,0.2-1.6c0-0.8,0-1.7-0.1-2.5
			s-0.2-1.7-0.2-2.5c0-0.5-0.1-0.9-0.2-1.4c-0.1-0.4-0.3-0.8-0.5-1.2c-0.2-0.3-0.5-0.6-0.9-0.8s-0.8-0.3-1.4-0.3
			c-0.5,0-1,0.1-1.5,0.3s-1,0.3-1.6,0.3c-0.3,0-0.6,0-0.9-0.1c-0.3-0.1-0.6-0.1-0.9-0.2c-0.1-0.2-0.3-0.4-0.4-0.7
			c-0.1-0.3-0.2-0.5-0.3-0.8c-0.1-0.2-0.3-0.5-0.4-0.7c-0.2-0.2-0.4-0.3-0.7-0.4c0.3-0.4,0.6-1,0.8-1.7c0.3-0.7,0.6-1.4,0.9-2
			c0.3-0.6,0.7-1.2,1.2-1.6c0.5-0.5,1-0.7,1.7-0.7c0.5,0,1.1,0.1,1.5,0.4c0.5,0.3,1,0.4,1.5,0.4c0.7,0,1.4-0.1,2-0.4
			c0.6-0.3,1.3-0.4,2-0.4c0.6,0,1.1,0.2,1.6,0.6c0.5-0.1,1-0.2,1.4-0.2c0.3,0,0.6,0,0.8,0.1c0.3,0.1,0.6,0.1,0.8,0.1
			c0.9,0,1.7-0.1,2.5-0.4c0.8-0.2,1.7-0.4,2.5-0.4c0.7,0,1.4,0.1,2,0.3s1.3,0.4,1.9,0.7c0.6,0.3,1.2,0.6,1.8,0.8
			c0.6,0.3,1.2,0.5,1.9,0.7c0,0.1,0,0.3,0.1,0.4c0,0.1,0,0.2,0,0.4V56v0.2c0,0.5-0.1,1.1-0.3,1.6s-0.3,1.1-0.4,1.6
			c-0.1,0.7-0.4,1.1-0.8,1.3c-0.4,0.2-0.8,0.3-1.3,0.3c-0.2,0-0.5,0-0.7,0c-0.3,0-0.5,0-0.7,0c-1.1,0-2.1,0.1-3.2,0.2
			c-1.1,0.2-2.1,0.4-3.1,0.7c-0.3,0.5-0.4,1.2-0.4,1.8c0,0.5,0.1,1,0.2,1.6c0.1,0.5,0.2,1,0.3,1.6c-0.3-0.1-0.6-0.1-0.8-0.2
			s-0.5-0.2-0.8-0.2c-0.2,0-0.4,0.1-0.6,0.4c-0.2,0.3-0.3,0.5-0.3,0.7s0.1,0.4,0.2,0.5c0.1,0.1,0.3,0.3,0.5,0.3
			c0.2,0.1,0.4,0.1,0.7,0.2c0.2,0,0.4,0,0.6,0v0.9c0,1.1-0.1,2.1-0.4,3.1c-0.2,1-0.4,2.1-0.4,3.1c0,0.3,0,0.6,0.1,1
			c0.1,0.3,0.1,0.6,0.1,1s-0.1,0.6-0.3,0.7s-0.4,0.1-0.7,0.1c-0.2,0-0.5,0-0.7,0s-0.3,0.2-0.3,0.4c0,0.1,0,0.2,0,0.2
			c-0.1,0.2-0.2,0.4-0.2,0.6c0,0.3,0.1,0.4,0.3,0.5s0.4,0.1,0.7,0.1c0.2,0,0.4,0,0.7,0.1c0.2,0,0.3,0.2,0.3,0.4c0,0.3,0,0.6-0.1,0.9
			s-0.1,0.6-0.1,0.8c0,0.8,0.2,1.5,0.5,2.3c0.3,0.7,0.5,1.5,0.5,2.3c0,0.7-0.1,1.4-0.3,2.1s-0.3,1.4-0.3,2.1c0,0.4,0.1,0.9,0.2,1.3
			c0.1,0.4,0.3,0.8,0.4,1.3c0.2,0.4,0.3,0.8,0.4,1.3c0.1,0.4,0.2,0.8,0.2,1.3c0,0.6-0.1,1.2-0.3,1.8c-0.2,0.6-0.3,1.2-0.3,1.8
			c0,0.1,0,0.4,0.1,0.7c0.1,0.7,0.2,1.5,0.3,2.4s0.3,1.8,0.5,2.6c0.3,0.8,0.7,1.5,1.2,2.1s1.3,0.9,2.2,0.9s1.8-0.1,2.6-0.4
			s1.7-0.4,2.6-0.4c0.5,0,1.1,0.1,1.6,0.2s1.1,0.3,1.6,0.5s1,0.3,1.6,0.5c0.5,0.1,1.1,0.2,1.7,0.2c0.9,0,1.7-0.1,2.6-0.3
			c0.9-0.2,1.7-0.4,2.6-0.5c1.2-0.2,2.1-0.6,2.7-1.2c0.6-0.6,0.9-1.5,0.9-2.8s-0.2-2.6-0.5-3.8c-0.3-1.2-0.5-2.5-0.5-3.8
			c0-0.8,0.1-1.5,0.3-2.3c0.2-0.7,0.6-1.4,1.1-2c0.7-0.2,1.4-0.3,2.1-0.3c1.3,0,2.2,0.4,2.7,1.2c0.5,0.8,0.8,1.8,0.8,2.9
			c0,0.5-0.1,0.8-0.3,1s-0.3,0.4-0.3,0.5s0.1,0.1,0.2,0.2c0.1,0.1,0.2,0.2,0.4,0.4c0.1,0.1,0.3,0.3,0.4,0.5c0.1,0.2,0.2,0.4,0.2,0.7
			c0,0.2-0.1,0.3-0.3,0.4c0,0.3,0,0.7,0,1.2s-0.1,0.9-0.1,1.4s0,0.9,0,1.3s0.1,0.7,0.2,0.9L237.9,104.3z"/>
		<path class="st0" d="M299.5,87.1c0,0.6-0.1,1.2-0.2,1.8c-0.1,0.6-0.2,1.1-0.4,1.7c-0.1,0.6-0.3,1.1-0.4,1.7s-0.2,1.2-0.2,1.7
			c0,0.2,0,0.5,0.1,0.7c0,0.2,0.1,0.4,0.1,0.7c0,0.6-0.1,1.1-0.3,1.6c-0.2,0.5-0.4,1-0.7,1.5c-0.2,0.4-0.4,0.9-0.4,1.3
			c0,0.5-0.1,0.9-0.1,1.4s-0.1,0.9-0.2,1.4s-0.3,0.9-0.5,1.3c-0.1,0.3-0.1,0.7-0.2,1.3c-0.1,0.6-0.2,1-0.4,1.2
			c0,0.1-0.1,0.1-0.3,0.1c-0.1,0-0.3,0.1-0.5,0.1s-0.4,0.1-0.6,0.2s-0.4,0.2-0.5,0.4c-0.1,0.1-0.3,0.3-0.3,0.6
			c-0.1,0.3-0.2,0.5-0.3,0.8c-0.1,0.3-0.3,0.5-0.4,0.7c-0.2,0.2-0.4,0.3-0.6,0.3c-0.3,0-0.5-0.1-0.7-0.2s-0.4-0.2-0.6-0.3
			c-0.2-0.1-0.4-0.2-0.6-0.2c-0.2-0.1-0.4,0-0.7,0c0.1,0.1,0.1,0.2,0.1,0.4c0,0.2,0,0.4,0,0.7c0,0.2,0.2,0.4,0.4,0.7
			c0.2,0.2,0.6,0.3,1.1,0.3c0.3,0,0.5,0,0.8,0c0.2,0,0.5-0.1,0.8-0.1c-0.2,0.6-0.5,1.1-0.8,1.5s-0.7,0.7-1.1,1s-0.8,0.5-1.2,0.8
			c-0.4,0.3-0.8,0.6-1.2,1.1c-0.5,0.5-1,0.8-1.4,0.9s-1,0.3-1.6,0.4c-0.7,0.2-1.2,0.4-1.5,0.7c-0.3,0.3-0.6,0.6-1,0.8
			s-0.8,0.5-1.4,0.7s-1.5,0.3-2.8,0.3c-1.2,0-2.3,0-3.4-0.1s-2.3-0.2-3.4-0.3c-0.5-0.1-0.9-0.2-1.3-0.3c-0.3-0.1-0.6-0.3-0.9-0.4
			c-0.3-0.2-0.6-0.3-0.9-0.5s-0.7-0.3-1.1-0.5c-0.2-0.1-0.5-0.2-0.8-0.3c-0.3-0.1-0.7-0.3-1-0.4s-0.7-0.3-1-0.5s-0.5-0.3-0.7-0.5
			s-0.3-0.4-0.4-0.6s-0.1-0.4-0.2-0.7c-0.1-0.2-0.1-0.5-0.2-0.7s-0.2-0.4-0.4-0.5c-0.4-0.1-0.9-0.1-1.3-0.2s-0.8-0.2-1.2-0.4
			c-0.1-0.3-0.2-0.6-0.3-0.9c-0.1-0.3-0.2-0.6-0.3-0.9c-0.4-0.4-0.7-0.7-1.1-1c-0.3-0.3-0.7-0.6-0.9-0.8c-0.3-0.3-0.5-0.6-0.7-1
			s-0.3-0.9-0.4-1.5c-0.1-0.8-0.3-1.5-0.5-2.2c-0.3-0.7-0.5-1.4-0.8-2.1s-0.5-1.4-0.7-2.1s-0.3-1.5-0.3-2.2c0-0.8,0.2-1.6,0.5-2.4
			c-0.8-1.2-1.4-2.5-1.6-3.9c-0.2-1.4-0.3-2.8-0.3-4.2c0-0.5,0-0.9,0-1.4c0-0.4,0-0.9,0-1.3c0-0.5-0.1-0.9-0.3-1.1
			c-0.2-0.3-0.3-0.6-0.3-1c0-0.6,0.1-1.3,0.3-1.9s0.3-1.2,0.4-1.9c-0.4-0.1-0.6-0.2-0.7-0.4l0.1-0.2c0.2-0.3,0.4-0.7,0.5-1
			s0.2-0.6,0.3-0.8c0.1-0.3,0.1-0.5,0.2-0.8c0.1-0.3,0.1-0.6,0.2-1c0.2-1.2,0.5-2.3,0.9-3.5c0.4-1.1,0.7-2.3,1.1-3.4
			c0.4-1.3,0.8-2.5,1.4-3.5c0.5-1,1.4-2,2.6-2.8c0.5-0.4,0.9-0.8,1.3-1.3s0.7-1,0.9-1.6c0.1-0.1,0.3-0.2,0.5-0.2s0.3,0,0.5,0h0.3
			c0.2,0,0.4,0,0.6-0.1c0.2,0,0.4-0.1,0.5-0.3c0.4-0.4,0.8-0.7,1.1-0.9c0.3-0.2,0.8-0.3,1.4-0.3c0.4,0,0.8,0,1.2,0.1
			c0.4,0.1,0.8,0.2,1.2,0.2c0.1-0.1,0.4-0.3,0.6-0.6c0.3-0.2,0.5-0.4,0.7-0.5v0.1c0,0.1,0,0.2,0.1,0.3c0,0.1,0.1,0.2,0.3,0.2
			c0.4,0,0.7-0.1,1.1-0.3c0.3-0.2,0.7-0.3,1.1-0.3c0.8-0.1,1.7-0.4,2.5-0.7s1.7-0.5,2.6-0.5s1.9,0.1,3,0.2c1.1,0.1,2.1,0.3,3.1,0.7
			c1,0.3,2,0.8,2.8,1.3c0.9,0.6,1.6,1.3,2.1,2.2c0.2,0.4,0.5,0.7,0.7,0.9s0.5,0.4,0.7,0.6c0.2,0.2,0.5,0.3,0.7,0.5s0.5,0.4,0.7,0.7
			c0.5,0.6,1,1.3,1.3,2.1c0.3,0.7,0.8,1.4,1.4,2c0.8,0.7,1.3,1.5,1.7,2.5c0.4,1,0.5,2,0.5,3c0,0.3,0,0.6-0.1,1
			c-0.1,0.3-0.1,0.7-0.1,1s0.1,0.6,0.2,0.9s0.3,0.7,0.5,1s0.3,0.7,0.5,1.1c0.1,0.4,0.2,0.7,0.3,1.1c0.1,0.8,0.2,1.5,0.4,2.3
			c0.2,0.7,0.3,1.5,0.5,2.3c0.2,1,0.4,2,0.5,3C299.5,85.1,299.6,86.1,299.5,87.1z M292.5,86.8c0-1.6-0.1-3.2-0.4-4.8
			c-0.3-1.6-0.5-3.2-0.8-4.8c-0.1-0.6-0.3-1.1-0.5-1.6s-0.5-1.1-0.6-1.6c-0.3-1-0.7-2.1-1-3.1s-0.6-2.1-1-3.1
			c-0.2-0.6-0.6-1.2-1.2-1.7s-1.3-0.9-2.1-1.2c-0.8-0.3-1.7-0.6-2.6-0.8c-0.9-0.2-1.8-0.4-2.7-0.5c-0.9-0.1-1.7-0.2-2.4-0.3
			c-0.7,0-1.3-0.1-1.7-0.1h0.6h-0.5c-0.6,0-1.3,0-1.9-0.1s-1.3-0.1-1.9-0.1c-0.5,0-1,0-1.5,0.1s-1,0.3-1.4,0.6
			c-1,0.8-1.9,1.5-2.7,2.1c-0.8,0.7-1.5,1.5-2.1,2.7c-0.2,0.4-0.4,0.6-0.6,0.8c-0.2,0.2-0.4,0.3-0.6,0.5s-0.4,0.3-0.5,0.5
			s-0.2,0.5-0.3,1c-0.1,0.8-0.3,1.7-0.5,2.5s-0.3,1.7-0.3,2.5c0,0.9-0.1,1.8-0.2,2.7c-0.2,0.9-0.4,1.7-0.8,2.6
			c-0.1,0.2-0.2,0.4-0.2,0.7c-0.1,0.2-0.1,0.4-0.1,0.7c0,0.4,0.1,0.8,0.3,1.1c0.2,0.3,0.3,0.6,0.3,0.8c0,0.1,0,0.2-0.1,0.2
			s-0.1,0-0.2,0.1c-0.1,0-0.1,0.1-0.2,0.3c-0.1,0.1-0.1,0.4-0.1,0.8c0,0.8,0,1.7,0,2.6s0.1,1.7,0.2,2.6c0.1,0.5,0.2,1,0.5,1.4
			c0.2,0.4,0.3,0.9,0.3,1.4c0,0.3-0.1,0.6-0.2,1c-0.1,0.3-0.2,0.7-0.2,1c0,0.4,0.1,0.7,0.3,1s0.5,0.5,0.7,0.8
			c0.2,0.2,0.3,0.5,0.5,0.9c0.1,0.4,0.3,0.7,0.4,1s0.3,0.6,0.4,0.8c0.1,0.2,0.2,0.3,0.4,0.3c0.1,0,0.2,0,0.3-0.1
			c0.1,0,0.2-0.1,0.3-0.1c0.6,0,1,0.3,1.3,0.8s0.5,1,0.5,1.5c0,0.4,0.1,0.7,0.3,1c0.2,0.3,0.5,0.5,0.8,0.8c0.3,0.2,0.6,0.5,1,0.7
			c0.3,0.2,0.6,0.5,0.8,0.7c0.4,0.4,0.7,0.7,0.9,0.9c0.2,0.1,0.4,0.2,0.6,0.3c0.2,0,0.3,0.1,0.5,0.1s0.4,0.1,0.6,0.3
			c0.3,0.2,0.6,0.5,1,0.8c0.3,0.3,0.7,0.5,1,0.8c0.9,0.6,1.9,1,3,1.2c1.1,0.1,2.2,0.2,3.3,0.2c0.4,0,0.8-0.1,1.2-0.3
			c0.4-0.2,0.8-0.4,1.1-0.7c0.4-0.2,0.8-0.5,1.1-0.7c0.4-0.2,0.8-0.3,1.3-0.3c0.4,0,0.8,0.1,1.2,0.3c0.7-1,1.3-1.8,1.9-2.4
			s1.2-1.2,1.6-1.8c0.5-0.6,0.9-1.2,1.3-2c0.3-0.8,0.6-1.8,0.7-3.1c0.1-0.5,0.2-1.1,0.5-1.5c0.2-0.5,0.4-1,0.5-1.5
			c0.1-1.2,0.2-2.3,0.2-3.5s0.1-2.3,0.3-3.5c0.1-0.5,0.1-0.9,0.1-1.4C292.4,87.8,292.5,87.3,292.5,86.8z"/>
	</g>
	<g>
		<path class="st0" d="M42.1,84.4c0.3,0,0.5,0.1,0.8,0.2s0.4,0.3,0.4,0.6c0,0.2,0,0.4-0.1,0.6c0,0.2-0.1,0.4-0.1,0.6
			c0,0.3,0.1,0.5,0.2,0.5c0.1,0,0.2,0,0.4,0.1c0.1,0,0.3,0.2,0.4,0.4c0.1,0.2,0.2,0.8,0.2,1.5c0,0.4,0,0.9-0.1,1.3
			C44,90.7,44,91.1,44,91.5c0,0.3,0,0.7,0.1,1.1c-0.2,0.2-0.3,0.3-0.4,0.5c-0.1,0.2-0.2,0.4-0.3,0.5c-0.1,0.2-0.2,0.3-0.4,0.4
			s-0.4,0.2-0.7,0.2c-0.2,0-0.3,0.1-0.3,0.4c0,0.1,0,0.2,0,0.3c0,0.1,0,0.2,0,0.3c0,0.1,0,0.2-0.1,0.2c0,0.1-0.1,0.1-0.2,0.1h-0.1
			c0,0.4,0.2,0.7,0.4,0.9c0.3,0.2,0.5,0.4,0.8,0.7c0.2,0.2,0.3,0.4,0.4,0.6c0.1,0.2,0.2,0.4,0.2,0.6c0.1,0.2,0.2,0.4,0.2,0.6
			c0.1,0.2,0.2,0.4,0.4,0.7c0.2,0.2,0.3,0.5,0.4,0.9c0.1,0.4,0.2,0.8,0.2,1.3s0.1,0.9,0.1,1.3s0,0.8,0,1c0,0.6,0,1.1-0.1,1.4
			c-0.1,0.4-0.2,0.7-0.4,1c-0.1,0.3-0.3,0.6-0.5,0.9s-0.3,0.7-0.5,1.2s-0.4,1.2-0.9,1.9c-0.4,0.7-0.9,1.5-1.5,2.1
			c-0.6,0.7-1.2,1.2-1.8,1.7s-1.3,0.7-1.9,0.7c-0.3,0-0.6,0.1-0.8,0.2c-0.3,0.1-0.6,0.3-0.8,0.5c-0.3,0.2-0.5,0.4-0.8,0.6
			s-0.5,0.4-0.7,0.5c-0.7,0.4-1.5,0.6-2.3,0.7s-1.6,0.2-2.5,0.2c-0.8,0-1.5-0.1-2.2-0.2s-1.4-0.3-2.1-0.4c-0.7-0.2-1.3-0.4-2-0.5
			c-0.7-0.2-1.4-0.4-2.1-0.5c-0.5-0.1-0.9-0.2-1.2-0.4c-0.3-0.2-0.5-0.4-0.7-0.6s-0.4-0.5-0.6-0.7c-0.2-0.3-0.4-0.5-0.8-0.8
			c-0.1-0.1-0.3-0.2-0.4-0.2s-0.2-0.1-0.3-0.1c-0.1,0-0.1-0.1-0.1-0.2s0-0.3,0-0.5s0-0.3-0.1-0.4s-0.2-0.2-0.4-0.2
			c-0.1-0.1-0.3-0.2-0.4-0.2c-0.1-0.1-0.3-0.2-0.3-0.3c-0.1-0.1-0.1-0.3-0.2-0.4c0-0.2-0.1-0.4-0.1-0.6s0-0.4-0.1-0.6
			c0-0.2-0.1-0.4-0.1-0.5c-0.2-0.4-0.3-0.7-0.5-1c-0.1-0.3-0.3-0.5-0.4-0.8c-0.1-0.2-0.2-0.5-0.2-0.8c-0.1-0.3-0.1-0.7-0.1-1.2
			c0-0.7,0.1-1.3,0.2-2c0.2-0.7,0.3-1.3,0.5-2c0.2-0.6,0.4-1.3,0.5-1.9c0.2-0.6,0.2-1.3,0.2-2c0-0.5-0.1-1-0.4-1.3
			c-0.2-0.3-0.5-0.6-0.9-0.7c-0.4-0.2-0.8-0.3-1.2-0.3s-0.9-0.1-1.3-0.1c-0.8,0-1.5,0-2.3,0.1s-1.5,0.2-2.2,0.2L7,95.9
			c0,0.2-0.1,0.4-0.2,0.5c-0.1,0.2-0.2,0.3-0.4,0.4c-0.1,0.1-0.2,0.3-0.4,0.4c-0.1,0.2-0.2,0.3-0.2,0.5s0.1,0.4,0.2,0.4
			c0.1,0.1,0.2,0.2,0.3,0.3c0,0.2,0,0.4,0,0.7c0,0.2,0,0.4,0,0.7v1.3c0,0.3-0.1,0.6-0.2,0.9c-0.2,0.3-0.4,0.7-0.6,1
			c-0.3,0.3-0.5,0.6-0.9,0.8c-0.3,0.2-0.6,0.3-0.9,0.3s-0.5-0.1-0.8-0.2c-0.3-0.2-0.5-0.4-0.8-0.6c-0.2-0.2-0.4-0.5-0.6-0.8
			c-0.1-0.3-0.2-0.6-0.2-0.9s0.1-0.5,0.2-0.7s0.2-0.4,0.2-0.7c0-0.4-0.1-0.8-0.2-1.2c-0.1-0.4-0.2-0.8-0.2-1.3
			c0-0.4,0.1-0.9,0.2-1.3s0.2-0.8,0.2-1.3c0-0.3,0-0.7,0-1s0-0.7,0-1c0-0.4,0-0.7,0.1-1.1s0.2-0.7,0.4-1h0.2c0.3,0,0.5,0,0.8-0.1
			s0.5-0.1,0.8-0.2s0.5-0.2,0.8-0.2c0.3-0.1,0.5-0.1,0.8-0.1c0.4,0,0.7,0.1,1,0.2c0.3,0.2,0.7,0.2,1,0.2c0.7,0,1.4-0.1,2-0.2
			c0.7-0.2,1.4-0.2,2-0.2c1.7,0,3.4,0,5.1,0c1.7,0,3.4,0,5.2,0s3.5,0.1,5.2,0.2s3.5,0.2,5.2,0.2c0.6,0,1.4,0,2.2-0.1
			s1.6-0.2,2.3-0.5s1.3-0.6,1.8-1.1s0.7-1.2,0.7-2.1c0-0.2,0-0.3,0-0.5s0-0.3,0-0.5c0-0.3,0.1-0.5,0.2-0.7c0.1-0.2,0.3-0.4,0.5-0.5
			s0.5-0.2,0.7-0.3C41.6,84.4,41.9,84.4,42.1,84.4z M27.5,95c-0.7,0-1.5,0.1-2.3,0.2s-1.6,0.4-2.3,0.7c-0.7,0.3-1.3,0.8-1.8,1.3
			c-0.5,0.6-0.8,1.3-0.8,2.1c0,0.2-0.1,0.4-0.2,0.6s-0.3,0.5-0.4,0.7c-0.2,0.3-0.3,0.5-0.4,0.7s-0.2,0.5-0.2,0.7s0,0.3,0.1,0.5
			s0.1,0.3,0.2,0.5s0.2,0.3,0.2,0.5c0.1,0.2,0.1,0.3,0.1,0.5c0,0.3,0,0.7-0.1,1c0,0.3-0.1,0.6-0.1,1c0,1,0.3,1.9,0.9,2.7
			c0.6,0.8,1.3,1.5,2.2,2c0.9,0.6,1.8,1,2.8,1.3s1.9,0.5,2.8,0.5c0.4,0,0.7,0,1.1-0.1c0.4,0,0.7-0.1,1.1-0.1c0.2,0,0.4,0.1,0.6,0.2
			c0.1,0.1,0.3,0.3,0.4,0.4c0.1,0.2,0.3,0.3,0.5,0.4c0.2,0.1,0.4,0.2,0.6,0.2v-0.2c0-0.5,0.1-0.9,0.3-1.2c0.2-0.3,0.4-0.5,0.7-0.6
			s0.7-0.3,1-0.4c0.4-0.1,0.8-0.2,1.2-0.3c0.4-0.1,0.8-0.3,1.2-0.5s0.7-0.6,1-1c0.2-0.3,0.5-0.7,0.7-1c0.3-0.4,0.5-0.8,0.7-1.2
			c0.2-0.4,0.4-0.8,0.5-1.3c0.1-0.4,0.2-0.8,0.2-1.2c0-0.6-0.1-1.2-0.3-1.8c-0.2-0.6-0.3-1.2-0.3-1.8c0-0.2,0-0.5,0.1-0.8
			c-0.7-0.4-1.4-1-2-1.6s-1.1-1.3-1.3-2.2h-0.6c-0.6,0-1.3-0.1-1.9-0.2c-0.6-0.1-1.2-0.3-1.9-0.5c-0.6-0.2-1.3-0.3-2-0.5
			C29.1,95.1,28.3,95,27.5,95z"/>
		<path class="st0" d="M37.2,53.9c0.5,0,1,0.1,1.3,0.2c0.4,0.2,0.7,0.4,1,0.6c0.3,0.3,0.6,0.6,0.8,0.9c0.3,0.3,0.5,0.7,0.8,1
			c0.2,0.3,0.4,0.5,0.5,0.7s0.2,0.4,0.3,0.6c0.1,0.2,0.2,0.4,0.2,0.6c0.1,0.2,0.2,0.5,0.3,0.8c0.2,0.4,0.4,0.7,0.5,1
			c0.2,0.3,0.3,0.5,0.5,0.8c0.1,0.3,0.2,0.6,0.3,0.9c0.1,0.3,0.2,0.7,0.2,1.2c0.1,0.8,0.2,1.6,0.4,2.4c0.1,0.8,0.2,1.6,0.2,2.4
			c0,0.2,0,0.3-0.1,0.5s-0.1,0.4-0.2,0.6s-0.1,0.5-0.2,0.7c-0.1,0.3-0.1,0.6-0.1,1s-0.1,0.7-0.2,0.9s-0.3,0.4-0.4,0.6
			c-0.2,0.2-0.3,0.4-0.5,0.6s-0.3,0.4-0.5,0.8c-0.5,1.2-1.2,2.2-1.9,3s-1.6,1.5-2.5,2.1s-1.9,1.1-3,1.5s-2.2,0.7-3.4,1
			c-0.8,0.2-1.6,0.3-2.5,0.3c-1.1,0-2.1-0.3-3-0.8c-0.5,0.2-1.1,0.3-1.6,0.3c-0.4,0-0.9-0.1-1.7-0.3c-0.7-0.2-1.5-0.5-2.2-0.8
			s-1.4-0.7-2-1.1s-1-0.8-1.1-1.1c-0.1-0.3-0.2-0.5-0.2-0.6c0.2-0.2,0-0.2-0.3-0.2c-0.2,0-0.4-0.1-0.6-0.3c-0.2-0.2-0.3-0.4-0.4-0.7
			c-0.1-0.3-0.2-0.5-0.3-0.8s-0.2-0.5-0.2-0.7c-0.4-0.7-0.7-1.4-0.9-2.1s-0.4-1.3-0.6-2c-0.2-0.7-0.3-1.3-0.4-2
			c-0.1-0.7-0.1-1.5-0.1-2.3c0-0.4,0.1-0.9,0.2-1.3c0.1-0.4,0.3-0.8,0.5-1.2s0.4-0.8,0.6-1.1c0.2-0.4,0.4-0.7,0.7-1.1l0,0
			c0-0.3,0.1-0.6,0.2-0.8c0.1-0.3,0.2-0.5,0.2-0.8c0.3-0.3,0.7-0.6,1-1.1c0.3-0.4,0.6-0.9,1-1.3c0.3-0.4,0.7-0.8,1.1-1.1
			s0.8-0.5,1.3-0.5c0.1,0,0.2,0,0.2,0c0.1,0,0.2,0,0.3,0L20.4,56c0.1-0.1,0.2-0.2,0.3-0.2c0.1-0.1,0.3-0.1,0.5-0.2
			c0.2-0.1,0.3-0.1,0.5-0.1s0.3-0.1,0.4-0.1c0.3-0.2,0.5-0.4,0.6-0.6c0.2-0.3,0.4-0.5,0.6-0.6c0.2,0.2,0.5,0.3,0.8,0.3
			s0.7-0.1,1-0.2c0.3-0.1,0.7-0.2,1-0.2c0.4,0,0.8,0,1.1,0.1c0.4,0,0.7,0.1,1.1,0.1c0.3,0,0.5,0.1,0.7,0.3s0.3,0.5,0.4,0.7
			c0.1,0.3,0.2,0.5,0.4,0.7c0.1,0.2,0.3,0.3,0.5,0.3s0.2,0.1,0.2,0.3s0,0.3,0,0.5c0,0.9-0.1,1.7-0.3,2.6c-0.2,0.9-0.3,1.7-0.3,2.5
			c0,0.9,0.1,1.8,0.2,2.7c0.1,0.9,0.2,1.8,0.2,2.7c0,0.7,0,1.4-0.1,2c0,0.7-0.1,1.4-0.1,2c0,0.2,0,0.5,0.1,1s0.2,1,0.3,1.5
			c0.1,0.5,0.2,1.1,0.4,1.5c0.1,0.5,0.3,0.8,0.4,1c0.1,0,0.2,0,0.4,0c0.9,0,1.9-0.3,2.8-0.8c1-0.5,1.9-1.2,2.7-2.1s1.5-1.9,2-3
			s0.8-2.2,0.8-3.3c0-0.6,0-1.3,0.1-1.9c0-0.6,0.2-1.3,0.4-1.9c-0.3-0.5-0.5-1-0.9-1.5c-0.3-0.4-0.7-0.9-1.1-1.3
			c-0.4-0.4-0.8-0.8-1.1-1.2c-0.4-0.4-0.8-0.8-1.2-1.2c-0.1-0.1-0.2-0.3-0.2-0.6c-0.1-0.3-0.1-0.6-0.2-1c0-0.4-0.1-0.7-0.1-1
			s0-0.5,0-0.7c0-0.4,0.1-0.9,0.2-1.3C36.3,53.9,36.8,53.9,37.2,53.9z M25.3,58.3c-0.3,0-0.6,0-0.9,0.1s-0.6,0.2-0.9,0.2
			c-0.5,0.1-1.1,0.1-1.6,0.1s-1,0.1-1.6,0.2l0,0c0.1,0,0.2,0,0.3,0.1c0.1,0.1,0.2,0.2,0.2,0.3c0,0.2-0.1,0.5-0.2,0.7
			s-0.3,0.4-0.4,0.6c-0.3,0.7-0.6,1.4-0.9,2s-0.6,1.2-0.8,1.8c-0.2,0.6-0.4,1.2-0.5,1.9c-0.1,0.7-0.2,1.5-0.2,2.3c0,0.1,0,0.2,0,0.2
			c0,0.1,0,0.1,0.1,0.2l0.3-0.1l0.1,0.2c0.1,0.5,0.2,1,0.3,1.3c0.1,0.3,0.2,0.7,0.4,0.9c0.2,0.3,0.3,0.5,0.6,0.8
			c0.2,0.3,0.5,0.6,0.9,1c0.2,0.2,0.3,0.4,0.4,0.6s0.2,0.4,0.2,0.7c0.1,0.2,0.1,0.4,0.2,0.6s0.2,0.4,0.4,0.5c0.5,0.1,1,0.3,1.4,0.6
			c0.5,0.3,0.9,0.4,1.5,0.4c0.3,0,0.6-0.1,0.8-0.4c0.2-0.2,0.4-0.6,0.6-0.9c0.2-0.4,0.3-0.8,0.4-1.3s0.2-0.9,0.3-1.4
			c0.1-0.4,0.1-0.9,0.1-1.2c0-0.4,0-0.7,0-0.9c0-0.7-0.1-1.5-0.2-2.2s-0.2-1.5-0.2-2.2c0-0.8,0-1.5,0.1-2.3s0.1-1.5,0.1-2.3
			c0-0.2,0-0.5,0-0.9s-0.1-0.8-0.2-1.2s-0.2-0.7-0.4-1C25.8,58.4,25.6,58.3,25.3,58.3z"/>
	</g>
</g>
</svg>
