<svg width="40" height="40" viewBox="0 0 40 40" fill="none" xmlns="http://www.w3.org/2000/svg">
<path d="M30 30.8334C31.3834 30.8334 32.5 29.7167 32.5 28.3334C32.5 26.9501 31.3834 25.8334 30 25.8334C28.6167 25.8334 27.5 26.9501 27.5 28.3334C27.5 29.7167 28.6167 30.8334 30 30.8334ZM32.5 15.8334H28.3334V20.0001H35.7667L32.5 15.8334ZM10 30.8334C11.3834 30.8334 12.5 29.7167 12.5 28.3334C12.5 26.9501 11.3834 25.8334 10 25.8334C8.61669 25.8334 7.50002 26.9501 7.50002 28.3334C7.50002 29.7167 8.61669 30.8334 10 30.8334ZM33.3334 13.3334L38.3334 20.0001V28.3334H35C35 31.1001 32.7667 33.3334 30 33.3334C27.2334 33.3334 25 31.1001 25 28.3334H15C15 31.1001 12.7667 33.3334 10 33.3334C7.23335 33.3334 5.00002 31.1001 5.00002 28.3334H1.66669V10.0001C1.66669 8.15008 3.15002 6.66675 5.00002 6.66675H28.3334V13.3334H33.3334ZM5.00002 10.0001V25.0001H6.26669C7.18335 23.9834 8.51669 23.3334 10 23.3334C11.4834 23.3334 12.8167 23.9834 13.7334 25.0001H25V10.0001H5.00002ZM16.6667 11.6667L22.5 17.5001L16.6667 23.3334V19.1667H8.33335V15.8334H16.6667V11.6667Z" fill="white"/>
</svg>
