<svg width="20" height="20" viewBox="0 0 20 20" fill="none" xmlns="http://www.w3.org/2000/svg">
<path d="M15.8333 4.99992H14.1667C14.1667 2.66659 12.3333 0.833252 10 0.833252C7.66667 0.833252 5.83333 2.66659 5.83333 4.99992H4.16667C3.25 4.99992 2.5 5.74992 2.5 6.66658V16.6666C2.5 17.5833 3.25 18.3333 4.16667 18.3333H15.8333C16.75 18.3333 17.5 17.5833 17.5 16.6666V6.66658C17.5 5.74992 16.75 4.99992 15.8333 4.99992ZM10 2.49992C11.4167 2.49992 12.5 3.58325 12.5 4.99992H7.5C7.5 3.58325 8.58333 2.49992 10 2.49992ZM15.8333 16.6666H4.16667V6.66658H15.8333V16.6666ZM10 9.99992C8.58333 9.99992 7.5 8.91658 7.5 7.49992H5.83333C5.83333 9.83325 7.66667 11.6666 10 11.6666C12.3333 11.6666 14.1667 9.83325 14.1667 7.49992H12.5C12.5 8.91658 11.4167 9.99992 10 9.99992Z" fill="white"/>
</svg>
