<svg width="40" height="40" viewBox="0 0 40 40" fill="none" xmlns="http://www.w3.org/2000/svg">
<path d="M33.3334 13.3334H6.66671V10.0001H33.3334V13.3334ZM33.3334 30.0001H6.66671V20.0001H33.3334V30.0001ZM33.3334 6.66675H6.66671C4.81671 6.66675 3.33337 8.15008 3.33337 10.0001V30.0001C3.33337 30.8841 3.68456 31.732 4.30968 32.3571C4.93481 32.9822 5.78265 33.3334 6.66671 33.3334H33.3334C34.2174 33.3334 35.0653 32.9822 35.6904 32.3571C36.3155 31.732 36.6667 30.8841 36.6667 30.0001V10.0001C36.6667 9.11603 36.3155 8.26818 35.6904 7.64306C35.0653 7.01794 34.2174 6.66675 33.3334 6.66675Z" fill="white"/>
</svg>
