<svg width="40" height="40" viewBox="0 0 40 40" fill="none" xmlns="http://www.w3.org/2000/svg">
<path d="M20 3.33337C17.8113 3.33337 15.6441 3.76447 13.622 4.60205C11.5999 5.43963 9.76257 6.66728 8.21493 8.21493C5.08932 11.3405 3.33337 15.5798 3.33337 20C3.33337 24.4203 5.08932 28.6595 8.21493 31.7852C9.76257 33.3328 11.5999 34.5605 13.622 35.398C15.6441 36.2356 17.8113 36.6667 20 36.6667C24.4203 36.6667 28.6595 34.9108 31.7852 31.7852C34.9108 28.6595 36.6667 24.4203 36.6667 20C36.6667 17.8113 36.2356 15.6441 35.398 13.622C34.5605 11.5999 33.3328 9.76257 31.7852 8.21493C30.2375 6.66728 28.4002 5.43963 26.3781 4.60205C24.356 3.76447 22.1887 3.33337 20 3.33337ZM11.7834 30.4667C12.5 28.9667 16.8667 27.5 20 27.5C23.1334 27.5 27.5 28.9667 28.2167 30.4667C25.8823 32.3267 22.9848 33.3376 20 33.3334C16.9 33.3334 14.05 32.2667 11.7834 30.4667ZM30.6 28.05C28.2167 25.15 22.4334 24.1667 20 24.1667C17.5667 24.1667 11.7834 25.15 9.40004 28.05C7.62702 25.7411 6.66615 22.9112 6.66671 20C6.66671 12.65 12.65 6.66671 20 6.66671C27.35 6.66671 33.3334 12.65 33.3334 20C33.3334 23.0334 32.3 25.8334 30.6 28.05ZM20 10C16.7667 10 14.1667 12.6 14.1667 15.8334C14.1667 19.0667 16.7667 21.6667 20 21.6667C23.2334 21.6667 25.8334 19.0667 25.8334 15.8334C25.8334 12.6 23.2334 10 20 10ZM20 18.3334C19.337 18.3334 18.7011 18.07 18.2323 17.6011C17.7634 17.1323 17.5 16.4964 17.5 15.8334C17.5 15.1703 17.7634 14.5344 18.2323 14.0656C18.7011 13.5968 19.337 13.3334 20 13.3334C20.6631 13.3334 21.299 13.5968 21.7678 14.0656C22.2366 14.5344 22.5 15.1703 22.5 15.8334C22.5 16.4964 22.2366 17.1323 21.7678 17.6011C21.299 18.07 20.6631 18.3334 20 18.3334Z" fill="#403038"/>
</svg>
