<svg width="40" height="40" viewBox="0 0 40 40" fill="none" xmlns="http://www.w3.org/2000/svg">
<path d="M31.6667 9.99996H28.3333C28.3333 5.33329 24.6667 1.66663 20 1.66663C15.3333 1.66663 11.6667 5.33329 11.6667 9.99996H8.33333C6.5 9.99996 5 11.5 5 13.3333V33.3333C5 35.1666 6.5 36.6666 8.33333 36.6666H31.6667C33.5 36.6666 35 35.1666 35 33.3333V13.3333C35 11.5 33.5 9.99996 31.6667 9.99996ZM20 4.99996C22.8333 4.99996 25 7.16663 25 9.99996H15C15 7.16663 17.1667 4.99996 20 4.99996ZM31.6667 33.3333H8.33333V13.3333H31.6667V33.3333ZM20 20C17.1667 20 15 17.8333 15 15H11.6667C11.6667 19.6666 15.3333 23.3333 20 23.3333C24.6667 23.3333 28.3333 19.6666 28.3333 15H25C25 17.8333 22.8333 20 20 20Z" fill="#403038"/>
</svg>
