<svg width="40" height="40" viewBox="0 0 40 40" fill="none" xmlns="http://www.w3.org/2000/svg">
<path d="M20 6.66659C23.6666 6.66659 26.6666 9.66658 26.6666 13.3333C26.6666 16.8333 23.1666 22.4999 20 26.4999C16.8333 22.3333 13.3333 16.8333 13.3333 13.3333C13.3333 9.66658 16.3333 6.66659 20 6.66659ZM20 3.33325C14.5 3.33325 9.99996 7.83325 9.99996 13.3333C9.99996 20.8333 20 31.6666 20 31.6666C20 31.6666 30 20.6666 30 13.3333C30 7.83325 25.5 3.33325 20 3.33325ZM20 9.99992C18.1666 9.99992 16.6666 11.4999 16.6666 13.3333C16.6666 15.1666 18.1666 16.6666 20 16.6666C21.8333 16.6666 23.3333 15.1666 23.3333 13.3333C23.3333 11.4999 21.8333 9.99992 20 9.99992ZM33.3333 31.6666C33.3333 35.3333 27.3333 38.3333 20 38.3333C12.6666 38.3333 6.66663 35.3333 6.66663 31.6666C6.66663 29.4999 8.66663 27.6666 11.8333 26.3333L12.8333 27.8333C11.1666 28.6666 9.99996 29.6666 9.99996 30.8333C9.99996 33.1666 14.5 34.9999 20 34.9999C25.5 34.9999 30 33.1666 30 30.8333C30 29.6666 28.8333 28.6666 27 27.8333L28 26.3333C31.3333 27.6666 33.3333 29.4999 33.3333 31.6666Z" fill="white"/>
</svg>
