<svg width="74" height="54" viewBox="0 0 74 54" fill="none" xmlns="http://www.w3.org/2000/svg">
<path d="M56.9997 48.6668C59.7663 48.6668 61.9997 46.4335 61.9997 43.6668C61.9997 40.9002 59.7663 38.6668 56.9997 38.6668C54.233 38.6668 51.9997 40.9002 51.9997 43.6668C51.9997 46.4335 54.233 48.6668 56.9997 48.6668ZM61.9997 18.6668H53.6663V27.0002H68.533L61.9997 18.6668ZM16.9997 48.6668C19.7663 48.6668 21.9997 46.4335 21.9997 43.6668C21.9997 40.9002 19.7663 38.6668 16.9997 38.6668C14.233 38.6668 11.9997 40.9002 11.9997 43.6668C11.9997 46.4335 14.233 48.6668 16.9997 48.6668ZM63.6663 13.6668L73.6663 27.0002V43.6668H66.9997C66.9997 49.2002 62.533 53.6668 56.9997 53.6668C51.4663 53.6668 46.9997 49.2002 46.9997 43.6668H26.9997C26.9997 49.2002 22.533 53.6668 16.9997 53.6668C11.4663 53.6668 6.99967 49.2002 6.99967 43.6668H0.333008V7.00016C0.333008 3.30016 3.29967 0.333496 6.99967 0.333496H53.6663V13.6668H63.6663ZM6.99967 7.00016V37.0002H9.53301C11.3663 34.9668 14.033 33.6668 16.9997 33.6668C19.9663 33.6668 22.633 34.9668 24.4663 37.0002H46.9997V7.00016H6.99967ZM30.333 10.3335L41.9997 22.0002L30.333 33.6668V25.3335H13.6663V18.6668H30.333V10.3335Z" fill="white"/>
</svg>
