<svg width="68" height="60" viewBox="0 0 68 60" fill="none" xmlns="http://www.w3.org/2000/svg">
<path d="M14.0003 33.3333C6.63366 33.3333 0.666992 39.3 0.666992 46.6667C0.666992 54.0333 6.63366 60 14.0003 60C21.367 60 27.3337 54.0333 27.3337 46.6667C27.3337 39.3 21.367 33.3333 14.0003 33.3333ZM14.0003 53.3333C10.3337 53.3333 7.33366 50.3333 7.33366 46.6667C7.33366 43 10.3337 40 14.0003 40C17.667 40 20.667 43 20.667 46.6667C20.667 50.3333 17.667 53.3333 14.0003 53.3333ZM14.0003 0C6.63366 0 0.666992 5.96667 0.666992 13.3333C0.666992 20.7 6.63366 26.6667 14.0003 26.6667C21.367 26.6667 27.3337 20.7 27.3337 13.3333C27.3337 5.96667 21.367 0 14.0003 0ZM34.0003 6.66667H67.3337V13.3333H34.0003V6.66667ZM34.0003 53.3333V46.6667H67.3337V53.3333H34.0003ZM34.0003 26.6667H67.3337V33.3333H34.0003V26.6667Z" fill="white"/>
</svg>
