<svg width="68" height="68" viewBox="0 0 68 68" fill="none" xmlns="http://www.w3.org/2000/svg">
<path d="M34.0003 0.666504C29.6229 0.666504 25.2884 1.5287 21.2442 3.20385C17.2 4.87901 13.5254 7.33432 10.4301 10.4296C4.17889 16.6808 0.666992 25.1593 0.666992 33.9998C0.666992 42.8404 4.17889 51.3188 10.4301 57.5701C13.5254 60.6653 17.2 63.1207 21.2442 64.7958C25.2884 66.471 29.6229 67.3332 34.0003 67.3332C42.8409 67.3332 51.3193 63.8213 57.5705 57.5701C63.8218 51.3188 67.3337 42.8404 67.3337 33.9998C67.3337 29.6224 66.4715 25.2879 64.7963 21.2437C63.1212 17.1995 60.6658 13.5249 57.5705 10.4296C54.4753 7.33432 50.8006 4.87901 46.7564 3.20385C42.7123 1.5287 38.3777 0.666504 34.0003 0.666504ZM17.567 54.9332C19.0003 51.9332 27.7337 48.9998 34.0003 48.9998C40.267 48.9998 49.0003 51.9332 50.4337 54.9332C45.7649 58.6533 39.9699 60.675 34.0003 60.6665C27.8003 60.6665 22.1003 58.5332 17.567 54.9332ZM55.2003 50.0998C50.4337 44.2998 38.867 42.3332 34.0003 42.3332C29.1337 42.3332 17.567 44.2998 12.8003 50.0998C9.25428 45.4819 7.33254 39.8222 7.33366 33.9998C7.33366 19.2998 19.3003 7.33317 34.0003 7.33317C48.7003 7.33317 60.667 19.2998 60.667 33.9998C60.667 40.0665 58.6003 45.6665 55.2003 50.0998ZM34.0003 13.9998C27.5337 13.9998 22.3337 19.1998 22.3337 25.6665C22.3337 32.1332 27.5337 37.3332 34.0003 37.3332C40.467 37.3332 45.667 32.1332 45.667 25.6665C45.667 19.1998 40.467 13.9998 34.0003 13.9998ZM34.0003 30.6665C32.6742 30.6665 31.4025 30.1397 30.4648 29.202C29.5271 28.2644 29.0003 26.9926 29.0003 25.6665C29.0003 24.3404 29.5271 23.0687 30.4648 22.131C31.4025 21.1933 32.6742 20.6665 34.0003 20.6665C35.3264 20.6665 36.5982 21.1933 37.5359 22.131C38.4735 23.0687 39.0003 24.3404 39.0003 25.6665C39.0003 26.9926 38.4735 28.2644 37.5359 29.202C36.5982 30.1397 35.3264 30.6665 34.0003 30.6665Z" fill="white"/>
</svg>
