<svg width="23" height="17" viewBox="0 0 23 17" fill="none" xmlns="http://www.w3.org/2000/svg">
<path d="M11.5003 5.375C10.6715 5.375 9.87667 5.70424 9.29062 6.29029C8.70457 6.87634 8.37533 7.6712 8.37533 8.5C8.37533 9.3288 8.70457 10.1237 9.29062 10.7097C9.87667 11.2958 10.6715 11.625 11.5003 11.625C12.3291 11.625 13.124 11.2958 13.71 10.7097C14.2961 10.1237 14.6253 9.3288 14.6253 8.5C14.6253 7.6712 14.2961 6.87634 13.71 6.29029C13.124 5.70424 12.3291 5.375 11.5003 5.375ZM11.5003 13.7083C10.119 13.7083 8.79423 13.1596 7.81748 12.1828C6.84073 11.2061 6.29199 9.88134 6.29199 8.5C6.29199 7.11866 6.84073 5.7939 7.81748 4.81715C8.79423 3.8404 10.119 3.29167 11.5003 3.29167C12.8817 3.29167 14.2064 3.8404 15.1832 4.81715C16.1599 5.7939 16.7087 7.11866 16.7087 8.5C16.7087 9.88134 16.1599 11.2061 15.1832 12.1828C14.2064 13.1596 12.8817 13.7083 11.5003 13.7083V13.7083ZM11.5003 0.6875C6.29199 0.6875 1.84408 3.92708 0.0419922 8.5C1.84408 13.0729 6.29199 16.3125 11.5003 16.3125C16.7087 16.3125 21.1566 13.0729 22.9587 8.5C21.1566 3.92708 16.7087 0.6875 11.5003 0.6875Z" fill="#C6C1C4"/>
</svg>
