<svg width="17" height="22" viewBox="0 0 17 22" fill="none" xmlns="http://www.w3.org/2000/svg">
<path d="M8.14166 2.98281C10.3806 2.98281 12.2125 4.78273 12.2125 6.98262C12.2125 9.08252 10.0753 12.4824 8.14166 14.8822C6.20801 12.3824 4.07083 9.08252 4.07083 6.98262C4.07083 4.78273 5.9027 2.98281 8.14166 2.98281ZM8.14166 0.98291C4.78322 0.98291 2.03541 3.68278 2.03541 6.98262C2.03541 11.4824 8.14166 17.9821 8.14166 17.9821C8.14166 17.9821 14.2479 11.3824 14.2479 6.98262C14.2479 3.68278 11.5001 0.98291 8.14166 0.98291ZM8.14166 4.98272C7.02218 4.98272 6.10624 5.88268 6.10624 6.98262C6.10624 8.08257 7.02218 8.98253 8.14166 8.98253C9.26114 8.98253 10.1771 8.08257 10.1771 6.98262C10.1771 5.88268 9.26114 4.98272 8.14166 4.98272ZM16.2833 17.9821C16.2833 20.182 12.6196 21.9819 8.14166 21.9819C3.66375 21.9819 0 20.182 0 17.9821C0 16.6822 1.22125 15.5822 3.15489 14.7822L3.76552 15.6822C2.74781 16.1822 2.03541 16.7822 2.03541 17.4821C2.03541 18.8821 4.78322 19.982 8.14166 19.982C11.5001 19.982 14.2479 18.8821 14.2479 17.4821C14.2479 16.7822 13.5355 16.1822 12.416 15.6822L13.0267 14.7822C15.0621 15.5822 16.2833 16.6822 16.2833 17.9821Z" fill="white"/>
</svg>
