<svg width="40" height="40" viewBox="0 0 40 40" fill="none" xmlns="http://www.w3.org/2000/svg">
<path d="M24.3 9.40015H24.2C24.2 9.50015 24.2 9.50015 24.3 9.40015Z" fill="#403038"/>
<path d="M23.3 7.00003C22.4 8.00003 21.9 8.10003 21.1 9.30003C20.7 9.80003 20.3 10.4 19.9 11C19.9 11.4 19.4 11.7 19.3 12.1H19.1C19.1 12.2 19 12.4 18.9 12.4C18.9 12.6 18.7 12.7 18.7 12.9L18.5 13V12.9C18.4 13.2 18.2 13.5 18 13.7L18.2 13.8C17.6 14.2 17.8 14.6 17.2 14.9C17.1 15.8 16.2 15.6 16.1 16.5C16.1 16.4 16 16.5 16 16.4C15.8 16.7 15.6 17 15.9 17.2C15.7 17.4 15.7 17.3 15.6 17.2C15.7 17.3 15.6 17.5 15.5 17.7V17.6L15 18.1L15.3 18.2C15.2 18.3 15.1 18.2 15 18.2C14.9 18.2 14.9 18.1 14.8 18.3L15 18.4C14.6 18.8 14 18.9 13.4 19.5C13.3 19.6 13.2 19.7 13.2 19.8C13.6 20.3 14.1 20.9 14.6 21.4L14.8 21.6L14.9 21.7L15 22C15.1 22.1 15.3 22.3 15.4 22.4C16 23 16.5 23.6 16.8 24.3L16.7 24.5C16.5 24.7 17.3 24.6 17.1 24.8L17.3 24.9C17.3 25 17.3 25.1 17.2 25.1C17.3 25.2 17.3 25.2 17.5 25.3V25.5C17.8 26.1 18.4 26.3 18.8 26.9C19.1 27.8 20.3 28.8 21 29.4C22.1 30.1 22.2 32 23.4 32.7C23.4 32.8 23.5 32.8 23.6 32.8L24.3 33.8C24.3 33.8 27.8 38.4 26.8 33.5H26.9C26.6 32.9 26.4 32.6 25.9 32.4C26.1 32.1 25.6 32 25.6 31.8C25.1 31.7 25.3 31 24.8 30.9C24.8 30.9 24.9 30.8 25 30.9C24.8 30.7 24.5 30.5 24.6 30.3C24.1 29.8 23.6 29 23.1 28.9H23.2C22.9 28.9 23 28.7 22.7 28.5V28.4C22.4 28.3 22.2 27.8 22 27.7L22.1 27.6L21.7 27.2L21.8 27.4C21.5 27.6 21.7 26.9 21.3 26.8C21.1 26.5 20.2 26.7 20.1 26.3C19.8 26.3 20.4 26.2 20.2 26.1C20.4 26 20.4 26.1 20.5 26C20.3 25.9 20.4 25.5 20.1 25.4L20.2 25.3C19.7 25.2 19.9 24.6 19.5 24.5C19.1 24.2 19.7 24 19.2 23.8L19.3 23.5C19.2 23.3 19 23.6 19 23.3C19.1 23.2 18.9 23 19.1 23C19 22.5 18.3 22.4 18.1 21.7C17.8 21.8 17.7 21.4 17.5 21.4C17.6 21.3 17.1 20.9 17.5 21C17.5 21 17.6 21.1 17.5 21.1L17.6 21C17.6 20.5 17.1 20.6 16.9 20.3C16.9 20.4 17 20.5 16.9 20.5L16.7 20.2H16.8L16.7 20.1V20C16.7 20 16.7 20 16.7 19.9L16.6 20C16.6 19.9 16.9 19.8 16.6 19.8C16.4 19.8 16.4 19.9 16.3 19.9L16.4 19.8C16.5 19.8 16.6 19.7 16.7 19.7C16.5 19.6 16.5 19.6 16.5 19.6L16.7 19.7C16.6 19.6 16.7 19.6 16.8 19.7C16.8 19.7 16.9 19.7 16.9 19.8C16.9 19.8 16.9 19.7 17 19.7L17.1 19.8L16.9 19.5C16.9 19 17.3 19.5 17.2 18.9C17.1 19.1 16.9 18.7 17.1 18.6L17.2 18.7C17.2 18.6 17.2 18.5 17.3 18.5C17.3 18.6 17.4 18.7 17.5 18.5L17.6 18.7V18.3C17.9 18.2 18 17.8 18.2 17.8C18.2 17.8 18.6 17.4 18.5 17.2C18.5 17.4 18.8 17.2 18.9 17.3C18.9 17.1 19 16.7 19.3 16.7C19.8 16.3 19.8 15.7 20.3 15.4C20.1 15.3 20.4 15.1 20.2 15C20.4 14.4 21.2 14.5 20.8 13.9C20.9 13.7 21.1 13.8 21.2 13.7V13.8C21.5 13.4 21.5 13.3 21.8 13C21.9 12.8 21.6 12.6 21.9 12.4C21.9 12.6 22 12.4 22.1 12.4C22.1 12.5 22.1 12.5 22.3 12.5V12.4C22.4 12.2 22.3 12.2 22.3 12.3C22.3 12.3 22.3 12.3 22.2 12.3C22.5 12.2 22.6 11.8 22.8 12C23.1 11.5 23.2 11 23.5 10.6C23.6 10.6 23.6 10.8 23.6 10.9L23.8 10.6C23.9 10.7 23.7 10.8 23.7 10.9C24.2 10.7 24 10 24.5 9.80003V9.60003C24.4 9.60003 24.4 9.40003 24.5 9.30003C24.7 9.30003 24.8 9.50003 24.9 9.30003C25.1 9.20003 25.2 8.80003 25.3 8.60003C25.2 8.70003 25.2 8.60003 25.2 8.50003C24.9 8.30003 25 8.30003 25 8.20003L25.2 8.30003C25 8.20003 25.2 7.90003 25.2 7.80003C25.4 7.80003 25.2 8.00003 25.2 8.10003C25.5 7.70003 25.3 7.90003 25.6 7.50003C25.6 7.20003 25.4 7.40003 25.4 7.20003C25.5 7.00003 25.6 6.70003 25.8 6.60003H25.6C25.8 6.20003 26 6.00003 26.3 5.90003C27.2 2.40003 25.2 4.10003 25.2 4.10003C24.2 4.90003 24.1 5.70003 23.3 7.00003Z" fill="#403038"/>
</svg>
