<svg width="40" height="40" viewBox="0 0 40 40" fill="none" xmlns="http://www.w3.org/2000/svg">
<path d="M15.7001 30.5999H15.8C15.8 30.4999 15.8001 30.4999 15.7001 30.5999Z" fill="#403038"/>
<path d="M16.7 33C17.6 32 18.1 31.9 18.9 30.7C19.3 30.2 19.7 29.6 20.1 29C20.1 28.6 20.6 28.3 20.7 27.9H20.9C20.9 27.8 21 27.6 21.1 27.6C21.1 27.4 21.3 27.3 21.3 27.1L21.5 27V27.1C21.6 26.8 21.8 26.5 22 26.3L21.8 26.2C22.4 25.8 22.2 25.4 22.8 25.1C22.9 24.2 23.8 24.4 23.9 23.5C23.9 23.6 24 23.5 24 23.6C24.2 23.3 24.4 23 24.1 22.8C24.3 22.6 24.3 22.7 24.4 22.8C24.3 22.7 24.4 22.5 24.5 22.3V22.4L25 21.9L24.7 21.8C24.8 21.7 24.9 21.8 25 21.8C25.1 21.8 25.1 21.9 25.2 21.7L25 21.6C25.4 21.2 26 21.1 26.6 20.5C26.7 20.4 26.8 20.3 26.8 20.2C26.4 19.7 25.9 19.1 25.4 18.6L25.2 18.4L25.1 18.3L25 18C24.9 17.9 24.7 17.7 24.6 17.6C24 17 23.5 16.4 23.2 15.7L23.3 15.5C23.5 15.3 22.7 15.4 22.9 15.2L22.7 15.1C22.7 15 22.7 14.9 22.8 14.9C22.7 14.8 22.7 14.8 22.5 14.7V14.5C22.2 13.9 21.6 13.7 21.2 13.1C20.9 12.2 19.7 11.2 19 10.6C17.9 9.89997 17.8 7.99997 16.6 7.29997C16.6 7.19997 16.5 7.19997 16.4 7.19997L15.7 6.19997C15.7 6.19997 12.2 1.59997 13.2 6.49997H13.1C13.4 7.09997 13.6 7.39997 14.1 7.59997C13.9 7.89997 14.4 7.99997 14.4 8.19997C14.9 8.29997 14.7 8.99997 15.2 9.09997C15.2 9.09997 15.1 9.19997 15 9.09997C15.2 9.29997 15.5 9.49997 15.4 9.69997C15.9 10.2 16.4 11 16.9 11.1H16.8C17.1 11.1 17 11.3 17.3 11.5V11.6C17.6 11.7 17.8 12.2 18 12.3L17.9 12.4L18.3 12.8L18.2 12.6C18.5 12.4 18.3 13.1 18.7 13.2C18.9 13.5 19.8 13.3 19.9 13.7C20.2 13.7 19.6 13.8 19.8 13.9C19.6 14 19.6 13.9 19.5 14C19.7 14.1 19.6 14.5 19.9 14.6L19.8 14.7C20.3 14.8 20.1 15.4 20.5 15.5C20.9 15.8 20.3 16 20.8 16.2L20.7 16.5C20.8 16.7 21 16.4 21 16.7C20.9 16.8 21.1 17 20.9 17C21 17.5 21.7 17.6 21.9 18.3C22.2 18.2 22.3 18.6 22.5 18.6C22.4 18.7 22.9 19.1 22.5 19C22.5 19 22.4 18.9 22.5 18.9L22.4 19C22.4 19.5 22.9 19.4 23.1 19.7C23.1 19.6 23 19.5 23.1 19.5L23.3 19.8H23.2L23.3 19.9L23.3 20C23.3 20 23.3 20 23.3 20.1L23.4 20C23.4 20.1 23.1 20.2 23.4 20.2C23.6 20.2 23.6 20.1 23.7 20.1L23.6 20.2C23.5 20.2 23.4 20.3 23.3 20.3C23.5 20.4 23.5 20.4 23.5 20.4L23.3 20.3C23.4 20.4 23.3 20.4 23.2 20.3C23.2 20.3 23.1 20.3 23.1 20.2C23.1 20.2 23.1 20.3 23 20.3L22.9 20.2L23.1 20.5C23.1 21 22.7 20.5 22.8 21.1C22.9 20.9 23.1 21.3 22.9 21.4L22.8 21.3C22.8 21.4 22.8 21.5 22.7 21.5C22.7 21.4 22.6 21.3 22.5 21.5L22.4 21.3V21.7C22.1 21.8 22 22.2 21.8 22.2C21.8 22.2 21.4 22.6 21.5 22.8C21.5 22.6 21.2 22.8 21.1 22.7C21.1 22.9 21 23.3 20.7 23.3C20.2 23.7 20.2 24.3 19.7 24.6C19.9 24.7 19.6 24.9 19.8 25C19.6 25.6 18.8 25.5 19.2 26.1C19.1 26.3 18.9 26.2 18.8 26.3V26.2C18.5 26.6 18.5 26.7 18.2 27C18.1 27.2 18.4 27.4 18.1 27.6C18.1 27.4 18 27.6 17.9 27.6C17.9 27.5 17.9 27.5 17.7 27.5V27.6C17.6 27.8 17.7 27.8 17.7 27.7C17.7 27.7 17.7 27.7 17.8 27.7C17.5 27.8 17.4 28.2 17.2 28C16.9 28.5 16.8 29 16.5 29.4C16.4 29.4 16.4 29.2 16.4 29.1L16.2 29.4C16.1 29.3 16.3 29.2 16.3 29.1C15.8 29.3 16 30 15.5 30.2V30.4C15.6 30.4 15.6 30.6 15.5 30.7C15.3 30.7 15.2 30.5 15.1 30.7C14.9 30.8 14.8 31.2 14.7 31.4C14.8 31.3 14.8 31.4 14.8 31.5C15.1 31.7 15 31.7 15 31.8L14.8 31.7C15 31.8 14.8 32.1 14.8 32.2C14.6 32.2 14.8 32 14.8 31.9C14.5 32.3 14.7 32.1 14.4 32.5C14.4 32.8 14.6 32.6 14.6 32.8C14.5 33 14.4 33.3 14.2 33.4H14.4C14.2 33.8 14 34 13.7 34.1C12.8 37.6 14.8 35.9 14.8 35.9C15.8 35.1 15.9 34.3 16.7 33Z" fill="#403038"/>
</svg>
